<svg width="17" height="17" viewBox="0 0 17 17" fill="none" xmlns="http://www.w3.org/2000/svg">
<path d="M8.4707 1.31662C8.63889 1.31663 8.80702 1.32283 8.97475 1.33522L9.04718 0.359423C8.85535 0.345167 8.66306 0.337984 8.4707 0.337891V1.31662Z" stroke="black" stroke-opacity="0.7" stroke-width="0.5"/>
<path d="M9.97208 1.48301C10.3002 1.55677 10.6224 1.65458 10.9361 1.77565L11.2885 0.86249C10.9303 0.723511 10.5613 0.611935 10.1864 0.527764L9.97208 1.48301Z" stroke="black" stroke-opacity="0.7" stroke-width="0.5"/>
<path d="M11.8473 2.20629C11.9937 2.28908 12.1371 2.37722 12.277 2.47055C12.4169 2.56401 12.5534 2.66358 12.6861 2.7671L13.288 1.99488C12.9847 1.75835 12.6645 1.54441 12.3298 1.35479L11.8473 2.20629Z" stroke="black" stroke-opacity="0.7" stroke-width="0.5"/>
<path d="M13.4329 3.4434C13.6648 3.68703 13.8784 3.94743 14.072 4.22247L14.8726 3.65872C14.6504 3.34553 14.4057 3.04702 14.1415 2.76808L13.4329 3.4434Z" stroke="black" stroke-opacity="0.7" stroke-width="0.5"/>
<path d="M14.5907 5.08767C14.6661 5.23777 14.7359 5.39055 14.8002 5.54572C14.8643 5.7011 14.9228 5.85878 14.9753 6.01845L15.9051 5.7121C15.7848 5.34678 15.6376 4.99086 15.4647 4.64724L14.5907 5.08767Z" stroke="black" stroke-opacity="0.7" stroke-width="0.5"/>
<path d="M15.221 6.9962C15.2783 7.32774 15.311 7.66305 15.3189 7.9994H15.3199L16.2986 7.97493C16.2888 7.59127 16.2506 7.2076 16.1851 6.82981L15.221 6.9962Z" stroke="black" stroke-opacity="0.7" stroke-width="0.5"/>
<path d="M15.2699 9.00553C15.2494 9.1729 15.223 9.3383 15.1907 9.50469C15.1574 9.67009 15.1182 9.83354 15.0732 9.99503L16.0167 10.2564C16.1196 9.88562 16.1948 9.50777 16.2418 9.12592L15.2699 9.00553Z" stroke="black" stroke-opacity="0.7" stroke-width="0.5"/>
<path d="M14.7346 10.9444C14.5976 11.2517 14.439 11.5493 14.2589 11.8331L15.0859 12.3567C15.2915 12.0318 15.4725 11.6931 15.6291 11.3408L14.7346 10.9444Z" stroke="black" stroke-opacity="0.7" stroke-width="0.5"/>
<path d="M13.658 12.6425C13.5493 12.7697 13.4348 12.8931 13.3154 13.0125L14.0074 13.7044C14.1433 13.5683 14.2742 13.4273 14.3999 13.2816L13.658 12.6425Z" stroke="black" stroke-opacity="0.7" stroke-width="0.5"/>
<path d="M8.47158 1.31662C7.34494 1.3167 6.23571 1.59463 5.24213 2.12578C4.24856 2.65693 3.40131 3.42491 2.77542 4.3617C2.14953 5.29849 1.76433 6.37517 1.65393 7.49639C1.54353 8.61761 1.71134 9.74874 2.14249 10.7896C2.57365 11.8305 3.25484 12.749 4.12574 13.4637C4.99664 14.1784 6.03036 14.6674 7.13535 14.8872C8.24033 15.107 9.38248 15.0509 10.4606 14.7239C11.5387 14.3969 12.5196 13.8091 13.3163 13.0125L14.0083 13.7044C13.0978 14.6154 11.9767 15.2877 10.7442 15.6619C9.5118 16.036 8.20612 16.1004 6.94286 15.8493C5.67961 15.5982 4.49779 15.0394 3.50212 14.2224C2.50645 13.4054 1.72767 12.3554 1.23478 11.1655C0.741886 9.97556 0.550107 8.68243 0.676429 7.40068C0.802752 6.11892 1.24328 4.88811 1.95897 3.8173C2.67467 2.74649 3.64343 1.86873 4.77944 1.26182C5.91544 0.654897 7.18361 0.337549 8.47158 0.337891V1.31662Z" fill="black" fill-opacity="0.7" stroke="black" stroke-opacity="0.7" stroke-width="0.5"/>
<path d="M7.9816 3.27441C8.1114 3.27441 8.23588 3.32598 8.32766 3.41776C8.41945 3.50954 8.47101 3.63402 8.47101 3.76382V8.86348L11.6502 10.6802C11.7596 10.7462 11.8389 10.8524 11.8711 10.9761C11.9032 11.0997 11.8857 11.2311 11.8223 11.342C11.7589 11.453 11.6547 11.5348 11.5318 11.5698C11.4089 11.6049 11.2771 11.5905 11.1647 11.5298L7.73885 9.57215C7.66394 9.52936 7.60168 9.46753 7.55836 9.39293C7.51504 9.31833 7.49222 9.2336 7.49219 9.14734V3.76382C7.49219 3.63402 7.54375 3.50954 7.63553 3.41776C7.72731 3.32598 7.8518 3.27441 7.9816 3.27441Z" fill="black" fill-opacity="0.7" stroke="black" stroke-opacity="0.7" stroke-width="0.2"/>
</svg>
