<svg width="13" height="13" viewBox="0 0 13 13" fill="none" xmlns="http://www.w3.org/2000/svg">
<path d="M12.7884 7.85417C12.7884 7.88238 12.7856 7.90213 12.7799 7.91341C12.4188 9.42556 11.6628 10.6514 10.5117 11.5908C9.36068 12.5303 8.01215 13 6.46615 13C5.64236 13 4.84538 12.8448 4.0752 12.5345C3.30501 12.2242 2.61806 11.7813 2.01432 11.2057L0.922526 12.2975C0.815321 12.4047 0.688368 12.4583 0.541667 12.4583C0.394965 12.4583 0.268012 12.4047 0.160807 12.2975C0.0536024 12.1903 0 12.0634 0 11.9167V8.125C0 7.9783 0.0536024 7.85135 0.160807 7.74414C0.268012 7.63694 0.394965 7.58333 0.541667 7.58333H4.33333C4.48003 7.58333 4.60699 7.63694 4.71419 7.74414C4.8214 7.85135 4.875 7.9783 4.875 8.125C4.875 8.2717 4.8214 8.39865 4.71419 8.50586L3.55469 9.66536C3.9553 10.0378 4.40951 10.3255 4.91732 10.5286C5.42513 10.7318 5.95269 10.8333 6.5 10.8333C7.25608 10.8333 7.96137 10.65 8.61589 10.2832C9.2704 9.91645 9.79514 9.41146 10.1901 8.76823C10.2522 8.67231 10.4017 8.34223 10.6387 7.778C10.6838 7.64822 10.7684 7.58333 10.8926 7.58333H12.5176C12.5909 7.58333 12.6544 7.61013 12.708 7.66374C12.7616 7.71734 12.7884 7.78082 12.7884 7.85417ZM13 1.08333V4.875C13 5.0217 12.9464 5.14865 12.8392 5.25586C12.732 5.36306 12.605 5.41667 12.4583 5.41667H8.66667C8.51997 5.41667 8.39301 5.36306 8.28581 5.25586C8.1786 5.14865 8.125 5.0217 8.125 4.875C8.125 4.7283 8.1786 4.60135 8.28581 4.49414L9.45378 3.32617C8.61871 2.55317 7.63411 2.16667 6.5 2.16667C5.74392 2.16667 5.03863 2.35004 4.38411 2.7168C3.7296 3.08355 3.20486 3.58854 2.8099 4.23177C2.74783 4.32769 2.59831 4.65777 2.36133 5.22201C2.31619 5.35178 2.23155 5.41667 2.10742 5.41667H0.423177C0.349826 5.41667 0.28635 5.38987 0.232747 5.33626C0.179145 5.28266 0.152344 5.21918 0.152344 5.14583V5.08659C0.519097 3.57444 1.28082 2.34863 2.4375 1.40918C3.59418 0.469727 4.94835 0 6.5 0C7.32379 0 8.125 0.156576 8.90365 0.469727C9.68229 0.782878 10.3735 1.22439 10.9772 1.79427L12.0775 0.702474C12.1847 0.595269 12.3116 0.541667 12.4583 0.541667C12.605 0.541667 12.732 0.595269 12.8392 0.702474C12.9464 0.809679 13 0.936632 13 1.08333Z" fill="#F25922"/>
</svg>
