<svg width="14" height="18" viewBox="0 0 14 18" fill="none" xmlns="http://www.w3.org/2000/svg">
<path d="M6.75 13.5C6.30245 13.5 5.87323 13.3222 5.55676 13.0057C5.24029 12.6893 5.0625 12.2601 5.0625 11.8125C5.0625 10.8759 5.81344 10.125 6.75 10.125C7.19755 10.125 7.62677 10.3028 7.94324 10.6193C8.25971 10.9357 8.4375 11.3649 8.4375 11.8125C8.4375 12.2601 8.25971 12.6893 7.94324 13.0057C7.62677 13.3222 7.19755 13.5 6.75 13.5ZM11.8125 16.0312V7.59375H1.6875V16.0312H11.8125ZM11.8125 5.90625C12.2601 5.90625 12.6893 6.08404 13.0057 6.40051C13.3222 6.71698 13.5 7.1462 13.5 7.59375V16.0312C13.5 16.4788 13.3222 16.908 13.0057 17.2245C12.6893 17.541 12.2601 17.7188 11.8125 17.7188H1.6875C1.23995 17.7188 0.810725 17.541 0.494257 17.2245C0.17779 16.908 0 16.4788 0 16.0312V7.59375C0 6.65719 0.750937 5.90625 1.6875 5.90625H2.53125V4.21875C2.53125 3.09987 2.97572 2.02681 3.76689 1.23564C4.55806 0.444474 5.63112 0 6.75 0C7.30401 0 7.8526 0.109121 8.36445 0.321133C8.87629 0.533145 9.34136 0.843896 9.73311 1.23564C10.1249 1.62739 10.4356 2.09246 10.6476 2.6043C10.8596 3.11615 10.9688 3.66474 10.9688 4.21875V5.90625H11.8125ZM6.75 1.6875C6.07867 1.6875 5.43484 1.95418 4.96014 2.42889C4.48543 2.90359 4.21875 3.54742 4.21875 4.21875V5.90625H9.28125V4.21875C9.28125 3.54742 9.01457 2.90359 8.53986 2.42889C8.06516 1.95418 7.42133 1.6875 6.75 1.6875Z" fill="#262626" fill-opacity="0.8"/>
</svg>
