<svg width="25" height="22" viewBox="0 0 25 22" fill="none" xmlns="http://www.w3.org/2000/svg">
<path d="M2.19879 11.4099C1.82395 11.7999 1.47446 12.1632 1.14204 12.509C0.728011 12.0941 0.351326 11.7165 0 11.3642C0.993119 10.3702 2.01621 9.34572 3.02131 8.33877C4.00613 9.32405 5.02968 10.3476 6.03433 11.3532C5.68162 11.7091 5.3054 12.0886 4.89736 12.5003C4.5843 12.1729 4.24727 11.8207 3.91023 11.4684L3.85306 11.5025C3.92407 12.8641 4.2883 14.1476 4.943 15.3459C6.01404 17.3059 7.58394 18.7264 9.65686 19.5572C13.8151 21.223 18.529 19.7154 20.9348 15.9739C23.3733 12.1812 22.7952 7.31384 19.4926 4.18694C17.5479 2.34547 15.2034 1.51096 12.5269 1.67233C9.84728 1.83416 7.67339 3.03614 5.89186 5.0339C5.5078 4.62033 5.1491 4.23397 4.78763 3.84437C7.97861 0.113031 13.136 -0.995353 17.4999 0.930025C22.288 3.04213 24.8658 8.05752 23.8349 13.1582C22.8385 18.0874 18.4262 21.7777 13.4149 21.8616C10.4526 21.9114 7.86288 20.9423 5.69361 18.9242C3.52709 16.9085 2.3952 14.3878 2.19879 11.4099Z" fill="#FFF9F8" fill-opacity="0.8"/>
<path d="M7.86616 9.36603H9.48539C9.48539 9.25399 9.48124 9.15809 9.48585 9.06219C9.51721 8.41948 9.46926 7.76016 9.59835 7.13774C9.95014 5.44104 11.6063 4.23676 13.3136 4.35709C15.1315 4.48527 16.5981 5.89288 16.7365 7.6615C16.7729 8.12763 16.7554 8.59791 16.7623 9.06634C16.7637 9.15625 16.7623 9.24662 16.7623 9.3628H18.3787V16.7305H7.86523V9.36603H7.86616ZM9.50937 11.0378C9.50937 11.1231 9.50937 11.1974 9.50937 11.272C9.50937 12.4703 9.51444 13.6682 9.50476 14.8665C9.50291 15.0721 9.56239 15.1228 9.76387 15.1223C12.0143 15.1154 14.2647 15.1159 16.5147 15.1214C16.7005 15.1219 16.766 15.0776 16.7646 14.8803C16.7558 13.6746 16.7604 12.4685 16.7595 11.2628C16.7595 11.1891 16.7521 11.1157 16.7475 11.0374H9.50937V11.0378ZM11.1908 9.34667H15.1209C15.1209 8.86071 15.1278 8.39274 15.1195 7.92476C15.1015 6.93487 14.3334 6.09344 13.3753 6.00492C12.3066 5.90625 11.3656 6.54067 11.2065 7.56329C11.1171 8.13869 11.1904 8.73945 11.1904 9.34667H11.1908Z" fill="#FFF9F8" fill-opacity="0.8"/>
</svg>
