<svg width="15" height="15" viewBox="0 0 15 15" fill="none" xmlns="http://www.w3.org/2000/svg">
<path d="M11.3859 14.5C12.2942 14.5 13.0403 14.2081 13.6242 13.6242C14.2081 13.0403 14.5 12.2942 14.5 11.3859V3.11409C14.5 2.20582 14.2081 1.45973 13.6242 0.875839C13.0403 0.291946 12.2942 0 11.3859 0H3.11409C2.20582 0 1.45973 0.291946 0.875839 0.875839C0.291946 1.45973 0 2.20582 0 3.11409V11.3859C0 12.2942 0.291946 13.0403 0.875839 13.6242C1.45973 14.2081 2.20582 14.5 3.11409 14.5H11.3859ZM2.04362 11.3859V3.11409C2.04362 2.40045 2.40045 2.04362 3.11409 2.04362H11.3859C12.0996 2.04362 12.4564 2.40045 12.4564 3.11409V11.3859C12.4564 12.0996 12.0996 12.4564 11.3859 12.4564H3.11409C2.40045 12.4564 2.04362 12.0996 2.04362 11.3859Z" fill="black" fill-opacity="0.7"/>
</svg>
