<svg width="20" height="16" viewBox="0 0 20 16" fill="none" xmlns="http://www.w3.org/2000/svg">
<path d="M18.6275 0H1.37255C1.00853 0 0.659413 0.137209 0.40201 0.381442C0.144608 0.625676 0 0.956927 0 1.30233V14.6977C0 15.0431 0.144608 15.3743 0.40201 15.6186C0.659413 15.8628 1.00853 16 1.37255 16H18.6275C18.9915 16 19.3406 15.8628 19.598 15.6186C19.8554 15.3743 20 15.0431 20 14.6977V1.30233C20 0.956927 19.8554 0.625676 19.598 0.381442C19.3406 0.137209 18.9915 0 18.6275 0ZM1.37255 1.11628H18.6275C18.6795 1.11628 18.7293 1.13588 18.7661 1.17077C18.8029 1.20566 18.8235 1.25298 18.8235 1.30233V11.3088L15.9343 8.56744C15.8069 8.4465 15.6555 8.35056 15.489 8.2851C15.3225 8.21964 15.144 8.18595 14.9637 8.18595C14.7835 8.18595 14.605 8.21964 14.4384 8.2851C14.2719 8.35056 14.1206 8.4465 13.9931 8.56744L11.8931 10.56L7.44118 6.33488C7.31372 6.21394 7.16241 6.118 6.99587 6.05254C6.82934 5.98708 6.65085 5.95339 6.47059 5.95339C6.29033 5.95339 6.11184 5.98708 5.9453 6.05254C5.77877 6.118 5.62745 6.21394 5.5 6.33488L1.17647 10.4372V1.30233C1.17647 1.25298 1.19713 1.20566 1.2339 1.17077C1.27067 1.13588 1.32055 1.11628 1.37255 1.11628ZM1.17647 14.6977V12.0158L6.33137 7.12465C6.3496 7.10721 6.37129 7.09337 6.39518 7.08393C6.41908 7.07448 6.4447 7.06962 6.47059 7.06962C6.49647 7.06962 6.5221 7.07448 6.546 7.08393C6.56989 7.09337 6.59158 7.10721 6.6098 7.12465L14.7873 14.8837H1.37255C1.32055 14.8837 1.27067 14.8641 1.2339 14.8292C1.19713 14.7943 1.17647 14.747 1.17647 14.6977ZM18.6275 14.8837H16.451L12.7255 11.3488L14.8245 9.35628C14.8427 9.33898 14.8643 9.32526 14.8881 9.3159C14.912 9.30653 14.9375 9.30171 14.9632 9.30171C14.989 9.30171 15.0145 9.30653 15.0383 9.3159C15.0621 9.32526 15.0837 9.33898 15.102 9.35628L18.8274 12.8912V14.6977C18.8275 14.7224 18.8223 14.7469 18.8122 14.7697C18.8021 14.7926 18.7873 14.8132 18.7686 14.8306C18.75 14.8479 18.7279 14.8615 18.7037 14.8706C18.6794 14.8798 18.6535 14.8842 18.6275 14.8837ZM11.7647 5.39535C11.7647 5.21137 11.8222 5.03152 11.9299 4.87854C12.0377 4.72556 12.1908 4.60633 12.3699 4.53593C12.5491 4.46552 12.7462 4.4471 12.9364 4.48299C13.1265 4.51888 13.3012 4.60748 13.4383 4.73758C13.5755 4.86767 13.6688 5.03342 13.7067 5.21387C13.7445 5.39432 13.7251 5.58136 13.6509 5.75133C13.5767 5.92131 13.451 6.06659 13.2898 6.16881C13.1286 6.27102 12.939 6.32558 12.7451 6.32558C12.4851 6.32558 12.2357 6.22757 12.0519 6.05312C11.868 5.87867 11.7647 5.64206 11.7647 5.39535Z" fill="#262626" fill-opacity="0.8"/>
</svg>
