<svg width="20" height="18" viewBox="0 0 20 18" fill="none" xmlns="http://www.w3.org/2000/svg">
<path d="M8.55 8.59557L6.5 6.54557M12 10.0456C12 10.576 11.7893 11.0847 11.4142 11.4598C11.0391 11.8349 10.5304 12.0456 10 12.0456C9.46957 12.0456 8.96086 11.8349 8.58579 11.4598C8.21071 11.0847 8 10.576 8 10.0456C8 9.51513 8.21071 9.00643 8.58579 8.63135C8.96086 8.25628 9.46957 8.04557 10 8.04557C10.5304 8.04557 11.0391 8.25628 11.4142 8.63135C11.7893 9.00643 12 9.51513 12 10.0456Z" stroke="#FFF9F8" stroke-opacity="0.8" stroke-width="1.5" stroke-linecap="round" stroke-linejoin="round"/>
<path d="M15.6 17.0456C17.0619 15.8836 18.1261 14.2958 18.6452 12.502C19.1644 10.7083 19.1127 8.79745 18.4974 7.03437C17.882 5.27129 16.7335 3.74327 15.211 2.66206C13.6885 1.58085 11.8674 1 10 1C8.13263 1 6.3115 1.58085 4.78899 2.66206C3.26647 3.74327 2.11797 5.27129 1.50265 7.03437C0.887321 8.79745 0.835644 10.7083 1.35478 12.502C1.87391 14.2958 2.93815 15.8836 4.4 17.0456H15.6Z" stroke="#FFF9F8" stroke-opacity="0.8" stroke-width="1.5" stroke-linecap="round" stroke-linejoin="round"/>
</svg>
