<svg width="10" height="6" viewBox="0 0 10 6" fill="none" xmlns="http://www.w3.org/2000/svg">
<path d="M5.00784 0.0020266C5.17445 0.00163513 5.3359 0.0713492 5.46419 0.199067L9.74241 4.48257C9.88803 4.62798 9.9796 4.83694 9.99698 5.06348C10.0144 5.29001 9.95614 5.51556 9.83511 5.69052C9.71408 5.86547 9.54016 5.97549 9.35161 5.99637C9.16307 6.01726 8.97534 5.9473 8.82973 5.80189L5.00784 1.96387L1.18596 5.66481C1.11303 5.73598 1.0291 5.78912 0.939019 5.82119C0.848934 5.85325 0.754463 5.86361 0.661036 5.85167C0.567607 5.83973 0.477064 5.80572 0.39461 5.7516C0.312158 5.69748 0.239419 5.62431 0.180577 5.53631C0.115277 5.44822 0.0658217 5.34488 0.0353089 5.23276C0.00479611 5.12064 -0.00611487 5.00216 0.00325594 4.88474C0.0126277 4.76732 0.042081 4.65348 0.0897704 4.55037C0.137461 4.44726 0.202361 4.3571 0.280403 4.28553L4.55863 0.147666C4.6906 0.0401359 4.84876 -0.0111418 5.00784 0.0020266Z" fill="white" fill-opacity="0.8"/>
</svg>
