<svg width="17" height="15" viewBox="0 0 17 15" fill="none" xmlns="http://www.w3.org/2000/svg">
<path d="M2.00562 4.98754V3.12943C2.00562 2.86865 2.11704 2.62416 2.33989 2.39597C2.56273 2.16779 2.8015 2.05369 3.05618 2.05369H11.1742C11.3333 2.05369 11.4766 2.08629 11.6039 2.15149L13.2275 0.733461C12.5272 0.244487 11.8427 0 11.1742 0H3.05618C2.16479 0 1.43258 0.293384 0.859551 0.880153C0.286517 1.46692 0 2.21668 0 3.12943V11.442C0 12.2895 0.294476 13.023 0.883427 13.6424C1.47238 14.2617 2.19663 14.5714 3.05618 14.5714H11.1742C12.0337 14.5714 12.758 14.2617 13.3469 13.6424C13.9359 13.023 14.2303 12.2895 14.2303 11.442V8.01918L12.2247 9.87728V11.442C12.2247 11.7028 12.1133 11.9473 11.8904 12.1755C11.6676 12.4036 11.4288 12.5177 11.1742 12.5177H3.05618C2.8015 12.5177 2.56273 12.4036 2.33989 12.1755C2.11704 11.9473 2.00562 11.7028 2.00562 11.442V4.98754ZM17 2.88495L15.5674 1.22244L14.2303 2.59156L12.2247 4.35187L8.35674 7.82359L5.8736 4.59636L4.25 5.81879L7.92697 10.953L12.2247 7.09012L14.2303 5.28092L17 2.88495Z" fill="#F25922"/>
</svg>
