<svg width="21" height="21" viewBox="0 0 21 21" fill="none" xmlns="http://www.w3.org/2000/svg">
<path d="M18.8003 15.5469H17.1188C17.004 15.5469 16.8964 15.5971 16.8246 15.6856C16.6572 15.8889 16.4778 16.085 16.2888 16.2716C15.516 17.0452 14.6006 17.6617 13.5933 18.087C12.5496 18.5278 11.4279 18.7539 10.2949 18.7519C9.14925 18.7519 8.03945 18.5271 6.99661 18.087C5.98924 17.6617 5.07384 17.0452 4.30103 16.2716C3.52683 15.5006 2.90951 14.5868 2.48324 13.5808C2.04076 12.538 1.81832 11.4306 1.81832 10.2849C1.81832 9.13919 2.04315 8.03178 2.48324 6.98894C2.90899 5.98199 3.52129 5.07548 4.30103 4.29814C5.08076 3.5208 5.98726 2.90849 6.99661 2.48275C8.03945 2.04265 9.14925 1.81782 10.2949 1.81782C11.4406 1.81782 12.5504 2.04026 13.5933 2.48275C14.6026 2.90849 15.5091 3.5208 16.2888 4.29814C16.4778 4.4871 16.6548 4.68323 16.8246 4.88414C16.8964 4.97264 17.0064 5.02286 17.1188 5.02286H18.8003C18.9509 5.02286 19.0442 4.85544 18.9605 4.72867C17.126 1.87762 13.9162 -0.00953108 10.2686 3.6209e-05C4.53782 0.0143871 -0.0568717 4.66648 0.000532071 10.3901C0.0579358 16.0229 4.64545 20.5697 10.2949 20.5697C13.9329 20.5697 17.1284 18.685 18.9605 15.8411C19.0418 15.7143 18.9509 15.5469 18.8003 15.5469ZM20.9266 10.1342L17.5326 7.45535C17.4058 7.35489 17.2217 7.44578 17.2217 7.60603V9.42382H9.71133C9.60609 9.42382 9.51998 9.50992 9.51998 9.61516V10.9546C9.51998 11.0598 9.60609 11.1459 9.71133 11.1459H17.2217V12.9637C17.2217 13.124 17.4082 13.2149 17.5326 13.1144L20.9266 10.4356C20.9495 10.4177 20.9679 10.3948 20.9807 10.3687C20.9934 10.3426 21 10.3139 21 10.2849C21 10.2558 20.9934 10.2272 20.9807 10.2011C20.9679 10.175 20.9495 10.1521 20.9266 10.1342Z" fill="#FFF9F8" fill-opacity="0.8"/>
</svg>
