<svg width="17" height="17" viewBox="0 0 17 17" fill="none" xmlns="http://www.w3.org/2000/svg">
<path d="M14.4288 4.66278H13.2277C13.1457 4.66278 13.0688 4.62616 13.0176 4.56162C12.898 4.41337 12.7699 4.27034 12.6349 4.1343C12.0829 3.57018 11.429 3.12061 10.7095 2.81046C9.964 2.48901 9.16276 2.32411 8.35353 2.32558C7.53518 2.32558 6.74246 2.48953 5.99758 2.81046C5.27803 3.12061 4.62417 3.57018 4.07216 4.1343C3.51917 4.69651 3.07822 5.36288 2.77375 6.0965C2.45768 6.85697 2.2988 7.66452 2.2988 8.49999C2.2988 9.33545 2.45939 10.143 2.77375 10.9035C3.07785 11.6378 3.51521 12.2988 4.07216 12.8657C4.62912 13.4325 5.27662 13.879 5.99758 14.1895C6.74246 14.5104 7.53518 14.6744 8.35353 14.6744C9.17187 14.6744 9.96459 14.5122 10.7095 14.1895C11.4304 13.879 12.0779 13.4325 12.6349 12.8657C12.7699 12.7279 12.8963 12.5849 13.0176 12.4384C13.0688 12.3738 13.1474 12.3372 13.2277 12.3372H14.4288C14.5364 12.3372 14.603 12.4593 14.5432 12.5517C13.2328 14.6308 10.9401 16.007 8.33473 16C4.2413 15.9895 0.959377 12.5971 1.00038 8.42324C1.04138 4.31569 4.31818 0.999999 8.35353 0.999999C10.9521 0.999999 13.2345 2.37442 14.5432 4.44825C14.6013 4.54069 14.5364 4.66278 14.4288 4.66278ZM15.9476 8.60987L13.5233 10.5634C13.4327 10.6366 13.3012 10.5703 13.3012 10.4535V9.12789H7.93666C7.86149 9.12789 7.79999 9.0651 7.79999 8.98836V8.01162C7.79999 7.93487 7.86149 7.87208 7.93666 7.87208H13.3012V6.5465C13.3012 6.42964 13.4344 6.36336 13.5233 6.43662L15.9476 8.3901C15.9639 8.40316 15.9771 8.41983 15.9862 8.43887C15.9953 8.45791 16 8.47881 16 8.49999C16 8.52116 15.9953 8.54206 15.9862 8.5611C15.9771 8.58014 15.9639 8.59682 15.9476 8.60987Z" fill="#262626" fill-opacity="0.8"/>
<path d="M12.5277 4.23921L12.5284 4.23994C12.6598 4.37239 12.7845 4.51159 12.9008 4.6558L13.0176 4.56162L12.9001 4.65491C12.9801 4.75566 13.1005 4.81278 13.2277 4.81278H14.4288C14.6607 4.81278 14.7877 4.55541 14.6702 4.36844L14.6701 4.3682C13.3356 2.25347 11.0066 0.849999 8.35353 0.849999C4.2331 0.849999 0.892183 4.23479 0.850388 8.42174L0.850387 8.42177C0.808595 12.676 4.15477 16.1393 8.33433 16.15L12.5277 4.23921ZM12.5277 4.23921C11.9892 3.68894 11.3516 3.25057 10.6501 2.94821L10.6501 2.9482M12.5277 4.23921L10.6501 2.9482M10.6501 2.9482C9.92338 2.63485 9.14245 2.47414 8.3538 2.47558H8.35353M10.6501 2.9482L8.35353 2.47558M8.35353 2.47558C7.55555 2.47558 6.78303 2.63538 6.05693 2.94822C5.35546 3.25058 4.71782 3.68894 4.17937 4.23921L4.1791 4.23948M8.35353 2.47558L4.1791 4.23948M4.1791 4.23948C3.6397 4.78788 3.20944 5.43803 2.91229 6.154L2.91226 6.15407M4.1791 4.23948L2.91226 6.15407M2.91226 6.15407C2.60394 6.8959 2.4488 7.68386 2.4488 8.49999C2.4488 9.31591 2.60557 10.104 2.91237 10.8462C3.20911 11.5627 3.63573 12.2075 4.17916 12.7605C4.72281 13.3139 5.35422 13.7491 6.05691 14.0517L6.05693 14.0518M2.91226 6.15407L6.05693 14.0518M6.05693 14.0518C6.78303 14.3646 7.55555 14.5244 8.35353 14.5244C9.15171 14.5244 9.9241 14.3663 10.6498 14.0519L10.6501 14.0517M6.05693 14.0518L10.6501 14.0517M10.6501 14.0517C11.3528 13.7492 11.9841 13.314 12.5277 12.7607M10.6501 14.0517L12.5277 12.7607M12.5277 12.7607C12.6589 12.6268 12.7822 12.4874 12.9012 12.3437M12.5277 12.7607L12.9012 12.3437M12.9012 12.3437C12.9815 12.2434 13.1032 12.1872 13.2277 12.1872H14.4288C14.6566 12.1872 14.7917 12.4413 14.6701 12.6317C13.3338 14.7519 10.9944 16.1571 8.33435 16.15L12.9012 12.3437ZM16.0412 8.72706L13.6176 10.68L13.5233 10.5634L13.6174 10.6802L13.6176 10.68C13.4229 10.8375 13.1512 10.6886 13.1512 10.4535V9.27789H7.93666C7.77574 9.27789 7.64999 9.145 7.64999 8.98836V8.01162C7.64999 7.85497 7.77574 7.72208 7.93666 7.72208H13.1512V6.5465C13.1512 6.31236 13.4243 6.16151 13.618 6.32029C13.6182 6.32049 13.6185 6.32069 13.6187 6.32089L16.0412 8.27292C16.0413 8.27298 16.0414 8.27305 16.0414 8.27311C16.0755 8.30042 16.1029 8.33506 16.1216 8.37427C16.1403 8.41356 16.15 8.45654 16.15 8.49999C16.15 8.54343 16.1403 8.58642 16.1216 8.62571C16.1029 8.66492 16.0755 8.69956 16.0414 8.72686C16.0414 8.72692 16.0413 8.72699 16.0412 8.72706Z" stroke="#262626" stroke-opacity="0.8" stroke-width="0.3"/>
</svg>
