<svg width="23" height="23" viewBox="0 0 23 23" fill="none" xmlns="http://www.w3.org/2000/svg">
<mask id="path-1-outside-1_1033_3181" maskUnits="userSpaceOnUse" x="0" y="0" width="23" height="23" fill="black">
<rect fill="white" width="23" height="23"/>
<path d="M2.95297 17.8038C2.95297 17.809 2.95504 17.8139 2.9587 17.8176C3.46899 18.3228 3.97584 18.8246 4.47925 19.3229C4.86812 19.7079 5.49416 19.7088 5.88416 19.325C5.94076 19.2693 5.99725 19.2137 6.05357 19.1583C6.36489 18.8519 6.83635 18.7881 7.21821 19.0001C7.45128 19.1295 7.68297 19.2515 7.92079 19.349C8.5 19.5866 9.10891 19.7574 9.7104 19.9431C9.85891 19.9876 9.94059 20.0248 9.93317 20.203C9.92574 20.7599 9.93317 21.3094 9.93317 21.8663C9.93317 21.9402 9.99301 22 10.0668 22H12.6139C12.8599 22 13.0594 21.8005 13.0594 21.5545C13.0594 21.0866 13.0668 20.6188 13.0594 20.151C13.0594 20.0248 13.104 19.9802 13.2228 19.9579C14.2624 19.75 15.2277 19.3564 16.1262 18.7995C16.2569 18.7163 16.4207 18.7215 16.5313 18.83C16.7164 19.0115 16.9015 19.1921 17.0866 19.3722C17.4767 19.7517 18.099 19.7481 18.484 19.3634C18.7655 19.082 19.0454 18.8011 19.3258 18.5197C19.7157 18.1286 19.7153 17.4956 19.3255 17.1043C19.2834 17.062 19.2412 17.0196 19.1991 16.9772C18.8658 16.6421 18.8222 16.1228 19.0539 15.7109C19.2539 15.3554 19.427 14.9891 19.5569 14.604C19.7129 14.1361 19.8391 13.6535 19.9653 13.1782C19.9876 13.0817 20.0248 13.0668 20.1139 13.0668C20.7005 13.0668 21.2797 13.0743 21.8663 13.0743C21.9394 13.0743 21.9941 13.0133 21.9982 12.9404C21.9993 12.9224 22 12.9051 22 12.8886C22 11.9678 22 11.047 22 10.1188C22 9.94802 21.948 9.91089 21.7921 9.91832C21.2351 9.92574 20.6708 9.91832 20.1139 9.93317C20.0099 9.93317 19.9728 9.90347 19.9579 9.7995C19.7574 8.70049 19.3416 7.69059 18.7252 6.76238C18.651 6.65099 18.6436 6.57673 18.755 6.47277C18.9556 6.28575 19.1531 6.09406 19.351 5.89841C19.7452 5.50885 19.7417 4.87094 19.3469 4.48203C19.0626 4.20201 18.7791 3.92349 18.4948 3.6445C18.1011 3.25816 17.4682 3.2632 17.0782 3.65323C17.0256 3.70583 16.9731 3.75838 16.9206 3.81088C16.6072 4.1246 16.1266 4.19522 15.7369 3.98352C15.5344 3.87349 15.3317 3.7662 15.1238 3.66584C14.5149 3.36881 13.8762 3.14604 13.2079 3.02723C13.0891 3.00495 13.0743 2.94554 13.0743 2.84901C13.0743 2.2995 13.0668 1.75 13.0594 1.2005C13.0594 1.08654 12.9652 1 12.8513 1H10.1188C10.0163 1 9.93317 1.08312 9.93317 1.18564C9.93317 1.73515 9.92574 2.28465 9.93317 2.83416C9.93317 2.96782 9.89604 3.0198 9.75495 3.04208C8.93069 3.18317 8.16584 3.49505 7.43069 3.88119C7.18564 4.00743 6.95545 4.15594 6.73267 4.30446C6.62871 4.37129 6.58416 4.33416 6.51733 4.2599C6.3108 4.05688 6.10263 3.85385 5.89358 3.65005C5.50191 3.2682 4.87576 3.26964 4.48598 3.65341C4.21419 3.92102 3.94003 4.1903 3.66425 4.4609C3.2711 4.84667 3.26626 5.47503 3.65087 5.86931C3.67325 5.89226 3.69557 5.91519 3.71782 5.93812C3.89604 6.11634 4.06683 6.29455 4.2599 6.46535C4.36386 6.55446 4.37129 6.62129 4.2896 6.7401C3.7104 7.60891 3.30941 8.55198 3.08663 9.56931C3.01238 9.91089 3.01238 9.91089 2.67079 9.91089C2.16584 9.91089 1.66832 9.91089 1.16337 9.91089C1.04455 9.91089 1 9.94059 1 10.0668C1 11.0099 1 11.9604 1 12.9035C1 13.0371 1.04455 13.0668 1.17079 13.0668C1.75 13.052 2.32921 13.052 2.90099 13.0446C2.99752 13.0446 3.0198 13.0743 3.03465 13.1559C3.23515 14.2772 3.66584 15.3094 4.29703 16.2599C4.37871 16.3787 4.31931 16.4307 4.24505 16.5049C3.83663 16.9134 3.42079 17.3144 3.01238 17.7228C2.99825 17.7369 2.98412 17.7577 2.9572 17.7917C2.95448 17.7952 2.95297 17.7994 2.95297 17.8038ZM17.7636 3.88119C17.766 3.88119 17.7683 3.88211 17.77 3.88376C18.1836 4.28403 18.5853 4.67235 18.9911 5.07028C19.0656 5.14332 19.0738 5.27028 19 5.34406C18.6361 5.70049 18.2797 6.06436 17.9158 6.41337C17.8193 6.5099 17.8119 6.56931 17.8936 6.67327C18.3614 7.29703 18.7475 7.97277 18.9851 8.71535C19.1634 9.26485 19.2822 9.83663 19.4233 10.401C19.4455 10.4975 19.453 10.5792 19.5866 10.5718C20.0173 10.5644 20.448 10.5718 20.8787 10.5718C21.0237 10.5718 21.1687 10.5718 21.3138 10.5718C21.3205 10.5718 21.3269 10.5745 21.3317 10.5792C21.3364 10.584 21.3391 10.5904 21.3391 10.5971C21.3393 11.1802 21.354 11.756 21.354 12.3391C21.354 12.3688 21.2723 12.4356 21.2351 12.4356C20.6931 12.4356 20.151 12.4356 19.6089 12.4208C19.4827 12.4208 19.4381 12.4728 19.4233 12.5916C19.2376 13.9653 18.7104 15.2054 17.901 16.3267C17.8193 16.4381 17.8267 16.4975 17.9233 16.5866C18.2871 16.9356 18.6436 17.2921 19 17.6411C19.0862 17.7273 19.0786 17.8744 18.9922 17.9605C18.8214 18.1308 18.6521 18.2987 18.4859 18.4634C18.1267 18.8196 17.5482 18.828 17.1826 18.4784C16.9908 18.295 16.799 18.1099 16.6089 17.9233C16.505 17.8193 16.4455 17.8119 16.3342 17.901C15.2129 18.7252 13.9653 19.245 12.5842 19.4158C12.4802 19.4307 12.4282 19.4752 12.4282 19.5866C12.4282 20.1213 12.4282 20.6634 12.4356 21.198C12.4356 21.3243 12.4059 21.3614 12.2797 21.3614C11.7525 21.354 11.2327 21.3614 10.7054 21.3614C10.6256 21.3614 10.5718 21.2831 10.5718 21.2033C10.5718 20.7225 10.5718 20.2474 10.5718 19.7723C10.5718 19.4678 10.5718 19.4678 10.2673 19.4158C8.93812 19.1856 7.71287 18.703 6.63614 17.8787C6.55446 17.8119 6.50248 17.8342 6.44307 17.8936C6.05693 18.2871 5.67822 18.6733 5.29208 19.0668C5.24875 19.1102 5.17507 19.1069 5.13111 19.0642C4.93408 18.8729 4.74094 18.683 4.54991 18.4952C4.17829 18.1298 4.16944 17.5297 4.53381 17.157C4.6689 17.0189 4.80492 16.8807 4.94307 16.7426C5.19555 16.4901 5.20297 16.4901 5.00248 16.2079C4.23762 15.1089 3.74752 13.9134 3.57673 12.5842C3.57673 12.5322 3.4802 12.4431 3.42079 12.4431C2.88614 12.4431 2.34406 12.4431 1.80941 12.4505C1.68317 12.4505 1.63119 12.4208 1.63119 12.2871C1.63861 11.7673 1.63861 11.2475 1.64604 10.7277C1.64604 10.642 1.72457 10.5792 1.8103 10.5792C2.29136 10.5792 2.75583 10.5792 3.2203 10.5792C3.5396 10.5792 3.5396 10.5792 3.59159 10.2599C3.79208 8.94554 4.32673 7.76485 5.09901 6.68812C5.18069 6.57673 5.16584 6.51733 5.07673 6.42822C4.69802 6.06436 4.32673 5.69307 3.95545 5.32178C3.89233 5.25867 3.90046 5.1548 3.96409 5.09221C4.14156 4.91766 4.3176 4.74454 4.49086 4.5742C4.86665 4.20474 5.47065 4.19893 5.85302 4.56157C6.02384 4.72357 6.19461 4.88768 6.36139 5.05446C6.48762 5.18069 6.56931 5.18812 6.70297 5.08416C7.81683 4.26733 9.04951 3.74752 10.4233 3.58416C10.5421 3.56931 10.5718 3.5099 10.5718 3.39851C10.5718 2.86386 10.5718 2.32178 10.5718 1.78713C10.5718 1.67574 10.6089 1.64604 10.7129 1.65347C11.2252 1.65347 11.7376 1.65347 12.25 1.65347C12.3474 1.65347 12.4208 1.73457 12.4208 1.83195C12.4208 2.3441 12.4208 2.84602 12.4208 3.35396C12.4208 3.5099 12.4653 3.56931 12.6213 3.58416C13.4901 3.68812 14.3144 3.95545 15.0941 4.34901C15.3346 4.47119 15.5692 4.61103 15.801 4.75441C16.1858 4.99243 16.6793 4.93999 17.0029 4.62374C17.258 4.37446 17.5113 4.12538 17.7572 3.8838C17.7589 3.88212 17.7612 3.88119 17.7636 3.88119Z"/>
</mask>
<path d="M2.95297 17.8038C2.95297 17.809 2.95504 17.8139 2.9587 17.8176C3.46899 18.3228 3.97584 18.8246 4.47925 19.3229C4.86812 19.7079 5.49416 19.7088 5.88416 19.325C5.94076 19.2693 5.99725 19.2137 6.05357 19.1583C6.36489 18.8519 6.83635 18.7881 7.21821 19.0001C7.45128 19.1295 7.68297 19.2515 7.92079 19.349C8.5 19.5866 9.10891 19.7574 9.7104 19.9431C9.85891 19.9876 9.94059 20.0248 9.93317 20.203C9.92574 20.7599 9.93317 21.3094 9.93317 21.8663C9.93317 21.9402 9.99301 22 10.0668 22H12.6139C12.8599 22 13.0594 21.8005 13.0594 21.5545C13.0594 21.0866 13.0668 20.6188 13.0594 20.151C13.0594 20.0248 13.104 19.9802 13.2228 19.9579C14.2624 19.75 15.2277 19.3564 16.1262 18.7995C16.2569 18.7163 16.4207 18.7215 16.5313 18.83C16.7164 19.0115 16.9015 19.1921 17.0866 19.3722C17.4767 19.7517 18.099 19.7481 18.484 19.3634C18.7655 19.082 19.0454 18.8011 19.3258 18.5197C19.7157 18.1286 19.7153 17.4956 19.3255 17.1043C19.2834 17.062 19.2412 17.0196 19.1991 16.9772C18.8658 16.6421 18.8222 16.1228 19.0539 15.7109C19.2539 15.3554 19.427 14.9891 19.5569 14.604C19.7129 14.1361 19.8391 13.6535 19.9653 13.1782C19.9876 13.0817 20.0248 13.0668 20.1139 13.0668C20.7005 13.0668 21.2797 13.0743 21.8663 13.0743C21.9394 13.0743 21.9941 13.0133 21.9982 12.9404C21.9993 12.9224 22 12.9051 22 12.8886C22 11.9678 22 11.047 22 10.1188C22 9.94802 21.948 9.91089 21.7921 9.91832C21.2351 9.92574 20.6708 9.91832 20.1139 9.93317C20.0099 9.93317 19.9728 9.90347 19.9579 9.7995C19.7574 8.70049 19.3416 7.69059 18.7252 6.76238C18.651 6.65099 18.6436 6.57673 18.755 6.47277C18.9556 6.28575 19.1531 6.09406 19.351 5.89841C19.7452 5.50885 19.7417 4.87094 19.3469 4.48203C19.0626 4.20201 18.7791 3.92349 18.4948 3.6445C18.1011 3.25816 17.4682 3.2632 17.0782 3.65323C17.0256 3.70583 16.9731 3.75838 16.9206 3.81088C16.6072 4.1246 16.1266 4.19522 15.7369 3.98352C15.5344 3.87349 15.3317 3.7662 15.1238 3.66584C14.5149 3.36881 13.8762 3.14604 13.2079 3.02723C13.0891 3.00495 13.0743 2.94554 13.0743 2.84901C13.0743 2.2995 13.0668 1.75 13.0594 1.2005C13.0594 1.08654 12.9652 1 12.8513 1H10.1188C10.0163 1 9.93317 1.08312 9.93317 1.18564C9.93317 1.73515 9.92574 2.28465 9.93317 2.83416C9.93317 2.96782 9.89604 3.0198 9.75495 3.04208C8.93069 3.18317 8.16584 3.49505 7.43069 3.88119C7.18564 4.00743 6.95545 4.15594 6.73267 4.30446C6.62871 4.37129 6.58416 4.33416 6.51733 4.2599C6.3108 4.05688 6.10263 3.85385 5.89358 3.65005C5.50191 3.2682 4.87576 3.26964 4.48598 3.65341C4.21419 3.92102 3.94003 4.1903 3.66425 4.4609C3.2711 4.84667 3.26626 5.47503 3.65087 5.86931C3.67325 5.89226 3.69557 5.91519 3.71782 5.93812C3.89604 6.11634 4.06683 6.29455 4.2599 6.46535C4.36386 6.55446 4.37129 6.62129 4.2896 6.7401C3.7104 7.60891 3.30941 8.55198 3.08663 9.56931C3.01238 9.91089 3.01238 9.91089 2.67079 9.91089C2.16584 9.91089 1.66832 9.91089 1.16337 9.91089C1.04455 9.91089 1 9.94059 1 10.0668C1 11.0099 1 11.9604 1 12.9035C1 13.0371 1.04455 13.0668 1.17079 13.0668C1.75 13.052 2.32921 13.052 2.90099 13.0446C2.99752 13.0446 3.0198 13.0743 3.03465 13.1559C3.23515 14.2772 3.66584 15.3094 4.29703 16.2599C4.37871 16.3787 4.31931 16.4307 4.24505 16.5049C3.83663 16.9134 3.42079 17.3144 3.01238 17.7228C2.99825 17.7369 2.98412 17.7577 2.9572 17.7917C2.95448 17.7952 2.95297 17.7994 2.95297 17.8038ZM17.7636 3.88119C17.766 3.88119 17.7683 3.88211 17.77 3.88376C18.1836 4.28403 18.5853 4.67235 18.9911 5.07028C19.0656 5.14332 19.0738 5.27028 19 5.34406C18.6361 5.70049 18.2797 6.06436 17.9158 6.41337C17.8193 6.5099 17.8119 6.56931 17.8936 6.67327C18.3614 7.29703 18.7475 7.97277 18.9851 8.71535C19.1634 9.26485 19.2822 9.83663 19.4233 10.401C19.4455 10.4975 19.453 10.5792 19.5866 10.5718C20.0173 10.5644 20.448 10.5718 20.8787 10.5718C21.0237 10.5718 21.1687 10.5718 21.3138 10.5718C21.3205 10.5718 21.3269 10.5745 21.3317 10.5792C21.3364 10.584 21.3391 10.5904 21.3391 10.5971C21.3393 11.1802 21.354 11.756 21.354 12.3391C21.354 12.3688 21.2723 12.4356 21.2351 12.4356C20.6931 12.4356 20.151 12.4356 19.6089 12.4208C19.4827 12.4208 19.4381 12.4728 19.4233 12.5916C19.2376 13.9653 18.7104 15.2054 17.901 16.3267C17.8193 16.4381 17.8267 16.4975 17.9233 16.5866C18.2871 16.9356 18.6436 17.2921 19 17.6411C19.0862 17.7273 19.0786 17.8744 18.9922 17.9605C18.8214 18.1308 18.6521 18.2987 18.4859 18.4634C18.1267 18.8196 17.5482 18.828 17.1826 18.4784C16.9908 18.295 16.799 18.1099 16.6089 17.9233C16.505 17.8193 16.4455 17.8119 16.3342 17.901C15.2129 18.7252 13.9653 19.245 12.5842 19.4158C12.4802 19.4307 12.4282 19.4752 12.4282 19.5866C12.4282 20.1213 12.4282 20.6634 12.4356 21.198C12.4356 21.3243 12.4059 21.3614 12.2797 21.3614C11.7525 21.354 11.2327 21.3614 10.7054 21.3614C10.6256 21.3614 10.5718 21.2831 10.5718 21.2033C10.5718 20.7225 10.5718 20.2474 10.5718 19.7723C10.5718 19.4678 10.5718 19.4678 10.2673 19.4158C8.93812 19.1856 7.71287 18.703 6.63614 17.8787C6.55446 17.8119 6.50248 17.8342 6.44307 17.8936C6.05693 18.2871 5.67822 18.6733 5.29208 19.0668C5.24875 19.1102 5.17507 19.1069 5.13111 19.0642C4.93408 18.8729 4.74094 18.683 4.54991 18.4952C4.17829 18.1298 4.16944 17.5297 4.53381 17.157C4.6689 17.0189 4.80492 16.8807 4.94307 16.7426C5.19555 16.4901 5.20297 16.4901 5.00248 16.2079C4.23762 15.1089 3.74752 13.9134 3.57673 12.5842C3.57673 12.5322 3.4802 12.4431 3.42079 12.4431C2.88614 12.4431 2.34406 12.4431 1.80941 12.4505C1.68317 12.4505 1.63119 12.4208 1.63119 12.2871C1.63861 11.7673 1.63861 11.2475 1.64604 10.7277C1.64604 10.642 1.72457 10.5792 1.8103 10.5792C2.29136 10.5792 2.75583 10.5792 3.2203 10.5792C3.5396 10.5792 3.5396 10.5792 3.59159 10.2599C3.79208 8.94554 4.32673 7.76485 5.09901 6.68812C5.18069 6.57673 5.16584 6.51733 5.07673 6.42822C4.69802 6.06436 4.32673 5.69307 3.95545 5.32178C3.89233 5.25867 3.90046 5.1548 3.96409 5.09221C4.14156 4.91766 4.3176 4.74454 4.49086 4.5742C4.86665 4.20474 5.47065 4.19893 5.85302 4.56157C6.02384 4.72357 6.19461 4.88768 6.36139 5.05446C6.48762 5.18069 6.56931 5.18812 6.70297 5.08416C7.81683 4.26733 9.04951 3.74752 10.4233 3.58416C10.5421 3.56931 10.5718 3.5099 10.5718 3.39851C10.5718 2.86386 10.5718 2.32178 10.5718 1.78713C10.5718 1.67574 10.6089 1.64604 10.7129 1.65347C11.2252 1.65347 11.7376 1.65347 12.25 1.65347C12.3474 1.65347 12.4208 1.73457 12.4208 1.83195C12.4208 2.3441 12.4208 2.84602 12.4208 3.35396C12.4208 3.5099 12.4653 3.56931 12.6213 3.58416C13.4901 3.68812 14.3144 3.95545 15.0941 4.34901C15.3346 4.47119 15.5692 4.61103 15.801 4.75441C16.1858 4.99243 16.6793 4.93999 17.0029 4.62374C17.258 4.37446 17.5113 4.12538 17.7572 3.8838C17.7589 3.88212 17.7612 3.88119 17.7636 3.88119Z" fill="white"/>
<path d="M2.95297 17.8038C2.95297 17.809 2.95504 17.8139 2.9587 17.8176C3.46899 18.3228 3.97584 18.8246 4.47925 19.3229C4.86812 19.7079 5.49416 19.7088 5.88416 19.325C5.94076 19.2693 5.99725 19.2137 6.05357 19.1583C6.36489 18.8519 6.83635 18.7881 7.21821 19.0001C7.45128 19.1295 7.68297 19.2515 7.92079 19.349C8.5 19.5866 9.10891 19.7574 9.7104 19.9431C9.85891 19.9876 9.94059 20.0248 9.93317 20.203C9.92574 20.7599 9.93317 21.3094 9.93317 21.8663C9.93317 21.9402 9.99301 22 10.0668 22H12.6139C12.8599 22 13.0594 21.8005 13.0594 21.5545C13.0594 21.0866 13.0668 20.6188 13.0594 20.151C13.0594 20.0248 13.104 19.9802 13.2228 19.9579C14.2624 19.75 15.2277 19.3564 16.1262 18.7995C16.2569 18.7163 16.4207 18.7215 16.5313 18.83C16.7164 19.0115 16.9015 19.1921 17.0866 19.3722C17.4767 19.7517 18.099 19.7481 18.484 19.3634C18.7655 19.082 19.0454 18.8011 19.3258 18.5197C19.7157 18.1286 19.7153 17.4956 19.3255 17.1043C19.2834 17.062 19.2412 17.0196 19.1991 16.9772C18.8658 16.6421 18.8222 16.1228 19.0539 15.7109C19.2539 15.3554 19.427 14.9891 19.5569 14.604C19.7129 14.1361 19.8391 13.6535 19.9653 13.1782C19.9876 13.0817 20.0248 13.0668 20.1139 13.0668C20.7005 13.0668 21.2797 13.0743 21.8663 13.0743C21.9394 13.0743 21.9941 13.0133 21.9982 12.9404C21.9993 12.9224 22 12.9051 22 12.8886C22 11.9678 22 11.047 22 10.1188C22 9.94802 21.948 9.91089 21.7921 9.91832C21.2351 9.92574 20.6708 9.91832 20.1139 9.93317C20.0099 9.93317 19.9728 9.90347 19.9579 9.7995C19.7574 8.70049 19.3416 7.69059 18.7252 6.76238C18.651 6.65099 18.6436 6.57673 18.755 6.47277C18.9556 6.28575 19.1531 6.09406 19.351 5.89841C19.7452 5.50885 19.7417 4.87094 19.3469 4.48203C19.0626 4.20201 18.7791 3.92349 18.4948 3.6445C18.1011 3.25816 17.4682 3.2632 17.0782 3.65323C17.0256 3.70583 16.9731 3.75838 16.9206 3.81088C16.6072 4.1246 16.1266 4.19522 15.7369 3.98352C15.5344 3.87349 15.3317 3.7662 15.1238 3.66584C14.5149 3.36881 13.8762 3.14604 13.2079 3.02723C13.0891 3.00495 13.0743 2.94554 13.0743 2.84901C13.0743 2.2995 13.0668 1.75 13.0594 1.2005C13.0594 1.08654 12.9652 1 12.8513 1H10.1188C10.0163 1 9.93317 1.08312 9.93317 1.18564C9.93317 1.73515 9.92574 2.28465 9.93317 2.83416C9.93317 2.96782 9.89604 3.0198 9.75495 3.04208C8.93069 3.18317 8.16584 3.49505 7.43069 3.88119C7.18564 4.00743 6.95545 4.15594 6.73267 4.30446C6.62871 4.37129 6.58416 4.33416 6.51733 4.2599C6.3108 4.05688 6.10263 3.85385 5.89358 3.65005C5.50191 3.2682 4.87576 3.26964 4.48598 3.65341C4.21419 3.92102 3.94003 4.1903 3.66425 4.4609C3.2711 4.84667 3.26626 5.47503 3.65087 5.86931C3.67325 5.89226 3.69557 5.91519 3.71782 5.93812C3.89604 6.11634 4.06683 6.29455 4.2599 6.46535C4.36386 6.55446 4.37129 6.62129 4.2896 6.7401C3.7104 7.60891 3.30941 8.55198 3.08663 9.56931C3.01238 9.91089 3.01238 9.91089 2.67079 9.91089C2.16584 9.91089 1.66832 9.91089 1.16337 9.91089C1.04455 9.91089 1 9.94059 1 10.0668C1 11.0099 1 11.9604 1 12.9035C1 13.0371 1.04455 13.0668 1.17079 13.0668C1.75 13.052 2.32921 13.052 2.90099 13.0446C2.99752 13.0446 3.0198 13.0743 3.03465 13.1559C3.23515 14.2772 3.66584 15.3094 4.29703 16.2599C4.37871 16.3787 4.31931 16.4307 4.24505 16.5049C3.83663 16.9134 3.42079 17.3144 3.01238 17.7228C2.99825 17.7369 2.98412 17.7577 2.9572 17.7917C2.95448 17.7952 2.95297 17.7994 2.95297 17.8038ZM17.7636 3.88119C17.766 3.88119 17.7683 3.88211 17.77 3.88376C18.1836 4.28403 18.5853 4.67235 18.9911 5.07028C19.0656 5.14332 19.0738 5.27028 19 5.34406C18.6361 5.70049 18.2797 6.06436 17.9158 6.41337C17.8193 6.5099 17.8119 6.56931 17.8936 6.67327C18.3614 7.29703 18.7475 7.97277 18.9851 8.71535C19.1634 9.26485 19.2822 9.83663 19.4233 10.401C19.4455 10.4975 19.453 10.5792 19.5866 10.5718C20.0173 10.5644 20.448 10.5718 20.8787 10.5718C21.0237 10.5718 21.1687 10.5718 21.3138 10.5718C21.3205 10.5718 21.3269 10.5745 21.3317 10.5792C21.3364 10.584 21.3391 10.5904 21.3391 10.5971C21.3393 11.1802 21.354 11.756 21.354 12.3391C21.354 12.3688 21.2723 12.4356 21.2351 12.4356C20.6931 12.4356 20.151 12.4356 19.6089 12.4208C19.4827 12.4208 19.4381 12.4728 19.4233 12.5916C19.2376 13.9653 18.7104 15.2054 17.901 16.3267C17.8193 16.4381 17.8267 16.4975 17.9233 16.5866C18.2871 16.9356 18.6436 17.2921 19 17.6411C19.0862 17.7273 19.0786 17.8744 18.9922 17.9605C18.8214 18.1308 18.6521 18.2987 18.4859 18.4634C18.1267 18.8196 17.5482 18.828 17.1826 18.4784C16.9908 18.295 16.799 18.1099 16.6089 17.9233C16.505 17.8193 16.4455 17.8119 16.3342 17.901C15.2129 18.7252 13.9653 19.245 12.5842 19.4158C12.4802 19.4307 12.4282 19.4752 12.4282 19.5866C12.4282 20.1213 12.4282 20.6634 12.4356 21.198C12.4356 21.3243 12.4059 21.3614 12.2797 21.3614C11.7525 21.354 11.2327 21.3614 10.7054 21.3614C10.6256 21.3614 10.5718 21.2831 10.5718 21.2033C10.5718 20.7225 10.5718 20.2474 10.5718 19.7723C10.5718 19.4678 10.5718 19.4678 10.2673 19.4158C8.93812 19.1856 7.71287 18.703 6.63614 17.8787C6.55446 17.8119 6.50248 17.8342 6.44307 17.8936C6.05693 18.2871 5.67822 18.6733 5.29208 19.0668C5.24875 19.1102 5.17507 19.1069 5.13111 19.0642C4.93408 18.8729 4.74094 18.683 4.54991 18.4952C4.17829 18.1298 4.16944 17.5297 4.53381 17.157C4.6689 17.0189 4.80492 16.8807 4.94307 16.7426C5.19555 16.4901 5.20297 16.4901 5.00248 16.2079C4.23762 15.1089 3.74752 13.9134 3.57673 12.5842C3.57673 12.5322 3.4802 12.4431 3.42079 12.4431C2.88614 12.4431 2.34406 12.4431 1.80941 12.4505C1.68317 12.4505 1.63119 12.4208 1.63119 12.2871C1.63861 11.7673 1.63861 11.2475 1.64604 10.7277C1.64604 10.642 1.72457 10.5792 1.8103 10.5792C2.29136 10.5792 2.75583 10.5792 3.2203 10.5792C3.5396 10.5792 3.5396 10.5792 3.59159 10.2599C3.79208 8.94554 4.32673 7.76485 5.09901 6.68812C5.18069 6.57673 5.16584 6.51733 5.07673 6.42822C4.69802 6.06436 4.32673 5.69307 3.95545 5.32178C3.89233 5.25867 3.90046 5.1548 3.96409 5.09221C4.14156 4.91766 4.3176 4.74454 4.49086 4.5742C4.86665 4.20474 5.47065 4.19893 5.85302 4.56157C6.02384 4.72357 6.19461 4.88768 6.36139 5.05446C6.48762 5.18069 6.56931 5.18812 6.70297 5.08416C7.81683 4.26733 9.04951 3.74752 10.4233 3.58416C10.5421 3.56931 10.5718 3.5099 10.5718 3.39851C10.5718 2.86386 10.5718 2.32178 10.5718 1.78713C10.5718 1.67574 10.6089 1.64604 10.7129 1.65347C11.2252 1.65347 11.7376 1.65347 12.25 1.65347C12.3474 1.65347 12.4208 1.73457 12.4208 1.83195C12.4208 2.3441 12.4208 2.84602 12.4208 3.35396C12.4208 3.5099 12.4653 3.56931 12.6213 3.58416C13.4901 3.68812 14.3144 3.95545 15.0941 4.34901C15.3346 4.47119 15.5692 4.61103 15.801 4.75441C16.1858 4.99243 16.6793 4.93999 17.0029 4.62374C17.258 4.37446 17.5113 4.12538 17.7572 3.8838C17.7589 3.88212 17.7612 3.88119 17.7636 3.88119Z" stroke="white" stroke-width="0.6" mask="url(#path-1-outside-1_1033_3181)"/>
<circle cx="3.5" cy="3.5" r="3.5" transform="matrix(-1 0 0 1 15 8)" fill="#D9D9D9"/>
</svg>
