<svg width="20" height="20" viewBox="0 0 20 20" fill="none" xmlns="http://www.w3.org/2000/svg">
<path d="M4.99228 9.41097C4.15699 9.41097 3.32125 9.41321 2.48595 9.41052C1.33374 9.40649 0.60319 8.6746 0.6014 7.5188C0.599162 5.84061 0.598714 4.16242 0.601848 2.48378C0.604086 1.34319 1.34135 0.603697 2.47521 0.601906C4.17579 0.59922 5.87681 0.598325 7.57739 0.602354C8.49773 0.604592 9.19112 1.14892 9.3742 2.00615C9.40509 2.15029 9.41002 2.30203 9.41046 2.45065C9.4127 4.15123 9.41449 5.85225 9.41136 7.55282C9.40912 8.67192 8.68216 9.40336 7.5662 9.40963C6.70852 9.41455 5.8504 9.41052 4.99273 9.41052L4.99228 9.41097ZM7.63961 7.64101V2.38395H2.37986V7.64101H7.63916H7.63961Z" fill="#F25922"/>
<path d="M11.1826 5.01326C11.1826 4.16275 11.1808 3.31269 11.1831 2.46218C11.1867 1.33905 11.923 0.603585 13.0506 0.601795C14.744 0.599109 16.437 0.598661 18.1304 0.601795C19.2424 0.604033 19.9872 1.33905 19.9917 2.44964C19.9984 4.15022 19.998 5.85124 19.9917 7.55182C19.9877 8.67897 19.2509 9.40727 18.1197 9.40951C16.4263 9.41309 14.7333 9.41354 13.0399 9.40951C11.9118 9.40683 11.1858 8.6727 11.1826 7.54197C11.1804 6.69907 11.1826 5.85617 11.1826 5.01326ZM12.9575 2.37578V7.6409H18.2119V2.37578H12.9575Z" fill="#F25922"/>
<path d="M9.41197 15.5997C9.41197 16.4426 9.41421 17.2855 9.41153 18.1284C9.4075 19.2519 8.67069 19.987 7.54353 19.9888C5.85773 19.9914 4.17193 19.991 2.48612 19.9888C1.34599 19.9874 0.605151 19.2537 0.602466 18.1172C0.598437 16.4314 0.598884 14.7456 0.602466 13.0598C0.604704 11.917 1.33614 11.1828 2.47583 11.1806C4.16924 11.177 5.86221 11.1766 7.55562 11.1806C8.68456 11.1833 9.40929 11.9161 9.41242 13.0486C9.41466 13.8991 9.41287 14.7492 9.41242 15.5997H9.41197ZM7.64604 12.9564H2.38138V18.2094H7.64604V12.9564Z" fill="#F25922"/>
<path d="M16.4681 12.938C16.9059 12.938 17.3146 12.938 17.7228 12.938C18.1924 12.938 18.6624 12.9304 19.132 12.9411C19.6096 12.9523 19.9771 13.3297 19.9901 13.8011C20.0031 14.2702 19.6522 14.6766 19.1705 14.6892C18.3656 14.7107 17.5603 14.699 16.755 14.7013C16.6673 14.7013 16.5791 14.7013 16.4699 14.7013V14.968C16.4699 16.3025 16.4703 17.6373 16.4699 18.9717C16.4699 19.645 16.1252 19.9883 15.4497 19.9887C14.3387 19.9896 13.2281 19.9932 12.1171 19.9874C11.4389 19.9838 11.0074 19.3849 11.2406 18.7877C11.3767 18.439 11.6936 18.2268 12.1005 18.2251C12.8758 18.2215 13.6511 18.2242 14.4269 18.2242C14.5075 18.2242 14.5885 18.2242 14.7026 18.2242V17.9265C14.7026 16.0254 14.7013 14.1242 14.7049 12.2227C14.7049 12.0682 14.7161 11.9062 14.7635 11.7612C14.8973 11.352 15.2993 11.126 15.7371 11.1913C16.136 11.2509 16.4484 11.6032 16.4663 12.0342C16.4784 12.3238 16.4686 12.6144 16.4686 12.938H16.4681Z" fill="#F25922"/>
<path d="M12.9391 13.8203C12.9391 14.4161 12.9458 15.0123 12.9368 15.6081C12.9301 16.0571 12.5939 16.4085 12.1445 16.4618C11.7439 16.5092 11.3419 16.2411 11.2206 15.84C11.1991 15.7697 11.1866 15.6941 11.1866 15.6207C11.1843 14.4214 11.1808 13.2218 11.1875 12.0225C11.1897 11.6438 11.4341 11.3386 11.7904 11.2217C12.1391 11.1076 12.542 11.2119 12.7448 11.5221C12.8527 11.6868 12.923 11.9035 12.931 12.1C12.9552 12.6725 12.9395 13.2468 12.9395 13.8207H12.9386L12.9391 13.8203Z" fill="#F25922"/>
<path d="M18.2266 18.2232C18.2266 17.9399 18.2221 17.6565 18.2275 17.3732C18.2374 16.8588 18.6013 16.4783 19.0856 16.4689C19.591 16.4591 19.9746 16.8168 19.9885 17.3463C20.0042 17.935 20.0042 18.5245 19.9881 19.1127C19.9737 19.6275 19.5861 19.9941 19.1013 19.9878C18.608 19.9816 18.236 19.5944 18.2271 19.0729C18.2221 18.7895 18.2262 18.5061 18.2262 18.2228L18.2266 18.2232Z" fill="#F25922"/>
</svg>
