<svg width="19" height="19" viewBox="0 0 19 19" fill="none" xmlns="http://www.w3.org/2000/svg">
<path d="M12.3333 18H6.66667M12.3333 18V13.2778M12.3333 18H17.4333C17.5836 18 17.7278 17.9403 17.834 17.834C17.9403 17.7278 18 17.5836 18 17.4333V13.8444C18 13.6942 17.9403 13.55 17.834 13.4437C17.7278 13.3375 17.5836 13.2778 17.4333 13.2778H12.3333M6.66667 18V6.66667M6.66667 18H1.56667C1.41638 18 1.27224 17.9403 1.16597 17.834C1.0597 17.7278 1 17.5836 1 17.4333V1.56667C1 1.41638 1.0597 1.27224 1.16597 1.16597C1.27224 1.0597 1.41638 1 1.56667 1H6.1C6.25029 1 6.39442 1.0597 6.50069 1.16597C6.60697 1.27224 6.66667 1.41638 6.66667 1.56667V6.66667M12.3333 13.2778V7.23333C12.3333 7.08304 12.2736 6.93891 12.1674 6.83264C12.0611 6.72637 11.917 6.66667 11.7667 6.66667H6.66667" stroke="#FFF9F8" stroke-opacity="0.8" stroke-width="1.3"/>
</svg>
