<svg width="20" height="19" viewBox="0 0 20 19" fill="none" xmlns="http://www.w3.org/2000/svg">
<path d="M10.0002 11.9529L11.2263 13.179L14.9062 9.49989L11.2272 5.8208L10.0011 7.04774L11.5853 8.63279L5.04998 8.63279L5.04998 10.367L11.5853 10.367L10.0002 11.9529Z" fill="#F25922"/>
<path fill-rule="evenodd" clip-rule="evenodd" d="M16.3771 15.9166C19.9212 12.3726 19.9212 6.62744 16.3771 3.08336C12.833 -0.460729 7.08789 -0.460729 3.54381 3.08336C-0.000278744 6.62744 -0.000278995 12.3726 3.54381 15.9166C7.08789 19.4607 12.833 19.4607 16.3771 15.9166ZM15.2106 14.7501C16.603 13.3577 17.3853 11.4692 17.3853 9.5C17.3853 7.53082 16.603 5.64229 15.2106 4.24987C13.8182 2.85745 11.9296 2.07519 9.96045 2.07519C7.99127 2.07519 6.10274 2.85745 4.71032 4.24987C3.3179 5.64229 2.53564 7.53082 2.53564 9.5C2.53564 11.4692 3.3179 13.3577 4.71032 14.7501C6.10274 16.1426 7.99127 16.9248 9.96045 16.9248C11.9296 16.9248 13.8182 16.1426 15.2106 14.7501Z" fill="#F25922"/>
</svg>
