<svg width="10" height="10" viewBox="0 0 10 10" fill="none" xmlns="http://www.w3.org/2000/svg">
<path fill-rule="evenodd" clip-rule="evenodd" d="M4.44802 1.00318e-08C3.73868 6.04415e-05 3.03964 0.169753 2.40922 0.494921C1.7788 0.820088 1.23528 1.2913 0.824008 1.86925C0.412736 2.44719 0.145639 3.11511 0.0449996 3.81727C-0.0556397 4.51944 0.0130973 5.23549 0.245476 5.90569C0.477855 6.57588 0.867137 7.18079 1.38084 7.66995C1.89455 8.1591 2.51779 8.51831 3.19855 8.71761C3.87932 8.91691 4.59788 8.95052 5.29428 8.81564C5.99067 8.68075 6.64472 8.38129 7.20184 7.94223L9.11309 9.85347C9.21179 9.9488 9.34399 10.0015 9.48121 10.0004C9.61842 9.99916 9.74969 9.94413 9.84672 9.84709C9.94375 9.75006 9.99879 9.6188 9.99998 9.48158C10.0012 9.34437 9.94842 9.21217 9.85309 9.11346L7.94185 7.20222C8.45891 6.54628 8.78085 5.75801 8.87083 4.92764C8.96081 4.09726 8.8152 3.25833 8.45065 2.50685C8.08611 1.75537 7.51736 1.12171 6.8095 0.678371C6.10163 0.235036 5.28326 -5.60725e-05 4.44802 1.00318e-08ZM1.0463 4.4484C1.0463 3.54621 1.4047 2.68097 2.04264 2.04302C2.68059 1.40508 3.54583 1.04668 4.44802 1.04668C5.35021 1.04668 6.21546 1.40508 6.8534 2.04302C7.49135 2.68097 7.84974 3.54621 7.84974 4.4484C7.84974 5.35059 7.49135 6.21583 6.8534 6.85378C6.21546 7.49172 5.35021 7.85012 4.44802 7.85012C3.54583 7.85012 2.68059 7.49172 2.04264 6.85378C1.4047 6.21583 1.0463 5.35059 1.0463 4.4484Z" fill="#878484"/>
</svg>
