<svg width="24" height="22" viewBox="0 0 24 22" fill="none" xmlns="http://www.w3.org/2000/svg">
<path d="M20.8604 8.00745L21.4276 6.25851C21.5931 5.73855 21.9003 5.4313 22.4675 5.62038C23.0347 5.80945 23.082 6.21124 22.9166 6.70756L21.7112 10.4182C21.6908 10.5559 21.6358 10.6863 21.5515 10.7972C21.4672 10.9081 21.3563 10.9959 21.229 11.0525C21.1017 11.1091 20.9622 11.1326 20.8234 11.1208C20.6846 11.1091 20.551 11.0625 20.435 10.9854L16.8898 9.33098C16.4408 9.1419 16.1335 8.81102 16.3698 8.29107C16.6062 7.77111 17.0789 7.74748 17.5752 7.96019L19.4187 8.76375C18.9356 7.08908 17.9566 5.60001 16.6106 4.49271C15.2645 3.38541 13.6147 2.7118 11.8783 2.56064C10.1419 2.40947 8.40042 2.78783 6.8833 3.64587C5.36618 4.50392 4.14455 5.80139 3.37935 7.3674C2.61414 8.9334 2.34125 10.6945 2.59662 12.4186C2.85199 14.1428 3.62364 15.7491 4.80993 17.0261C5.99622 18.303 7.54149 19.1907 9.2422 19.5721C10.9429 19.9536 12.7193 19.8109 14.3373 19.1629L14.9045 18.9265C14.9941 18.8702 15.0948 18.8338 15.1998 18.8201C15.3047 18.8064 15.4114 18.8155 15.5125 18.847C15.6136 18.8784 15.7067 18.9314 15.7853 19.0023C15.8639 19.0731 15.9263 19.1602 15.9681 19.2574C16.022 19.3564 16.0532 19.4663 16.0593 19.5789C16.0653 19.6915 16.0461 19.804 16.0031 19.9082C15.96 20.0125 15.8942 20.1057 15.8105 20.1812C15.7267 20.2567 15.6271 20.3126 15.519 20.3446C13.6902 21.2123 11.644 21.514 9.64259 21.2112C7.64119 20.9085 5.7758 20.0149 4.28551 18.6451C2.79521 17.2753 1.74791 15.4917 1.27784 13.5229C0.807769 11.5541 0.93634 9.48969 1.64708 7.5944C2.35781 5.6991 3.61833 4.05923 5.26707 2.88494C6.91581 1.71066 8.87766 1.05548 10.9012 1.00337C12.9247 0.951259 14.9176 1.5046 16.6246 2.59246C18.3316 3.68032 19.6749 5.25315 20.4822 7.10935L20.8604 8.00745Z" fill="white" fill-opacity="0.8" stroke="white" stroke-opacity="0.8" stroke-width="0.5"/>
<path d="M10.2722 8.45653C10.2722 7.60569 10.2722 6.77849 10.2722 5.92765C10.2722 5.07681 10.5085 4.93501 11.0994 4.93501C11.6903 4.93501 12.0211 5.36042 12.0211 5.95128C11.9739 7.34571 11.9739 8.76378 11.9739 10.1109C12.0368 10.4957 12.2187 10.851 12.4938 11.1272C12.9432 11.6002 13.4165 12.0498 13.9119 12.4744C14.0064 12.5542 14.0824 12.6538 14.1345 12.766C14.1866 12.8783 14.2136 13.0006 14.2136 13.1243C14.2136 13.2481 14.1866 13.3704 14.1345 13.4826C14.0824 13.5949 14.0064 13.6944 13.9119 13.7743C13.4865 14.247 13.0138 14.1288 12.5884 13.7743C12.1629 13.4198 11.1939 12.5216 10.5558 11.8363C10.3359 11.595 10.2028 11.2873 10.1777 10.9618C10.2486 10.1109 10.2722 9.28373 10.2722 8.45653Z" fill="white" fill-opacity="0.8"/>
</svg>
