<svg width="155" height="27" viewBox="0 0 155 27" fill="none" xmlns="http://www.w3.org/2000/svg">
<path d="M83.8742 6.03554C83.8742 6.65991 83.8742 7.07616 83.8742 7.49241C83.8742 9.57367 83.8742 11.6549 83.8742 13.7362C83.8742 14.1524 83.8742 14.3606 83.2498 14.3606C82.6254 14.3606 81.7929 14.3606 81.1686 14.3606C80.7523 14.3606 80.5442 14.1524 80.5442 13.7362C80.5442 9.78179 80.5442 6.03554 80.5442 2.08115C80.5442 1.6649 80.5442 1.24865 80.5442 0.8324C80.5442 0.624275 80.5442 0.416149 80.9604 0.416149C80.9604 0.416149 80.9604 0.416149 81.1686 0.416149C82.6254 0.208023 83.6661 0.8324 84.7067 2.08115C86.3717 4.16241 88.0367 6.24366 89.7017 8.32491C89.9098 8.53304 89.9098 8.53304 90.118 8.74117C90.3261 8.53304 90.118 8.32492 90.118 8.11679C90.118 5.82741 90.118 3.32991 90.118 1.04053C90.118 0.624275 90.3261 0.416149 90.7423 0.416149C91.3667 0.416149 92.1992 0.416149 92.8236 0.416149C93.2398 0.416149 93.2398 0.416149 93.2398 0.8324C93.2398 5.20303 93.2398 9.36554 93.2398 13.7362C93.2398 14.1524 93.0317 14.1524 92.8236 14.1524C90.7423 14.1524 90.7423 14.1524 89.2855 12.4874C87.6205 10.4062 85.9554 8.32491 84.2904 6.24366C84.2904 6.45179 84.0823 6.24366 83.8742 6.03554Z" fill="white"/>
<path d="M100.732 6.03614C100.524 6.24426 100.732 6.45239 100.732 6.66051C100.732 8.94989 100.732 11.2393 100.732 13.5286C100.732 13.9449 100.732 14.153 100.108 14.153C99.4837 14.153 98.6512 14.153 98.0268 14.153C97.8187 14.153 97.6106 14.153 97.6106 13.7368C97.6106 9.36614 97.6106 5.20363 97.6106 0.832999C97.6106 0.624874 97.6106 0.416748 98.0268 0.416748C100.108 0.416748 100.108 0.416748 101.565 2.08175C103.23 4.16301 104.895 6.24426 106.56 8.32551C106.768 8.53364 106.768 8.74177 106.976 8.74177C107.184 8.53364 106.976 8.32551 106.976 8.11739C106.976 5.82801 106.976 3.3305 106.976 1.04112C106.976 0.624874 107.184 0.416748 107.601 0.416748C108.225 0.416748 109.057 0.416748 109.682 0.416748C110.098 0.416748 110.098 0.416749 110.098 0.832999C110.098 5.20363 110.098 9.36614 110.098 13.7368C110.098 13.9449 110.098 14.153 109.682 14.153C107.601 14.153 107.601 14.153 106.144 12.488C104.271 10.6149 102.606 8.32551 100.732 6.03614C100.732 6.24426 100.732 6.24426 100.732 6.03614Z" fill="white"/>
<path d="M76.798 4.78738C75.7573 2.08175 73.0517 0.416748 69.7217 0.416748C68.6811 0.416748 67.6405 0.624874 66.5998 1.04112C64.3104 2.08175 62.6454 3.74676 62.4373 6.45239C62.0211 9.15802 62.8536 11.4474 64.9348 13.1124C66.808 14.5693 68.8892 14.9855 71.1786 14.5693C75.9655 13.7368 78.6711 8.94989 76.798 4.78738ZM69.9298 11.8636C67.4323 11.8636 65.7673 9.99052 65.7673 7.49301C65.7673 4.99551 67.4323 3.12238 69.9298 3.12238C72.4273 3.12238 74.3005 4.99551 74.3005 7.49301C74.0923 9.99052 72.4273 11.8636 69.9298 11.8636Z" fill="white"/>
<path d="M114.261 7.28489C114.261 5.20363 114.261 3.12238 114.261 1.04112C114.261 0.624874 114.261 0.416748 114.885 0.416748C118.007 0.416748 121.129 0.416748 124.251 0.416748C124.667 0.416748 124.875 0.416749 124.875 0.832999C124.875 1.45738 124.875 1.87363 124.875 2.498C124.875 2.91425 124.667 2.91425 124.459 2.91425C122.378 2.91425 120.296 2.91425 118.423 2.91425C118.007 2.91425 117.799 3.12238 117.799 3.53863C117.799 4.16301 117.799 4.78738 117.799 5.41176C117.799 5.82801 117.799 6.03613 118.423 6.03613C120.088 6.03613 121.753 6.03613 123.626 6.03613C124.043 6.03613 124.251 6.24426 124.251 6.66051C124.251 7.07676 124.251 7.49301 124.251 7.90926C124.251 8.32551 124.043 8.32551 123.626 8.32551C121.961 8.32551 120.088 8.32551 118.423 8.32551C118.007 8.32551 117.799 8.32551 117.799 8.94989C117.799 9.57427 117.799 10.1986 117.799 11.0311C117.799 11.4474 118.007 11.6555 118.423 11.6555C120.505 11.6555 122.586 11.6555 124.667 11.6555C125.083 11.6555 125.291 11.8636 125.291 12.2799C125.291 12.6961 125.291 13.1124 125.291 13.7368C125.291 14.153 125.083 14.3612 124.667 14.3612C121.545 14.3612 118.423 14.3612 115.093 14.3612C114.677 14.3612 114.469 14.153 114.469 13.7368C114.261 11.6555 114.261 9.36614 114.261 7.28489Z" fill="white"/>
<path d="M54.737 0.416748C56.8182 0.416748 58.4832 1.04112 59.9401 2.28988C60.3564 2.70613 60.3564 2.70613 59.9401 3.12238C59.5239 3.53863 59.1076 3.95488 58.6914 4.37113C58.4832 4.57926 58.2751 4.57926 58.067 4.37113C56.402 2.70613 53.6964 2.70613 52.0314 4.16301C50.1582 5.61988 50.1582 8.74176 51.6151 10.4068C53.2801 12.0718 56.1939 12.2799 57.8589 10.6149C58.2751 10.1986 58.4832 10.1986 58.8995 10.6149C59.3157 11.0311 59.732 11.4474 60.1482 11.6555C60.3564 11.8636 60.3564 12.0718 60.1482 12.2799C58.4832 13.9449 56.402 14.5693 54.1126 14.3612C51.407 14.153 49.3257 12.9043 48.077 10.6149C45.7876 6.03613 48.9095 0.832999 53.9045 0.416748C54.3207 0.416748 54.5289 0.416748 54.737 0.416748Z" fill="white"/>
<path d="M127.581 7.49266C127.581 3.7464 130.286 0.832646 134.033 0.416395C136.322 0.208269 138.403 0.62452 140.276 2.28952C140.693 2.70577 140.693 2.9139 140.276 3.12203C139.86 3.33015 139.444 3.7464 139.236 4.16265C138.819 4.5789 138.611 4.5789 138.195 4.16265C136.53 2.49765 133.408 2.70577 131.951 4.37078C130.494 6.03578 130.494 8.94954 132.159 10.4064C133.824 12.0714 136.53 12.0714 138.195 10.4064C138.611 9.99016 138.819 9.99016 139.236 10.4064C139.652 10.8227 140.068 11.2389 140.484 11.447C140.693 11.6552 140.693 11.8633 140.484 12.0714C138.819 13.7364 136.738 14.3608 134.657 14.1527C132.159 13.9445 130.078 12.9039 128.621 10.6145C127.789 9.78204 127.372 8.53329 127.581 7.49266Z" fill="white"/>
<path d="M147.977 0.624475C149.85 0.624475 151.515 0.624475 153.388 0.624475C153.805 0.624475 154.013 0.624475 154.013 1.24885C154.013 1.87323 154.013 2.28948 154.013 2.91386C154.013 3.33011 153.805 3.53823 153.388 3.53823C152.348 3.53823 151.307 3.53823 150.058 3.53823C149.642 3.53823 149.434 3.74636 149.434 4.16261C149.434 7.49261 149.434 10.8226 149.434 14.1526C149.434 14.5689 149.434 14.777 148.81 14.777C148.185 14.777 147.561 14.777 146.728 14.777C146.312 14.777 146.104 14.5689 146.104 14.1526C146.104 10.8226 146.104 7.70074 146.104 4.37073C146.104 3.74636 145.896 3.74636 145.48 3.74636C144.439 3.74636 143.398 3.74636 142.358 3.74636C141.941 3.74636 141.941 3.74636 141.941 3.33011C141.941 2.70573 141.941 2.28948 141.941 1.6651C141.941 1.24885 141.733 0.624357 141.941 0.624357C143.814 -1.96397e-05 146.104 0.624475 147.977 0.624475Z" fill="white"/>
<path d="M31.4268 6.03576L34.7568 0.208252L42.0412 9.5739L34.1324 23.5183H25.8074L34.1324 9.5739L31.4268 6.03576Z" fill="white"/>
<path d="M32.2599 0.208252L18.7318 23.5183H10.4067L23.9349 0.208252H32.2599Z" fill="white"/>
<path d="M11.4469 17.2744L7.90877 23.5182L0 13.5282L8.32502 0H16.8582L8.53314 13.5282L11.4469 17.2744Z" fill="white"/>
<path d="M48.6152 24.8582V19.1316H49.373V24.8582H48.6152ZM53.9851 24.8582V19.1316H54.7624L57.7702 23.6277V19.1316H58.4968V24.8582H57.7195L54.7116 20.3582V24.8582H53.9851ZM63.0541 24.8582V19.1316H65.0268C65.4721 19.1316 65.812 19.1589 66.0463 19.2136C66.3745 19.2891 66.6544 19.4259 66.8862 19.6238C67.1883 19.879 67.4135 20.2058 67.562 20.6042C67.713 21.0001 67.7885 21.4532 67.7885 21.9636C67.7885 22.3985 67.7377 22.7839 67.6362 23.1199C67.5346 23.4558 67.4044 23.7345 67.2455 23.9558C67.0867 24.1746 66.9122 24.3477 66.7221 24.4753C66.5346 24.6003 66.3067 24.6954 66.0385 24.7605C65.7729 24.8256 65.4669 24.8582 65.1205 24.8582H63.0541ZM63.812 24.1824H65.0346C65.4122 24.1824 65.7078 24.1472 65.9213 24.0769C66.1375 24.0066 66.3093 23.9076 66.437 23.78C66.6166 23.6003 66.756 23.3595 66.8549 23.0574C66.9565 22.7527 67.0073 22.3842 67.0073 21.9519C67.0073 21.3529 66.9083 20.8933 66.7104 20.573C66.5151 20.2501 66.2768 20.0339 65.9955 19.9246C65.7924 19.8464 65.4656 19.8074 65.0151 19.8074H63.812V24.1824ZM75.8732 19.1316H76.631V22.4402C76.631 23.0157 76.5659 23.4727 76.4357 23.8113C76.3055 24.1498 76.0698 24.4259 75.7287 24.6394C75.3901 24.8503 74.9448 24.9558 74.3927 24.9558C73.8563 24.9558 73.4175 24.8634 73.0763 24.6785C72.7352 24.4936 72.4917 24.2266 72.3459 23.8777C72.2 23.5261 72.1271 23.047 72.1271 22.4402V19.1316H72.8849V22.4363C72.8849 22.9337 72.9305 23.3009 73.0216 23.5378C73.1154 23.7722 73.2742 23.9532 73.4982 24.0808C73.7248 24.2084 74.0008 24.2722 74.3263 24.2722C74.8836 24.2722 75.2808 24.1459 75.5177 23.8933C75.7547 23.6407 75.8732 23.155 75.8732 22.4363V19.1316ZM80.9188 23.0183L81.6337 22.9558C81.6675 23.2423 81.7456 23.4779 81.868 23.6628C81.993 23.8451 82.1858 23.9936 82.4462 24.1082C82.7066 24.2201 82.9996 24.2761 83.3251 24.2761C83.6141 24.2761 83.8693 24.2332 84.0907 24.1472C84.3121 24.0613 84.4761 23.9441 84.5829 23.7957C84.6923 23.6446 84.747 23.4806 84.747 23.3035C84.747 23.1238 84.6949 22.9675 84.5907 22.8347C84.4865 22.6993 84.3147 22.586 84.0751 22.4949C83.9214 22.435 83.5816 22.3425 83.0555 22.2175C82.5295 22.0899 82.161 21.9701 81.9501 21.8582C81.6766 21.7149 81.4722 21.5378 81.3368 21.3269C81.204 21.1134 81.1376 20.8751 81.1376 20.6121C81.1376 20.323 81.2196 20.0535 81.3837 19.8035C81.5477 19.5509 81.7873 19.3595 82.1024 19.2292C82.4175 19.099 82.7678 19.0339 83.1532 19.0339C83.5777 19.0339 83.9514 19.1029 84.2743 19.241C84.5998 19.3764 84.8498 19.5769 85.0243 19.8425C85.1988 20.1082 85.2925 20.4089 85.3055 20.7449L84.579 20.7996C84.5399 20.4376 84.4071 20.1641 84.1805 19.9792C83.9566 19.7944 83.6246 19.7019 83.1845 19.7019C82.7261 19.7019 82.3915 19.7865 82.1805 19.9558C81.9722 20.1225 81.868 20.3243 81.868 20.5613C81.868 20.767 81.9423 20.9363 82.0907 21.0691C82.2365 21.2019 82.6167 21.3386 83.2313 21.4792C83.8485 21.6173 84.2717 21.7384 84.5009 21.8425C84.8342 21.9962 85.0803 22.1915 85.2391 22.4285C85.398 22.6628 85.4774 22.9337 85.4774 23.241C85.4774 23.5457 85.3902 23.8334 85.2157 24.1042C85.0412 24.3725 84.7899 24.5821 84.4618 24.7332C84.1363 24.8816 83.7691 24.9558 83.3602 24.9558C82.842 24.9558 82.4071 24.8803 82.0555 24.7292C81.7066 24.5782 81.4318 24.3516 81.2313 24.0496C81.0334 23.7449 80.9292 23.4011 80.9188 23.0183ZM91.2496 24.8582V19.8074H89.3629V19.1316H93.902V19.8074H92.0074V24.8582H91.2496ZM97.9749 24.8582V19.1316H100.514C101.024 19.1316 101.412 19.1837 101.678 19.2878C101.944 19.3894 102.156 19.5704 102.315 19.8308C102.474 20.0912 102.553 20.379 102.553 20.6941C102.553 21.1003 102.422 21.4428 102.159 21.7214C101.895 22.0001 101.489 22.1772 100.94 22.2527C101.14 22.349 101.293 22.4441 101.397 22.5378C101.618 22.741 101.828 22.9949 102.026 23.2996L103.022 24.8582H102.069L101.311 23.6667C101.09 23.323 100.907 23.06 100.764 22.8777C100.621 22.6954 100.492 22.5678 100.377 22.4949C100.265 22.422 100.151 22.3712 100.034 22.3425C99.9476 22.3243 99.807 22.3152 99.6116 22.3152H98.7327V24.8582H97.9749ZM98.7327 21.6589H100.362C100.708 21.6589 100.979 21.6238 101.174 21.5535C101.369 21.4806 101.518 21.366 101.619 21.2097C101.721 21.0509 101.772 20.879 101.772 20.6941C101.772 20.4233 101.673 20.2006 101.475 20.0261C101.28 19.8516 100.97 19.7644 100.545 19.7644H98.7327V21.6589ZM107.153 24.8582V19.1316H107.911V24.8582H107.153ZM111.902 24.8582L114.101 19.1316H114.918L117.261 24.8582H116.398L115.73 23.1238H113.336L112.707 24.8582H111.902ZM113.554 22.5066H115.496L114.898 20.9207C114.716 20.4389 114.58 20.0431 114.492 19.7332C114.419 20.1003 114.316 20.4649 114.183 20.8269L113.554 22.5066ZM121.116 24.8582V19.1316H121.874V24.1824H124.694V24.8582H121.116ZM134.219 24.8582V19.1316H134.976V24.8582H134.219ZM139.366 22.0691C139.366 21.1186 139.621 20.3751 140.131 19.8386C140.642 19.2996 141.301 19.03 142.108 19.03C142.637 19.03 143.113 19.1563 143.538 19.4089C143.962 19.6615 144.285 20.0144 144.506 20.4675C144.73 20.9181 144.842 21.4298 144.842 22.0027C144.842 22.5834 144.725 23.1029 144.491 23.5613C144.256 24.0196 143.924 24.3673 143.495 24.6042C143.065 24.8386 142.602 24.9558 142.104 24.9558C141.565 24.9558 141.083 24.8256 140.659 24.5652C140.234 24.3048 139.913 23.9493 139.694 23.4988C139.475 23.0483 139.366 22.5717 139.366 22.0691ZM140.147 22.0808C140.147 22.7709 140.332 23.3152 140.702 23.7136C141.074 24.1095 141.54 24.3074 142.1 24.3074C142.671 24.3074 143.139 24.1069 143.506 23.7058C143.876 23.3048 144.061 22.7358 144.061 21.9988C144.061 21.5326 143.982 21.1264 143.823 20.78C143.667 20.4311 143.436 20.1615 143.131 19.9714C142.829 19.7787 142.49 19.6824 142.112 19.6824C141.575 19.6824 141.113 19.8673 140.725 20.2371C140.34 20.6042 140.147 21.2188 140.147 22.0808ZM150.56 24.8582V19.8074H148.673V19.1316H153.212V19.8074H151.318V24.8582H150.56Z" fill="white"/>
</svg>
