<svg width="32" height="32" viewBox="0 0 32 32" fill="none" xmlns="http://www.w3.org/2000/svg">
<path d="M12.2266 2.22347L2.18427 12.2658C1.94996 12.5001 1.94996 12.88 2.18427 13.1143L6.6744 17.6045C6.90872 17.8388 7.28862 17.8388 7.52293 17.6045L17.5653 7.56213C17.7996 7.32781 17.7996 6.94791 17.5653 6.7136L13.0751 2.22347C12.8408 1.98915 12.4609 1.98915 12.2266 2.22347Z" fill="#E7C823" fill-opacity="0.3"/>
<path d="M22.8907 12.8485L12.8483 22.8908C12.614 23.1251 12.614 23.505 12.8483 23.7393L17.3385 28.2295C17.5728 28.4638 17.9527 28.4638 18.187 28.2295L28.2293 18.1871C28.4636 17.9528 28.4636 17.5729 28.2293 17.3386L23.7392 12.8485C23.5049 12.6142 23.125 12.6142 22.8907 12.8485Z" fill="#E7C823" fill-opacity="0.3"/>
<path d="M9.58301 14.373L14.3567 9.59937L20.6209 15.8636L15.8473 20.6373L9.58301 14.373Z" fill="url(#paint0_linear_211_2)"/>
<path d="M9.58301 14.373L14.3567 9.59937L20.6209 15.8636L15.8473 20.6373L9.58301 14.373Z" fill="url(#paint1_linear_211_2)"/>
<path d="M9.58301 14.373L14.3567 9.59937L20.6209 15.8636L15.8473 20.6373L9.58301 14.373Z" fill="url(#paint2_linear_211_2)"/>
<path d="M9.58301 14.373L14.3567 9.59937L20.6209 15.8636L15.8473 20.6373L9.58301 14.373Z" fill="url(#paint3_linear_211_2)"/>
<g filter="url(#filter0_i_211_2)">
<path d="M20.3181 25.0841L25.0911 20.3101L29.3611 24.5801C29.6985 24.9176 29.888 25.3753 29.888 25.8526C29.888 26.3298 29.6985 26.7875 29.3611 27.1251L27.1321 29.3531C26.7946 29.6904 26.3369 29.88 25.8596 29.88C25.3824 29.88 24.9247 29.6904 24.5871 29.3531L20.3181 25.0841Z" fill="url(#paint4_linear_211_2)"/>
<path d="M20.3181 25.0841L25.0911 20.3101L29.3611 24.5801C29.6985 24.9176 29.888 25.3753 29.888 25.8526C29.888 26.3298 29.6985 26.7875 29.3611 27.1251L27.1321 29.3531C26.7946 29.6904 26.3369 29.88 25.8596 29.88C25.3824 29.88 24.9247 29.6904 24.5871 29.3531L20.3181 25.0841Z" fill="url(#paint5_linear_211_2)"/>
<path d="M20.3181 25.0841L25.0911 20.3101L29.3611 24.5801C29.6985 24.9176 29.888 25.3753 29.888 25.8526C29.888 26.3298 29.6985 26.7875 29.3611 27.1251L27.1321 29.3531C26.7946 29.6904 26.3369 29.88 25.8596 29.88C25.3824 29.88 24.9247 29.6904 24.5871 29.3531L20.3181 25.0841Z" fill="url(#paint6_linear_211_2)"/>
<path d="M20.3181 25.0841L25.0911 20.3101L29.3611 24.5801C29.6985 24.9176 29.888 25.3753 29.888 25.8526C29.888 26.3298 29.6985 26.7875 29.3611 27.1251L27.1321 29.3531C26.7946 29.6904 26.3369 29.88 25.8596 29.88C25.3824 29.88 24.9247 29.6904 24.5871 29.3531L20.3181 25.0841Z" fill="url(#paint7_radial_211_2)"/>
</g>
<g filter="url(#filter1_i_211_2)">
<path d="M15.2471 10.363C15.3335 10.2464 15.4625 10.1686 15.6059 10.1465C15.7494 10.1245 15.8958 10.1599 16.0133 10.2451C16.1307 10.3303 16.2099 10.4585 16.2334 10.6017C16.257 10.7449 16.2231 10.8916 16.1391 11.01L11.9051 16.848C11.8626 16.9066 11.809 16.9563 11.7473 16.9943C11.6856 17.0322 11.6171 17.0576 11.5456 17.069C11.4741 17.0804 11.401 17.0776 11.3306 17.0608C11.2602 17.044 11.1937 17.0135 11.1351 16.971C11.0765 16.9285 11.0268 16.8749 10.9889 16.8132C10.9509 16.7515 10.9256 16.683 10.9141 16.6115C10.9027 16.54 10.9055 16.4669 10.9223 16.3965C10.9391 16.3261 10.9696 16.2596 11.0121 16.201L15.2471 10.363Z" fill="url(#paint8_linear_211_2)"/>
<path d="M15.2471 10.363C15.3335 10.2464 15.4625 10.1686 15.6059 10.1465C15.7494 10.1245 15.8958 10.1599 16.0133 10.2451C16.1307 10.3303 16.2099 10.4585 16.2334 10.6017C16.257 10.7449 16.2231 10.8916 16.1391 11.01L11.9051 16.848C11.8626 16.9066 11.809 16.9563 11.7473 16.9943C11.6856 17.0322 11.6171 17.0576 11.5456 17.069C11.4741 17.0804 11.401 17.0776 11.3306 17.0608C11.2602 17.044 11.1937 17.0135 11.1351 16.971C11.0765 16.9285 11.0268 16.8749 10.9889 16.8132C10.9509 16.7515 10.9256 16.683 10.9141 16.6115C10.9027 16.54 10.9055 16.4669 10.9223 16.3965C10.9391 16.3261 10.9696 16.2596 11.0121 16.201L15.2471 10.363Z" fill="url(#paint9_radial_211_2)"/>
</g>
<g filter="url(#filter2_i_211_2)">
<path d="M25.9809 21.073C26.0668 20.9546 26.1963 20.8752 26.3408 20.8522C26.4853 20.8292 26.633 20.8646 26.7514 20.9505C26.8698 21.0364 26.9493 21.1659 26.9722 21.3104C26.9952 21.4549 26.9598 21.6026 26.8739 21.721L22.6389 27.559C22.5525 27.6756 22.4235 27.7534 22.2801 27.7755C22.1366 27.7975 21.9902 27.7621 21.8727 27.6769C21.7553 27.5917 21.6761 27.4635 21.6526 27.3203C21.629 27.1771 21.6629 27.0304 21.7469 26.912L25.9809 21.073Z" fill="url(#paint10_linear_211_2)"/>
<path d="M25.9809 21.073C26.0668 20.9546 26.1963 20.8752 26.3408 20.8522C26.4853 20.8292 26.633 20.8646 26.7514 20.9505C26.8698 21.0364 26.9493 21.1659 26.9722 21.3104C26.9952 21.4549 26.9598 21.6026 26.8739 21.721L22.6389 27.559C22.5525 27.6756 22.4235 27.7534 22.2801 27.7755C22.1366 27.7975 21.9902 27.7621 21.8727 27.6769C21.7553 27.5917 21.6761 27.4635 21.6526 27.3203C21.629 27.1771 21.6629 27.0304 21.7469 26.912L25.9809 21.073Z" fill="url(#paint11_radial_211_2)"/>
</g>
<g filter="url(#filter3_i_211_2)">
<path d="M16.9029 12.0341C16.9888 11.9156 17.1183 11.8362 17.2628 11.8132C17.4073 11.7903 17.555 11.8256 17.6734 11.9116C17.7918 11.9975 17.8712 12.127 17.8942 12.2714C17.9172 12.4159 17.8818 12.5636 17.7959 12.6821L13.5599 18.5201C13.4741 18.6385 13.3448 18.718 13.2004 18.741C13.056 18.7641 12.9083 18.7289 12.7899 18.6431C12.6715 18.5573 12.592 18.4279 12.5689 18.2835C12.5458 18.1391 12.5811 17.9915 12.6669 17.8731L16.9029 12.0341Z" fill="url(#paint12_linear_211_2)"/>
<path d="M16.9029 12.0341C16.9888 11.9156 17.1183 11.8362 17.2628 11.8132C17.4073 11.7903 17.555 11.8256 17.6734 11.9116C17.7918 11.9975 17.8712 12.127 17.8942 12.2714C17.9172 12.4159 17.8818 12.5636 17.7959 12.6821L13.5599 18.5201C13.4741 18.6385 13.3448 18.718 13.2004 18.741C13.056 18.7641 12.9083 18.7289 12.7899 18.6431C12.6715 18.5573 12.592 18.4279 12.5689 18.2835C12.5458 18.1391 12.5811 17.9915 12.6669 17.8731L16.9029 12.0341Z" fill="url(#paint13_radial_211_2)"/>
</g>
<g filter="url(#filter4_i_211_2)">
<path d="M27.6381 22.7451C27.6803 22.6857 27.7338 22.6352 27.7956 22.5966C27.8573 22.558 27.9262 22.5321 27.998 22.5202C28.0699 22.5084 28.1434 22.511 28.2143 22.5277C28.2852 22.5445 28.352 22.5751 28.411 22.6179C28.47 22.6607 28.5199 22.7147 28.5578 22.7769C28.5957 22.8391 28.621 22.9082 28.6321 22.9801C28.6431 23.0521 28.6398 23.1256 28.6223 23.1963C28.6048 23.267 28.5735 23.3336 28.5301 23.3921L24.2951 29.2311C24.2092 29.3494 24.0798 29.4287 23.9354 29.4515C23.791 29.4744 23.6434 29.439 23.5251 29.3531C23.4068 29.2671 23.3275 29.1377 23.3046 28.9933C23.2818 28.8489 23.3172 28.7014 23.4031 28.5831L27.6381 22.7451Z" fill="url(#paint14_linear_211_2)"/>
<path d="M27.6381 22.7451C27.6803 22.6857 27.7338 22.6352 27.7956 22.5966C27.8573 22.558 27.9262 22.5321 27.998 22.5202C28.0699 22.5084 28.1434 22.511 28.2143 22.5277C28.2852 22.5445 28.352 22.5751 28.411 22.6179C28.47 22.6607 28.5199 22.7147 28.5578 22.7769C28.5957 22.8391 28.621 22.9082 28.6321 22.9801C28.6431 23.0521 28.6398 23.1256 28.6223 23.1963C28.6048 23.267 28.5735 23.3336 28.5301 23.3921L24.2951 29.2311C24.2092 29.3494 24.0798 29.4287 23.9354 29.4515C23.791 29.4744 23.6434 29.439 23.5251 29.3531C23.4068 29.2671 23.3275 29.1377 23.3046 28.9933C23.2818 28.8489 23.3172 28.7014 23.4031 28.5831L27.6381 22.7451Z" fill="url(#paint15_radial_211_2)"/>
</g>
<g filter="url(#filter5_i_211_2)">
<path d="M18.56 13.706C18.6026 13.6475 18.6562 13.5978 18.718 13.56C18.7797 13.5222 18.8483 13.4969 18.9198 13.4856C18.9913 13.4742 19.0643 13.4771 19.1347 13.494C19.2051 13.5109 19.2715 13.5415 19.33 13.584C19.3886 13.6266 19.4382 13.6802 19.476 13.742C19.5139 13.8037 19.5392 13.8723 19.5505 13.9438C19.5618 14.0153 19.559 14.0883 19.5421 14.1587C19.5252 14.2291 19.4946 14.2955 19.452 14.354L15.217 20.192C15.1306 20.3086 15.0016 20.3864 14.8582 20.4085C14.7147 20.4306 14.5684 20.3951 14.4509 20.3099C14.3334 20.2247 14.2543 20.0966 14.2307 19.9533C14.2071 19.8101 14.241 19.6634 14.325 19.545L18.56 13.706Z" fill="url(#paint16_linear_211_2)"/>
<path d="M18.56 13.706C18.6026 13.6475 18.6562 13.5978 18.718 13.56C18.7797 13.5222 18.8483 13.4969 18.9198 13.4856C18.9913 13.4742 19.0643 13.4771 19.1347 13.494C19.2051 13.5109 19.2715 13.5415 19.33 13.584C19.3886 13.6266 19.4382 13.6802 19.476 13.742C19.5139 13.8037 19.5392 13.8723 19.5505 13.9438C19.5618 14.0153 19.559 14.0883 19.5421 14.1587C19.5252 14.2291 19.4946 14.2955 19.452 14.354L15.217 20.192C15.1306 20.3086 15.0016 20.3864 14.8582 20.4085C14.7147 20.4306 14.5684 20.3951 14.4509 20.3099C14.3334 20.2247 14.2543 20.0966 14.2307 19.9533C14.2071 19.8101 14.241 19.6634 14.325 19.545L18.56 13.706Z" fill="url(#paint17_radial_211_2)"/>
</g>
<path d="M14.403 10.7241L9.06396 5.38509L12.226 2.22309C12.2817 2.16731 12.3479 2.12305 12.4207 2.09286C12.4935 2.06266 12.5716 2.04712 12.6505 2.04712C12.7293 2.04712 12.8074 2.06266 12.8802 2.09286C12.9531 2.12305 13.0192 2.16731 13.075 2.22309L17.565 6.71309L17.57 6.71909C17.6801 6.83204 17.7414 6.98384 17.7405 7.14162C17.7395 7.2994 17.6765 7.45046 17.565 7.56209L14.403 10.7241Z" fill="url(#paint18_linear_211_2)"/>
<path d="M14.403 10.7241L9.06396 5.38509L12.226 2.22309C12.2817 2.16731 12.3479 2.12305 12.4207 2.09286C12.4935 2.06266 12.5716 2.04712 12.6505 2.04712C12.7293 2.04712 12.8074 2.06266 12.8802 2.09286C12.9531 2.12305 13.0192 2.16731 13.075 2.22309L17.565 6.71309L17.57 6.71909C17.6801 6.83204 17.7414 6.98384 17.7405 7.14162C17.7395 7.2994 17.6765 7.45046 17.565 7.56209L14.403 10.7241Z" fill="url(#paint19_linear_211_2)"/>
<path d="M14.403 10.7241L9.06396 5.38509L12.226 2.22309C12.2817 2.16731 12.3479 2.12305 12.4207 2.09286C12.4935 2.06266 12.5716 2.04712 12.6505 2.04712C12.7293 2.04712 12.8074 2.06266 12.8802 2.09286C12.9531 2.12305 13.0192 2.16731 13.075 2.22309L17.565 6.71309L17.57 6.71909C17.6801 6.83204 17.7414 6.98384 17.7405 7.14162C17.7395 7.2994 17.6765 7.45046 17.565 7.56209L14.403 10.7241Z" fill="url(#paint20_linear_211_2)"/>
<path d="M14.4139 10.714L10.6739 14.453L5.33594 9.113L9.07494 5.375L14.4139 10.714Z" fill="url(#paint21_linear_211_2)"/>
<path d="M14.4139 10.714L10.6739 14.453L5.33594 9.113L9.07494 5.375L14.4139 10.714Z" fill="url(#paint22_linear_211_2)"/>
<path d="M14.4139 10.714L10.6739 14.453L5.33594 9.113L9.07494 5.375L14.4139 10.714Z" fill="url(#paint23_linear_211_2)"/>
<path d="M2.18402 12.266C2.07166 12.3785 2.00854 12.531 2.00854 12.69C2.00854 12.849 2.07166 13.0015 2.18402 13.114L6.67402 17.604C6.72974 17.6598 6.79591 17.7041 6.86875 17.7343C6.94159 17.7645 7.01967 17.78 7.09852 17.78C7.17737 17.78 7.25544 17.7645 7.32828 17.7343C7.40112 17.7041 7.46729 17.6598 7.52302 17.604L10.685 14.442L5.34602 9.10303L2.18402 12.266Z" fill="url(#paint24_linear_211_2)"/>
<path d="M2.18402 12.266C2.07166 12.3785 2.00854 12.531 2.00854 12.69C2.00854 12.849 2.07166 13.0015 2.18402 13.114L6.67402 17.604C6.72974 17.6598 6.79591 17.7041 6.86875 17.7343C6.94159 17.7645 7.01967 17.78 7.09852 17.78C7.17737 17.78 7.25544 17.7645 7.32828 17.7343C7.40112 17.7041 7.46729 17.6598 7.52302 17.604L10.685 14.442L5.34602 9.10303L2.18402 12.266Z" fill="url(#paint25_linear_211_2)"/>
<path d="M2.18402 12.266C2.07166 12.3785 2.00854 12.531 2.00854 12.69C2.00854 12.849 2.07166 13.0015 2.18402 13.114L6.67402 17.604C6.72974 17.6598 6.79591 17.7041 6.86875 17.7343C6.94159 17.7645 7.01967 17.78 7.09852 17.78C7.17737 17.78 7.25544 17.7645 7.32828 17.7343C7.40112 17.7041 7.46729 17.6598 7.52302 17.604L10.685 14.442L5.34602 9.10303L2.18402 12.266Z" fill="url(#paint26_linear_211_2)"/>
<path d="M25.067 21.3501L19.728 16.0101L22.89 12.8481C22.9457 12.7923 23.0119 12.7481 23.0848 12.7179C23.1576 12.6877 23.2357 12.6721 23.3145 12.6721C23.3934 12.6721 23.4715 12.6877 23.5443 12.7179C23.6171 12.7481 23.6833 12.7923 23.739 12.8481L28.229 17.3381L28.234 17.3431C28.3445 17.4561 28.406 17.6081 28.405 17.7661C28.4041 17.9241 28.3408 18.0754 28.229 18.1871L25.067 21.3501Z" fill="url(#paint27_linear_211_2)"/>
<path d="M25.067 21.3501L19.728 16.0101L22.89 12.8481C22.9457 12.7923 23.0119 12.7481 23.0848 12.7179C23.1576 12.6877 23.2357 12.6721 23.3145 12.6721C23.3934 12.6721 23.4715 12.6877 23.5443 12.7179C23.6171 12.7481 23.6833 12.7923 23.739 12.8481L28.229 17.3381L28.234 17.3431C28.3445 17.4561 28.406 17.6081 28.405 17.7661C28.4041 17.9241 28.3408 18.0754 28.229 18.1871L25.067 21.3501Z" fill="url(#paint28_linear_211_2)"/>
<path d="M25.067 21.3501L19.728 16.0101L22.89 12.8481C22.9457 12.7923 23.0119 12.7481 23.0848 12.7179C23.1576 12.6877 23.2357 12.6721 23.3145 12.6721C23.3934 12.6721 23.4715 12.6877 23.5443 12.7179C23.6171 12.7481 23.6833 12.7923 23.739 12.8481L28.229 17.3381L28.234 17.3431C28.3445 17.4561 28.406 17.6081 28.405 17.7661C28.4041 17.9241 28.3408 18.0754 28.229 18.1871L25.067 21.3501Z" fill="url(#paint29_linear_211_2)"/>
<path d="M25.078 21.339L21.338 25.078L16 19.738L19.739 16L25.078 21.339Z" fill="url(#paint30_linear_211_2)"/>
<path d="M25.078 21.339L21.338 25.078L16 19.738L19.739 16L25.078 21.339Z" fill="url(#paint31_linear_211_2)"/>
<path d="M25.078 21.339L21.338 25.078L16 19.738L19.739 16L25.078 21.339Z" fill="url(#paint32_linear_211_2)"/>
<path d="M12.8481 22.89C12.7922 22.9457 12.7478 23.012 12.7175 23.0849C12.6872 23.1578 12.6716 23.236 12.6716 23.315C12.6716 23.394 12.6872 23.4722 12.7175 23.5451C12.7478 23.618 12.7922 23.6843 12.8481 23.74L17.3381 28.23C17.3938 28.2858 17.46 28.33 17.5328 28.3602C17.6057 28.3904 17.6838 28.406 17.7626 28.406C17.8415 28.406 17.9195 28.3904 17.9924 28.3602C18.0652 28.33 18.1314 28.2858 18.1871 28.23L21.3491 25.067L16.0101 19.729L12.8481 22.89Z" fill="url(#paint33_linear_211_2)"/>
<path d="M12.8481 22.89C12.7922 22.9457 12.7478 23.012 12.7175 23.0849C12.6872 23.1578 12.6716 23.236 12.6716 23.315C12.6716 23.394 12.6872 23.4722 12.7175 23.5451C12.7478 23.618 12.7922 23.6843 12.8481 23.74L17.3381 28.23C17.3938 28.2858 17.46 28.33 17.5328 28.3602C17.6057 28.3904 17.6838 28.406 17.7626 28.406C17.8415 28.406 17.9195 28.3904 17.9924 28.3602C18.0652 28.33 18.1314 28.2858 18.1871 28.23L21.3491 25.067L16.0101 19.729L12.8481 22.89Z" fill="url(#paint34_linear_211_2)"/>
<path d="M12.8481 22.89C12.7922 22.9457 12.7478 23.012 12.7175 23.0849C12.6872 23.1578 12.6716 23.236 12.6716 23.315C12.6716 23.394 12.6872 23.4722 12.7175 23.5451C12.7478 23.618 12.7922 23.6843 12.8481 23.74L17.3381 28.23C17.3938 28.2858 17.46 28.33 17.5328 28.3602C17.6057 28.3904 17.6838 28.406 17.7626 28.406C17.8415 28.406 17.9195 28.3904 17.9924 28.3602C18.0652 28.33 18.1314 28.2858 18.1871 28.23L21.3491 25.067L16.0101 19.729L12.8481 22.89Z" fill="url(#paint35_linear_211_2)"/>
<defs>
<filter id="filter0_i_211_2" x="20.3181" y="20.1601" width="9.71982" height="9.71995" filterUnits="userSpaceOnUse" color-interpolation-filters="sRGB">
<feFlood flood-opacity="0" result="BackgroundImageFix"/>
<feBlend mode="normal" in="SourceGraphic" in2="BackgroundImageFix" result="shape"/>
<feColorMatrix in="SourceAlpha" type="matrix" values="0 0 0 0 0 0 0 0 0 0 0 0 0 0 0 0 0 0 127 0" result="hardAlpha"/>
<feOffset dx="0.15" dy="-0.15"/>
<feGaussianBlur stdDeviation="0.25"/>
<feComposite in2="hardAlpha" operator="arithmetic" k2="-1" k3="1"/>
<feColorMatrix type="matrix" values="0 0 0 0 0.407843 0 0 0 0 0.286275 0 0 0 0 0.509804 0 0 0 1 0"/>
<feBlend mode="normal" in2="shape" result="effect1_innerShadow_211_2"/>
</filter>
<filter id="filter1_i_211_2" x="10.9072" y="10.1401" width="5.4335" height="6.93579" filterUnits="userSpaceOnUse" color-interpolation-filters="sRGB">
<feFlood flood-opacity="0" result="BackgroundImageFix"/>
<feBlend mode="normal" in="SourceGraphic" in2="BackgroundImageFix" result="shape"/>
<feColorMatrix in="SourceAlpha" type="matrix" values="0 0 0 0 0 0 0 0 0 0 0 0 0 0 0 0 0 0 127 0" result="hardAlpha"/>
<feOffset dx="0.1"/>
<feGaussianBlur stdDeviation="0.15"/>
<feComposite in2="hardAlpha" operator="arithmetic" k2="-1" k3="1"/>
<feColorMatrix type="matrix" values="0 0 0 0 0.309804 0 0 0 0 0.270588 0 0 0 0 0.34902 0 0 0 1 0"/>
<feBlend mode="normal" in2="shape" result="effect1_innerShadow_211_2"/>
</filter>
<filter id="filter2_i_211_2" x="21.6453" y="20.8453" width="5.43374" height="6.93652" filterUnits="userSpaceOnUse" color-interpolation-filters="sRGB">
<feFlood flood-opacity="0" result="BackgroundImageFix"/>
<feBlend mode="normal" in="SourceGraphic" in2="BackgroundImageFix" result="shape"/>
<feColorMatrix in="SourceAlpha" type="matrix" values="0 0 0 0 0 0 0 0 0 0 0 0 0 0 0 0 0 0 127 0" result="hardAlpha"/>
<feOffset dx="0.1"/>
<feGaussianBlur stdDeviation="0.15"/>
<feComposite in2="hardAlpha" operator="arithmetic" k2="-1" k3="1"/>
<feColorMatrix type="matrix" values="0 0 0 0 0.309804 0 0 0 0 0.270588 0 0 0 0 0.34902 0 0 0 1 0"/>
<feBlend mode="normal" in2="shape" result="effect1_innerShadow_211_2"/>
</filter>
<filter id="filter3_i_211_2" x="12.562" y="11.8064" width="5.43911" height="6.94153" filterUnits="userSpaceOnUse" color-interpolation-filters="sRGB">
<feFlood flood-opacity="0" result="BackgroundImageFix"/>
<feBlend mode="normal" in="SourceGraphic" in2="BackgroundImageFix" result="shape"/>
<feColorMatrix in="SourceAlpha" type="matrix" values="0 0 0 0 0 0 0 0 0 0 0 0 0 0 0 0 0 0 127 0" result="hardAlpha"/>
<feOffset dx="0.1"/>
<feGaussianBlur stdDeviation="0.15"/>
<feComposite in2="hardAlpha" operator="arithmetic" k2="-1" k3="1"/>
<feColorMatrix type="matrix" values="0 0 0 0 0.309804 0 0 0 0 0.270588 0 0 0 0 0.34902 0 0 0 1 0"/>
<feBlend mode="normal" in2="shape" result="effect1_innerShadow_211_2"/>
</filter>
<filter id="filter4_i_211_2" x="23.2979" y="22.5129" width="5.44058" height="6.94543" filterUnits="userSpaceOnUse" color-interpolation-filters="sRGB">
<feFlood flood-opacity="0" result="BackgroundImageFix"/>
<feBlend mode="normal" in="SourceGraphic" in2="BackgroundImageFix" result="shape"/>
<feColorMatrix in="SourceAlpha" type="matrix" values="0 0 0 0 0 0 0 0 0 0 0 0 0 0 0 0 0 0 127 0" result="hardAlpha"/>
<feOffset dx="0.1"/>
<feGaussianBlur stdDeviation="0.15"/>
<feComposite in2="hardAlpha" operator="arithmetic" k2="-1" k3="1"/>
<feColorMatrix type="matrix" values="0 0 0 0 0.309804 0 0 0 0 0.270588 0 0 0 0 0.34902 0 0 0 1 0"/>
<feBlend mode="normal" in2="shape" result="effect1_innerShadow_211_2"/>
</filter>
<filter id="filter5_i_211_2" x="14.2234" y="13.4788" width="5.43398" height="6.93616" filterUnits="userSpaceOnUse" color-interpolation-filters="sRGB">
<feFlood flood-opacity="0" result="BackgroundImageFix"/>
<feBlend mode="normal" in="SourceGraphic" in2="BackgroundImageFix" result="shape"/>
<feColorMatrix in="SourceAlpha" type="matrix" values="0 0 0 0 0 0 0 0 0 0 0 0 0 0 0 0 0 0 127 0" result="hardAlpha"/>
<feOffset dx="0.1"/>
<feGaussianBlur stdDeviation="0.15"/>
<feComposite in2="hardAlpha" operator="arithmetic" k2="-1" k3="1"/>
<feColorMatrix type="matrix" values="0 0 0 0 0.309804 0 0 0 0 0.270588 0 0 0 0 0.34902 0 0 0 1 0"/>
<feBlend mode="normal" in2="shape" result="effect1_innerShadow_211_2"/>
</filter>
<linearGradient id="paint0_linear_211_2" x1="17.7777" y1="14.3639" x2="13.2776" y2="18.7394" gradientUnits="userSpaceOnUse">
<stop offset="0.096" stop-color="#9F9CA1"/>
<stop offset="1" stop-color="#675B74"/>
</linearGradient>
<linearGradient id="paint1_linear_211_2" x1="14.2775" y1="19.3334" x2="14.9648" y2="18.5825" gradientUnits="userSpaceOnUse">
<stop offset="0.103" stop-color="#564964"/>
<stop offset="1" stop-color="#6D6178" stop-opacity="0"/>
</linearGradient>
<linearGradient id="paint2_linear_211_2" x1="20.6209" y1="15.4266" x2="19.9647" y2="16.1139" gradientUnits="userSpaceOnUse">
<stop stop-color="#706F70"/>
<stop offset="1" stop-color="#A09EA2" stop-opacity="0"/>
</linearGradient>
<linearGradient id="paint3_linear_211_2" x1="11.9695" y1="11.9866" x2="14.3086" y2="13.7077" gradientUnits="userSpaceOnUse">
<stop offset="0.326" stop-color="#62566E"/>
<stop offset="1" stop-color="#62566E" stop-opacity="0"/>
</linearGradient>
<linearGradient id="paint4_linear_211_2" x1="27.5901" y1="23.2081" x2="23.2441" y2="27.4551" gradientUnits="userSpaceOnUse">
<stop offset="0.156" stop-color="#9D9AA0"/>
<stop offset="1" stop-color="#675B74"/>
</linearGradient>
<linearGradient id="paint5_linear_211_2" x1="22.5901" y1="23.7081" x2="24.6211" y2="24.8641" gradientUnits="userSpaceOnUse">
<stop offset="0.287" stop-color="#6E607D"/>
<stop offset="1" stop-color="#6E607D" stop-opacity="0"/>
</linearGradient>
<linearGradient id="paint6_linear_211_2" x1="28.8711" y1="23.7701" x2="28.0591" y2="24.5831" gradientUnits="userSpaceOnUse">
<stop stop-color="#6B696F"/>
<stop offset="1" stop-color="#7E7687" stop-opacity="0"/>
</linearGradient>
<radialGradient id="paint7_radial_211_2" cx="0" cy="0" r="1" gradientUnits="userSpaceOnUse" gradientTransform="translate(30.8401 26.1141) rotate(136.548) scale(5.72524 2.2184)">
<stop offset="0.301" stop-color="#6E6A72"/>
<stop offset="1" stop-color="#6E6A72" stop-opacity="0"/>
</radialGradient>
<linearGradient id="paint8_linear_211_2" x1="15.4021" y1="10.958" x2="11.2151" y2="17.076" gradientUnits="userSpaceOnUse">
<stop stop-color="#9C999F"/>
<stop offset="1" stop-color="#746087"/>
</linearGradient>
<radialGradient id="paint9_radial_211_2" cx="0" cy="0" r="1" gradientUnits="userSpaceOnUse" gradientTransform="translate(15.1841 11.74) rotate(127.304) scale(5.77517 0.686534)">
<stop offset="0.208" stop-color="#C6C0CC"/>
<stop offset="1" stop-color="#C6C0CC" stop-opacity="0"/>
</radialGradient>
<linearGradient id="paint10_linear_211_2" x1="26.1369" y1="21.669" x2="21.9489" y2="27.787" gradientUnits="userSpaceOnUse">
<stop stop-color="#9C999F"/>
<stop offset="1" stop-color="#746087"/>
</linearGradient>
<radialGradient id="paint11_radial_211_2" cx="0" cy="0" r="1" gradientUnits="userSpaceOnUse" gradientTransform="translate(25.9179 22.45) rotate(127.304) scale(5.77517 0.686534)">
<stop offset="0.208" stop-color="#C6C0CC"/>
<stop offset="1" stop-color="#C6C0CC" stop-opacity="0"/>
</radialGradient>
<linearGradient id="paint12_linear_211_2" x1="17.0589" y1="12.6301" x2="12.8709" y2="18.7481" gradientUnits="userSpaceOnUse">
<stop stop-color="#9C999F"/>
<stop offset="1" stop-color="#746087"/>
</linearGradient>
<radialGradient id="paint13_radial_211_2" cx="0" cy="0" r="1" gradientUnits="userSpaceOnUse" gradientTransform="translate(16.8399 13.4111) rotate(127.304) scale(5.77517 0.686534)">
<stop offset="0.208" stop-color="#C6C0CC"/>
<stop offset="1" stop-color="#C6C0CC" stop-opacity="0"/>
</radialGradient>
<linearGradient id="paint14_linear_211_2" x1="27.7931" y1="23.3401" x2="23.6061" y2="29.4581" gradientUnits="userSpaceOnUse">
<stop stop-color="#9C999F"/>
<stop offset="1" stop-color="#746087"/>
</linearGradient>
<radialGradient id="paint15_radial_211_2" cx="0" cy="0" r="1" gradientUnits="userSpaceOnUse" gradientTransform="translate(27.5741 24.1221) rotate(127.304) scale(5.77517 0.686534)">
<stop offset="0.208" stop-color="#C6C0CC"/>
<stop offset="1" stop-color="#C6C0CC" stop-opacity="0"/>
</radialGradient>
<linearGradient id="paint16_linear_211_2" x1="18.715" y1="14.302" x2="14.527" y2="20.42" gradientUnits="userSpaceOnUse">
<stop stop-color="#9C999F"/>
<stop offset="1" stop-color="#746087"/>
</linearGradient>
<radialGradient id="paint17_radial_211_2" cx="0" cy="0" r="1" gradientUnits="userSpaceOnUse" gradientTransform="translate(18.496 15.083) rotate(127.304) scale(5.77517 0.686534)">
<stop offset="0.208" stop-color="#C6C0CC"/>
<stop offset="1" stop-color="#C6C0CC" stop-opacity="0"/>
</radialGradient>
<linearGradient id="paint18_linear_211_2" x1="11.896" y1="8.55809" x2="15.959" y2="4.24609" gradientUnits="userSpaceOnUse">
<stop stop-color="#C4C1C7"/>
<stop offset="1" stop-color="#C4C2C6"/>
</linearGradient>
<linearGradient id="paint19_linear_211_2" x1="16.552" y1="8.58909" x2="16.076" y2="8.09709" gradientUnits="userSpaceOnUse">
<stop stop-color="#7A7183"/>
<stop offset="1" stop-color="#AEAAB4" stop-opacity="0"/>
</linearGradient>
<linearGradient id="paint20_linear_211_2" x1="11.162" y1="3.26109" x2="11.574" y2="3.67709" gradientUnits="userSpaceOnUse">
<stop offset="0.15" stop-color="#ABAAAC"/>
<stop offset="1" stop-color="#BFBEC1" stop-opacity="0"/>
</linearGradient>
<linearGradient id="paint21_linear_211_2" x1="11.9339" y1="8.177" x2="8.27694" y2="12.208" gradientUnits="userSpaceOnUse">
<stop stop-color="#B8B0C2"/>
<stop offset="1" stop-color="#A197AC"/>
</linearGradient>
<linearGradient id="paint22_linear_211_2" x1="13.1699" y1="12.219" x2="12.6709" y2="11.704" gradientUnits="userSpaceOnUse">
<stop offset="0.324" stop-color="#847295"/>
<stop offset="1" stop-color="#9E91AD" stop-opacity="0"/>
</linearGradient>
<linearGradient id="paint23_linear_211_2" x1="7.52994" y1="6.645" x2="8.16794" y2="7.239" gradientUnits="userSpaceOnUse">
<stop offset="0.297" stop-color="#A9A7AC"/>
<stop offset="1" stop-color="#ABA2B6" stop-opacity="0"/>
</linearGradient>
<linearGradient id="paint24_linear_211_2" x1="4.84002" y1="15.614" x2="8.90202" y2="11.302" gradientUnits="userSpaceOnUse">
<stop stop-color="#7B7087"/>
<stop offset="1" stop-color="#8A7D98"/>
</linearGradient>
<linearGradient id="paint25_linear_211_2" x1="9.49602" y1="15.645" x2="9.02002" y2="15.153" gradientUnits="userSpaceOnUse">
<stop offset="0.185" stop-color="#5E3D78"/>
<stop offset="1" stop-color="#7C7087" stop-opacity="0"/>
</linearGradient>
<linearGradient id="paint26_linear_211_2" x1="4.10602" y1="10.317" x2="4.59002" y2="10.794" gradientUnits="userSpaceOnUse">
<stop offset="0.297" stop-color="#8B888E"/>
<stop offset="1" stop-color="#7C7087" stop-opacity="0"/>
</linearGradient>
<linearGradient id="paint27_linear_211_2" x1="22.56" y1="19.1831" x2="26.622" y2="14.8711" gradientUnits="userSpaceOnUse">
<stop stop-color="#C4C1C7"/>
<stop offset="1" stop-color="#C4C2C6"/>
</linearGradient>
<linearGradient id="paint28_linear_211_2" x1="27.216" y1="19.2141" x2="26.74" y2="18.7221" gradientUnits="userSpaceOnUse">
<stop stop-color="#7A7183"/>
<stop offset="1" stop-color="#AEAAB4" stop-opacity="0"/>
</linearGradient>
<linearGradient id="paint29_linear_211_2" x1="21.826" y1="13.8861" x2="22.238" y2="14.3021" gradientUnits="userSpaceOnUse">
<stop offset="0.15" stop-color="#ABAAAC"/>
<stop offset="1" stop-color="#BFBEC1" stop-opacity="0"/>
</linearGradient>
<linearGradient id="paint30_linear_211_2" x1="22.598" y1="18.802" x2="18.942" y2="22.833" gradientUnits="userSpaceOnUse">
<stop stop-color="#B8B0C2"/>
<stop offset="1" stop-color="#A197AC"/>
</linearGradient>
<linearGradient id="paint31_linear_211_2" x1="23.834" y1="22.844" x2="23.335" y2="22.329" gradientUnits="userSpaceOnUse">
<stop offset="0.324" stop-color="#847295"/>
<stop offset="1" stop-color="#9E91AD" stop-opacity="0"/>
</linearGradient>
<linearGradient id="paint32_linear_211_2" x1="18.194" y1="17.27" x2="18.832" y2="17.864" gradientUnits="userSpaceOnUse">
<stop offset="0.297" stop-color="#A9A7AC"/>
<stop offset="1" stop-color="#ABA2B6" stop-opacity="0"/>
</linearGradient>
<linearGradient id="paint33_linear_211_2" x1="15.5041" y1="26.239" x2="19.5671" y2="21.927" gradientUnits="userSpaceOnUse">
<stop stop-color="#7B7087"/>
<stop offset="1" stop-color="#8A7D98"/>
</linearGradient>
<linearGradient id="paint34_linear_211_2" x1="20.1601" y1="26.27" x2="19.6841" y2="25.778" gradientUnits="userSpaceOnUse">
<stop offset="0.185" stop-color="#5E3D78"/>
<stop offset="1" stop-color="#7C7087" stop-opacity="0"/>
</linearGradient>
<linearGradient id="paint35_linear_211_2" x1="14.7701" y1="20.942" x2="15.2541" y2="21.419" gradientUnits="userSpaceOnUse">
<stop offset="0.297" stop-color="#8B888E"/>
<stop offset="1" stop-color="#7C7087" stop-opacity="0"/>
</linearGradient>
</defs>
</svg>
