<?xml version="1.0" standalone="no"?>
<!DOCTYPE svg PUBLIC "-//W3C//DTD SVG 20010904//EN"
 "http://www.w3.org/TR/2001/REC-SVG-20010904/DTD/svg10.dtd">
<svg version="1.0" xmlns="http://www.w3.org/2000/svg"
 width="900.000000pt" height="703.000000pt" viewBox="0 0 900.000000 703.000000"
 preserveAspectRatio="xMidYMid meet">

<g transform="translate(0.000000,703.000000) scale(0.100000,-0.100000)"
fill="#000000" stroke="none">
<path d="M5058 6113 c7 -3 16 -2 19 1 4 3 -2 6 -13 5 -11 0 -14 -3 -6 -6z"/>
<path d="M4886 5972 c-3 -6 -1 -14 5 -17 14 -9 20 -2 10 14 -6 8 -11 9 -15 3z"/>
<path d="M4760 5960 c0 -5 5 -10 11 -10 5 0 7 5 4 10 -3 6 -8 10 -11 10 -2 0
-4 -4 -4 -10z"/>
<path d="M4841 5944 c0 -11 3 -14 6 -6 3 7 2 16 -1 19 -3 4 -6 -2 -5 -13z"/>
<path d="M4944 5905 c21 -19 40 -35 44 -35 3 0 -9 16 -28 35 -19 19 -38 35
-43 35 -6 0 7 -16 27 -35z"/>
<path d="M4773 5870 c9 -6 17 -17 17 -24 0 -7 28 -28 63 -45 34 -18 78 -46 99
-62 43 -34 143 -80 154 -71 4 4 4 2 1 -4 -4 -7 5 -14 24 -18 20 -4 28 -10 23
-17 -4 -7 -3 -9 3 -6 5 3 20 -1 32 -10 18 -12 20 -17 10 -25 -10 -7 -6 -8 13
-5 20 3 25 0 20 -11 -4 -11 -1 -14 9 -10 16 6 41 -16 31 -28 -4 -4 -2 -4 4 -1
6 3 18 -3 27 -14 12 -13 13 -19 4 -20 -6 0 0 -5 16 -11 15 -5 25 -14 21 -19
-3 -5 14 -30 38 -54 23 -25 47 -53 52 -63 5 -9 29 -36 53 -60 56 -57 55 -63
-3 -15 -108 89 -269 242 -266 253 1 6 -1 9 -6 6 -5 -3 -20 7 -33 22 -18 20
-19 23 -4 12 18 -14 19 -14 6 2 -7 10 -17 15 -22 13 -4 -3 -29 10 -54 30 -55
42 -65 43 -65 9 0 -14 -4 -23 -9 -19 -5 3 -3 -8 5 -25 9 -16 20 -32 25 -35 5
-4 7 -11 4 -16 -4 -5 1 -9 9 -9 8 0 18 -5 22 -12 5 -7 2 -8 -7 -3 -21 12 -5
-3 111 -102 152 -130 409 -401 395 -415 -3 -3 4 -13 15 -23 11 -10 20 -24 20
-31 0 -7 6 -15 13 -17 7 -3 6 -6 -5 -6 -9 -1 -20 4 -23 9 -3 6 -11 10 -16 10
-6 0 -7 -6 -3 -12 5 -8 1 -7 -10 1 -10 8 -27 34 -37 56 -61 130 -393 470 -524
538 -31 16 -84 13 -96 -6 -15 -23 13 -64 59 -88 53 -27 71 -30 91 -15 12 9 13
6 7 -17 -4 -19 -3 -26 4 -22 5 3 10 2 10 -3 0 -5 12 -9 28 -10 43 0 49 -3 27
-12 -18 -8 -17 -9 8 -9 15 -1 27 -6 27 -12 0 -17 77 -98 85 -91 4 4 5 2 4 -3
-2 -6 5 -25 15 -43 17 -32 17 -34 -1 -47 -19 -14 -53 -4 -53 17 0 6 -3 9 -6 5
-9 -9 19 -67 33 -67 6 0 15 -5 19 -12 4 -7 3 -8 -5 -4 -6 4 -19 2 -27 -5 -12
-10 -13 -9 -8 6 6 15 4 16 -14 6 -27 -14 -35 -14 -26 1 4 7 3 8 -4 4 -9 -5 -9
-13 -2 -26 23 -42 2 -66 -27 -30 -10 12 -11 11 -6 -9 5 -19 3 -23 -10 -18 -9
3 -18 0 -21 -8 -3 -8 -12 -12 -21 -9 -11 5 -14 2 -8 -12 6 -18 5 -18 -16 0
-12 11 -32 21 -44 23 -11 2 -25 9 -29 16 -4 6 -8 8 -8 3 0 -5 12 -22 27 -37
21 -21 28 -37 28 -72 1 -36 -2 -44 -14 -40 -11 3 -10 0 3 -11 11 -9 17 -18 14
-21 -3 -3 -18 5 -34 18 -29 24 -64 32 -64 14 0 -5 7 -6 16 -3 14 5 15 4 4 -9
-7 -8 -18 -15 -26 -15 -15 0 -28 -35 -19 -50 11 -18 -15 -11 -37 10 -12 11
-26 20 -32 20 -5 0 0 -9 12 -21 12 -11 20 -25 16 -31 -4 -7 -10 -5 -15 3 -6 9
-8 4 -5 -15 7 -38 -1 -48 -25 -36 -14 8 -19 7 -19 -2 0 -9 -3 -9 -10 2 -8 13
-10 12 -10 -3 0 -10 -4 -15 -10 -12 -5 3 -10 -1 -10 -9 0 -8 -10 -18 -22 -22
l-21 -6 22 -12 c12 -7 18 -15 15 -19 -4 -4 -1 -7 6 -7 7 0 10 -3 7 -6 -4 -4
-21 4 -39 18 -18 13 -40 28 -48 33 -13 8 -13 7 0 -11 8 -10 22 -24 30 -31 13
-11 13 -12 -2 -13 -10 0 -18 -2 -18 -5 0 -11 49 -52 56 -46 4 3 5 0 2 -8 -6
-22 -21 -23 -43 -5 -11 8 -14 13 -7 9 6 -3 12 -1 12 6 0 7 -10 9 -25 7 -14 -3
-25 -1 -25 3 0 17 -19 9 -25 -11 -4 -11 -11 -18 -16 -14 -6 3 -16 0 -24 -6 -8
-7 -21 -10 -29 -7 -8 3 -17 -1 -20 -9 -5 -12 -19 -5 -63 32 l-58 47 54 -52
c41 -39 57 -49 67 -40 15 12 30 6 44 -21 8 -15 7 -17 -10 -13 -11 3 -20 10
-20 16 0 6 -8 4 -17 -6 -13 -13 -14 -20 -5 -29 7 -7 12 -18 12 -26 0 -8 10
-22 22 -31 15 -12 18 -20 10 -25 -7 -4 -12 -1 -12 8 0 10 -6 13 -15 10 -8 -4
-15 -2 -15 4 0 9 -31 23 -57 26 -6 1 -20 9 -30 19 -30 26 -39 20 -13 -8 13
-14 30 -23 37 -21 7 3 15 0 19 -6 4 -7 3 -8 -4 -4 -7 4 -12 2 -12 -4 0 -7 -8
-9 -21 -5 -14 5 -19 3 -15 -3 3 -6 -4 -14 -15 -17 -20 -7 -20 -8 -6 -17 18
-10 23 -38 7 -38 -5 0 -6 7 -3 17 4 11 3 14 -6 9 -7 -5 -21 0 -33 11 -20 16
-21 17 -15 1 4 -12 1 -18 -8 -18 -8 0 -15 -5 -15 -11 0 -6 7 -8 15 -5 9 3 18
-1 22 -10 3 -8 11 -13 17 -11 7 3 12 -3 12 -13 0 -10 -5 -16 -10 -13 -5 4 -7
-1 -3 -10 7 -20 3 -21 -24 -6 -11 5 -16 15 -13 21 4 7 3 8 -5 4 -6 -4 -9 -11
-6 -16 7 -11 -22 -7 -32 5 -4 4 -1 5 7 0 12 -6 13 -5 3 5 -7 8 -22 14 -33 15
-20 2 -20 1 2 -23 l23 -24 -24 7 c-19 6 -23 4 -18 -8 4 -12 2 -14 -10 -10 -12
5 -14 3 -7 -8 13 -21 15 -49 4 -49 -6 0 -10 5 -10 10 0 6 -5 10 -11 10 -6 0
-9 -7 -5 -15 3 -8 1 -15 -4 -15 -15 0 -12 -38 3 -43 6 -3 -7 -5 -31 -5 -27 0
-52 8 -70 21 l-27 21 23 -25 22 -26 -25 -13 c-41 -22 -82 -17 -115 15 -17 16
-30 26 -30 22 0 -3 15 -20 33 -37 25 -24 39 -30 64 -26 21 2 30 0 26 -7 -3 -5
2 -16 12 -24 22 -16 12 -17 -16 -2 -15 7 -24 7 -35 -2 -17 -14 -18 -39 -1 -39
7 0 13 -9 13 -19 0 -15 -6 -18 -26 -16 -14 2 -26 4 -27 6 -2 1 -7 2 -12 3 -6
0 -16 7 -22 14 -28 27 -31 10 -4 -18 30 -31 28 -38 -7 -19 -15 8 -19 8 -14 0
6 -10 -13 -16 -36 -12 -13 2 -9 -6 9 -20 15 -12 16 -12 8 1 -4 8 -4 12 0 7 5
-4 10 -17 12 -28 3 -19 2 -19 -27 2 -16 12 -27 26 -24 31 3 4 -2 8 -10 8 -10
0 -13 -6 -10 -15 4 -8 10 -15 15 -15 14 0 10 -53 -5 -72 -11 -15 -15 -16 -33
-3 -11 8 -23 11 -27 8 -3 -3 -16 2 -28 13 l-23 19 23 -26 c25 -29 29 -44 8
-36 -8 3 -19 -5 -27 -19 -11 -21 -11 -27 1 -34 8 -5 11 -12 7 -16 -4 -4 -15 0
-25 9 -23 21 -39 22 -22 2 7 -8 9 -15 4 -15 -5 0 0 -8 11 -16 19 -15 19 -15
-7 -9 -18 5 -28 3 -28 -4 0 -10 14 -15 33 -12 14 2 7 -14 -13 -27 -12 -7 -20
-8 -20 -2 0 5 -11 10 -24 10 -14 0 -28 4 -31 10 -3 5 -16 15 -28 21 -16 8 -12
1 13 -26 28 -30 30 -35 12 -25 -13 6 -25 10 -26 8 -22 -26 -23 -44 -4 -60 20
-17 20 -18 -19 -14 -28 2 -40 -1 -40 -10 0 -8 4 -14 8 -14 5 0 5 -7 2 -17 -5
-12 -3 -14 7 -8 9 5 11 4 6 -3 -9 -15 -12 -15 -30 3 -12 13 -20 14 -36 5 -11
-6 -26 -8 -33 -4 -8 5 -7 2 2 -9 12 -15 11 -17 -3 -17 -25 0 -43 -59 -22 -72
8 -5 7 -8 -2 -8 -6 0 -22 11 -34 25 -12 14 -26 25 -32 25 -6 0 -5 -5 2 -12 14
-14 16 -32 3 -23 -5 3 -13 0 -16 -6 -4 -6 2 -13 14 -16 23 -6 26 -19 11 -43
-9 -13 -10 -13 -10 1 0 11 -11 15 -46 15 -25 1 -40 -3 -33 -7 7 -4 17 -5 23
-2 5 4 6 1 2 -6 -5 -7 -1 -18 10 -25 10 -8 13 -15 7 -19 -6 -4 -16 0 -23 8
-15 18 -31 20 -28 3 2 -7 -3 -13 -9 -14 -7 -1 -16 -2 -19 -3 -4 0 -1 -8 6 -16
21 -25 -4 -17 -49 17 -35 25 -41 27 -30 10 8 -12 19 -22 25 -22 17 0 25 -28
11 -34 -7 -2 -2 -8 11 -12 l23 -7 -22 -23 c-17 -18 -25 -21 -36 -12 -19 15
-70 21 -54 5 16 -16 14 -30 -4 -23 -8 3 -21 -4 -29 -15 -9 -14 -23 -20 -42
-18 -16 1 -39 1 -52 1 -19 -2 -21 -4 -10 -21 10 -16 8 -26 -7 -55 -11 -20 -24
-35 -30 -32 -12 4 -36 -19 -28 -28 4 -3 1 -6 -5 -6 -6 0 -9 -6 -6 -14 4 -10
-1 -14 -15 -13 -11 0 -18 3 -16 5 4 5 -20 32 -29 32 -3 0 -3 -7 0 -15 9 -23
-5 -38 -24 -23 -13 12 -14 10 -4 -9 17 -30 15 -46 -4 -39 -8 3 -12 2 -9 -4 9
-14 -8 -12 -25 3 -8 6 -5 0 8 -14 27 -31 28 -43 2 -29 -16 9 -20 8 -20 -5 0
-9 -4 -13 -10 -10 -13 8 -13 -11 0 -36 9 -16 7 -19 -11 -19 -15 0 -19 4 -15
16 3 8 2 12 -3 9 -5 -3 -13 0 -16 6 -4 5 -14 8 -22 5 -8 -3 -12 -2 -9 3 3 4
-4 17 -17 27 l-22 19 19 -22 c11 -13 15 -23 10 -23 -5 0 -10 -9 -10 -20 0 -11
6 -20 13 -20 7 0 13 -4 13 -9 0 -16 -41 -40 -59 -34 -13 5 -12 2 4 -17 l20
-23 -20 5 c-28 7 -48 -17 -41 -48 7 -26 -8 -33 -21 -10 -7 11 -63 29 -63 20 0
-1 4 -14 9 -28 10 -26 -8 -54 -28 -42 -16 10 -24 -14 -9 -31 11 -15 11 -16 -6
-10 -13 5 -24 0 -37 -14 -18 -21 -18 -23 -3 -41 10 -10 15 -18 12 -18 -15 0
-68 23 -68 29 0 4 -7 8 -15 8 -9 0 -14 -6 -11 -14 3 -7 0 -13 -6 -13 -6 0 -4
-8 5 -18 27 -30 21 -42 -20 -36 -30 3 -35 2 -25 -8 13 -13 16 -29 5 -27 -25 4
-43 -3 -43 -16 0 -20 -26 -30 -43 -18 -25 19 -52 13 -53 -13 -1 -13 2 -24 6
-24 4 0 10 -9 13 -20 5 -18 2 -20 -24 -16 -28 4 -39 -7 -19 -19 14 -9 12 -26
-2 -24 -32 4 -45 -2 -43 -21 1 -11 7 -26 13 -32 7 -7 12 -15 12 -20 0 -8 -68
29 -88 49 -16 15 -26 17 -18 4 4 -5 2 -11 -4 -13 -12 -4 10 -58 23 -58 5 0 5
-5 2 -10 -4 -6 -15 -8 -26 -5 -10 4 -19 2 -19 -4 0 -14 -41 -51 -51 -46 -12 8
-4 -21 10 -39 8 -9 12 -18 9 -21 -5 -6 -112 69 -152 106 -17 15 -32 26 -34 24
-4 -4 75 -78 89 -83 5 -2 13 -12 19 -21 6 -13 5 -18 -6 -18 -7 0 -14 5 -14 11
0 6 -4 6 -11 -1 -9 -9 -7 -16 6 -29 17 -17 17 -18 -10 -26 -16 -4 -33 -4 -39
-1 -6 4 -2 -3 8 -15 16 -18 16 -22 4 -22 -9 0 -21 -7 -29 -16 -10 -13 -10 -17
2 -25 8 -5 9 -9 3 -9 -6 0 -17 7 -24 15 -7 8 -18 15 -26 15 -7 0 -16 9 -19 20
-3 11 -10 20 -15 20 -5 0 -25 15 -45 34 -20 19 -51 46 -68 60 -18 14 -54 46
-82 71 -43 40 -45 44 -14 23 21 -12 50 -33 67 -45 24 -19 31 -20 35 -8 9 22
-116 105 -156 105 -7 0 -6 -4 3 -10 8 -5 12 -12 8 -15 -3 -3 -21 3 -39 14 -41
25 -45 25 -53 6 -4 -13 28 -60 37 -53 5 5 68 -48 82 -69 23 -34 5 -28 -44 17
-52 47 -68 49 -81 14 -6 -14 -14 -23 -19 -20 -5 4 -12 -8 -16 -26 -4 -18 -16
-48 -26 -66 l-19 -33 32 -39 c17 -22 59 -63 92 -91 l61 -51 -59 56 c-64 62
-69 84 -8 42 21 -14 41 -26 45 -26 5 0 18 -9 30 -20 12 -11 27 -18 35 -15 8 3
12 0 9 -7 -2 -7 6 -24 18 -38 12 -14 31 -38 41 -55 17 -27 18 -29 1 -22 -33
12 -17 -8 64 -83 45 -41 89 -83 98 -93 24 -27 69 -49 76 -37 3 6 0 10 -8 10
-16 0 -37 36 -41 72 -2 14 -13 39 -24 56 -12 16 -22 35 -22 42 0 6 -12 27 -26
46 -54 71 -12 43 93 -63 151 -150 165 -161 116 -88 -23 33 -89 111 -148 173
-83 87 -110 110 -121 102 -9 -9 -15 -6 -24 10 -11 20 -10 21 9 10 12 -6 21 -7
21 -3 0 3 12 -5 27 -19 16 -14 55 -45 87 -69 33 -24 77 -61 97 -81 37 -38 59
-48 59 -27 0 12 -75 103 -132 161 -21 20 -38 40 -38 43 0 16 29 -4 130 -90 61
-52 116 -95 121 -95 5 0 9 -7 9 -15 0 -8 9 -19 20 -25 11 -6 19 -14 16 -18 -2
-4 7 -8 20 -8 15 -1 21 2 17 10 -4 6 1 5 11 -3 11 -9 13 -17 6 -21 -6 -4 -2
-14 12 -26 19 -16 20 -16 9 -1 -8 9 -11 20 -8 23 5 6 48 -38 69 -70 4 -6 9 -8
12 -5 3 2 -10 24 -29 48 -19 23 -37 53 -41 64 -3 12 -18 37 -31 55 -26 35 -26
54 0 27 9 -8 20 -15 25 -15 5 0 30 -24 56 -52 26 -29 54 -61 63 -70 14 -15 55
-16 72 -2 5 5 -68 104 -113 152 -41 43 -61 72 -51 72 7 0 155 -148 155 -156 0
-10 52 -73 58 -71 4 1 8 -2 9 -6 1 -5 13 -19 27 -32 14 -13 26 -27 26 -30 0
-4 7 -14 16 -22 13 -13 13 -17 2 -24 -9 -6 -25 5 -53 37 l-40 46 -39 -16 c-33
-14 -38 -20 -34 -41 6 -30 -3 -32 -27 -5 -19 21 -41 28 -29 8 5 -8 2 -9 -10
-5 -20 8 -17 2 32 -62 40 -53 40 -87 0 -85 -15 1 -25 -3 -22 -7 12 -20 -40 -7
-72 18 l-35 26 6 -26 c6 -21 4 -27 -10 -27 -14 0 -16 -6 -11 -27 4 -18 3 -23
-2 -15 -8 11 -11 11 -23 0 -8 -7 -18 -13 -24 -14 -40 -3 -73 -18 -68 -30 13
-35 -26 2 -70 66 -26 39 -52 70 -58 70 -5 0 -9 6 -9 13 0 8 -12 24 -27 38 -14
13 -23 18 -19 12 5 -9 0 -13 -13 -13 -12 0 -21 5 -21 12 0 6 -3 8 -7 5 -3 -4
-12 -2 -19 4 -8 6 -21 9 -29 5 -8 -3 -15 -1 -15 4 0 5 -9 8 -20 7 -11 -1 -20
-5 -20 -10 0 -5 -8 -3 -17 4 -15 12 -16 12 -8 -1 5 -8 22 -31 37 -51 24 -30
27 -40 19 -61 -5 -14 -17 -28 -25 -31 -26 -10 -18 -43 17 -71 17 -15 37 -31
44 -36 42 -34 111 -70 146 -75 23 -4 58 -13 77 -20 123 -45 153 -48 236 -30
44 9 111 28 149 42 39 13 95 30 127 38 31 8 80 25 110 39 49 22 70 31 183 73
67 26 87 37 116 66 16 16 38 27 54 27 36 0 67 38 53 64 -8 14 -6 21 6 28 22
12 21 64 -1 73 -28 12 -135 14 -155 4 -12 -6 -25 -6 -38 1 -16 9 -20 8 -20 -5
0 -11 -11 -15 -45 -15 -25 0 -45 -4 -45 -10 0 -25 -17 -7 -18 19 0 16 -8 50
-16 75 -14 41 -22 106 -13 106 2 0 37 -11 78 -25 l74 -26 17 21 c15 19 15 25
2 68 -30 97 -30 102 4 102 17 0 51 -9 77 -20 35 -15 51 -17 66 -10 23 13 24
34 4 90 -8 23 -15 53 -15 66 0 30 29 32 101 5 28 -11 57 -17 65 -14 22 8 27
47 11 86 -9 20 -17 48 -19 64 -4 37 18 41 92 14 86 -32 115 -10 86 65 -9 22
-17 53 -18 69 -3 26 0 30 25 33 16 2 34 -1 40 -6 21 -16 83 -33 100 -26 26 10
27 30 6 94 -12 33 -18 67 -15 75 8 22 50 18 104 -9 35 -18 52 -22 65 -15 21
12 21 34 0 109 -12 44 -13 64 -5 72 18 18 62 12 87 -12 13 -12 28 -19 33 -16
6 3 12 1 14 -6 6 -16 37 -3 45 18 3 10 -1 44 -9 76 -27 98 -5 123 75 88 57
-26 62 -45 10 -37 -26 5 -33 3 -23 -3 8 -5 25 -10 37 -10 12 0 23 -4 25 -8 2
-4 43 -28 91 -52 49 -24 101 -59 117 -77 17 -19 39 -33 52 -33 13 -1 -46 -19
-130 -40 -227 -58 -437 -166 -637 -328 -106 -86 -244 -229 -251 -261 -3 -14
-10 -36 -15 -49 -17 -43 -5 -442 17 -545 l6 -27 101 5 c119 6 199 22 210 42
12 19 24 8 52 -48 27 -53 39 -63 30 -26 -3 12 -1 29 4 37 9 12 14 11 38 -11
33 -31 82 -49 132 -49 32 -1 34 -2 18 -14 -11 -9 -44 -13 -96 -12 -62 1 -77
-2 -69 -11 25 -30 84 -37 165 -19 43 10 87 21 98 26 18 8 17 9 -8 9 -61 2 -77
27 -49 78 21 38 -1 63 -62 70 -16 2 -37 10 -46 18 -9 8 -24 15 -34 15 -18 0
-65 47 -66 67 0 6 -15 22 -32 35 -75 53 -125 103 -159 160 -13 22 -31 48 -40
58 -9 9 -19 29 -22 42 -7 27 -43 43 -72 32 -9 -4 -21 1 -29 11 -15 21 -1 62
26 70 19 7 49 53 94 145 17 37 42 73 55 82 13 8 36 28 52 43 20 21 27 24 27
11 0 -16 11 -21 23 -9 4 3 1 13 -6 21 -9 12 -9 14 0 9 7 -5 24 0 38 9 14 9 39
17 56 16 26 -1 29 2 27 29 -1 16 -8 29 -15 29 -18 0 -16 10 5 26 25 19 30 17
24 -11 -4 -21 -1 -24 14 -19 16 6 17 5 7 -7 -17 -18 -16 -29 2 -29 8 0 15 -5
15 -11 0 -6 -7 -9 -15 -5 -9 3 -15 0 -15 -9 0 -9 -10 -15 -24 -15 -13 0 -37
-7 -52 -15 -18 -9 -23 -15 -12 -15 9 0 20 5 23 10 3 6 13 10 22 10 11 0 14 -6
9 -24 -6 -24 -5 -24 26 -15 18 5 41 18 53 30 l20 21 -24 -7 c-17 -5 -22 -4
-19 6 3 8 12 13 20 13 10 -1 13 6 10 22 -2 14 0 24 7 24 7 0 10 -4 7 -9 -3 -5
3 -11 14 -14 11 -3 18 -2 15 3 -3 4 2 13 10 20 8 7 15 18 15 24 0 6 9 17 20
24 23 14 25 10 8 -18 -19 -31 -1 -35 45 -11 80 42 108 59 108 68 0 4 7 7 15 7
8 -1 14 0 14 2 0 9 -25 49 -35 56 -5 4 0 8 13 8 19 0 22 -4 17 -20 -4 -11 -2
-20 4 -20 6 0 11 6 11 13 0 9 3 8 9 -2 6 -9 11 -10 15 -2 4 6 12 11 19 11 6 0
2 -6 -8 -14 -11 -8 -23 -12 -27 -10 -4 3 -5 -2 -2 -10 3 -9 7 -16 8 -16 0 0
41 14 91 30 83 29 286 61 343 55 12 -1 22 3 22 9 0 7 3 7 8 -1 5 -8 43 -12
107 -14 131 -2 209 -14 325 -51 144 -44 265 -106 343 -175 46 -40 102 -145
111 -205 5 -32 12 -48 22 -48 21 0 17 -17 -6 -23 -15 -4 -19 -12 -17 -42 2
-20 7 -39 13 -43 7 -5 6 -15 -2 -32 -11 -21 -14 -22 -20 -7 -7 19 -24 13 -24
-9 0 -18 61 -19 78 -2 10 10 18 7 38 -15 13 -15 28 -27 32 -27 20 0 52 34 63
68 6 20 16 42 20 48 12 15 0 44 -28 69 -13 11 -25 30 -28 43 -2 13 -14 39 -26
59 l-22 35 22 -14 c12 -7 29 -32 37 -55 19 -49 40 -55 55 -16 7 19 13 23 21
15 16 -16 -9 -157 -38 -211 -13 -24 -24 -49 -24 -55 0 -20 -41 -90 -73 -124
-17 -18 -90 -67 -162 -110 -145 -86 -178 -102 -207 -102 -12 0 -35 -16 -54
-35 -36 -38 -49 -43 -61 -20 -7 12 -17 12 -73 -2 -36 -9 -83 -20 -105 -26 -36
-8 -38 -11 -21 -21 11 -6 28 -20 40 -31 11 -11 34 -25 51 -31 34 -12 44 -43
21 -67 -22 -21 -20 -33 6 -51 15 -11 34 -14 62 -10 34 6 56 21 136 99 108 105
311 268 385 310 28 16 59 36 70 46 42 36 155 98 210 115 56 18 57 18 68 -1 15
-27 19 -125 5 -125 -11 0 -10 -16 10 -222 8 -78 22 -117 22 -60 0 18 2 32 4
32 2 0 57 -23 122 -51 441 -189 709 -218 859 -92 18 16 63 53 101 83 111 90
234 218 234 244 0 7 -3 16 -7 20 -14 14 -11 81 3 96 39 41 83 109 74 115 -5 3
-15 3 -20 0 -11 -7 -33 40 -32 67 1 24 -14 31 -38 18 -15 -8 -20 -8 -20 2 0 7
-11 18 -25 25 -21 9 -30 7 -62 -14 -49 -32 -180 -160 -198 -193 -8 -14 -26
-38 -41 -55 -14 -16 -38 -46 -53 -65 -14 -19 -28 -37 -31 -40 -3 -3 -21 -25
-40 -50 -19 -25 -41 -53 -51 -62 -9 -9 -42 -52 -73 -96 l-56 -80 -59 3 c-32 1
-67 8 -79 14 -11 6 -30 11 -40 11 -36 0 -369 116 -360 126 2 2 32 -5 67 -16
42 -12 61 -15 58 -7 -2 7 -17 15 -33 18 -16 4 18 5 75 3 57 -2 106 -6 109 -9
3 -3 -2 -5 -11 -5 -9 0 -17 -5 -17 -10 0 -13 124 -3 128 11 2 5 8 7 13 3 5 -3
19 2 31 10 12 9 29 16 36 16 34 0 192 164 192 199 0 6 11 26 24 45 13 19 26
58 30 85 4 28 9 58 12 66 4 8 1 15 -5 15 -6 0 -11 -7 -11 -15 0 -18 -26 -20
-32 -2 -6 14 -1 105 6 124 3 7 15 13 26 13 14 0 20 7 21 23 2 41 -3 61 -19 73
-13 9 -14 16 -4 40 10 24 9 38 -7 82 -11 30 -17 60 -14 68 3 10 0 12 -10 8
-20 -7 -33 32 -17 51 7 9 8 24 2 46 -7 30 -13 34 -45 37 -24 1 -37 -2 -38 -10
0 -7 -4 -3 -9 10 -6 14 -18 22 -33 22 -18 0 -28 8 -38 33 -7 17 -35 68 -61
112 -46 77 -64 131 -35 107 7 -6 23 -9 35 -5 12 3 41 2 65 -1 42 -7 45 -10 87
-84 86 -155 105 -182 171 -253 37 -40 66 -75 64 -79 -2 -3 15 -23 37 -45 22
-22 54 -60 70 -85 48 -71 62 -79 132 -73 46 4 77 14 125 42 65 37 76 44 151
96 23 17 51 35 61 41 11 6 27 18 37 27 10 10 24 17 31 17 13 0 71 50 125 108
25 27 30 39 28 75 -5 69 -79 342 -118 432 -71 164 -142 314 -185 389 -81 144
-183 275 -214 276 -6 0 -16 -9 -22 -20 -7 -10 -28 -22 -47 -26 -20 -3 -38 -14
-41 -23 -5 -14 -68 -55 -209 -134 -28 -16 -60 -37 -71 -46 -11 -9 -39 -30 -62
-45 -24 -16 -43 -32 -43 -36 0 -16 -34 -20 -42 -5 -10 17 -26 19 -46 6 -12 -7
-11 -14 2 -39 9 -17 16 -38 16 -47 0 -23 -35 -18 -67 9 -16 14 -60 37 -99 51
-38 15 -77 31 -86 36 -10 5 -25 9 -35 9 -19 0 -144 48 -158 61 -5 5 -16 9 -24
9 -13 0 -103 39 -141 61 -8 5 -22 12 -30 15 -41 16 -68 30 -96 50 -17 13 -43
26 -57 29 -15 4 -29 15 -32 25 -3 11 -15 22 -26 25 -11 4 -52 29 -91 56 -39
27 -80 49 -91 49 -26 0 -16 22 19 40 16 8 32 19 35 24 4 4 9 3 13 -2 3 -6 1
-14 -5 -18 -7 -4 8 -14 36 -25 27 -10 52 -16 57 -13 4 3 8 1 8 -3 0 -14 139
-76 158 -70 9 3 26 8 37 12 18 6 19 6 2 -5 -14 -9 -16 -15 -6 -26 6 -8 20 -14
31 -14 11 0 32 -6 46 -14 56 -29 111 -48 121 -42 6 4 11 2 11 -4 0 -6 17 -9
45 -6 26 2 45 0 45 -6 0 -11 60 -7 95 6 19 7 19 7 3 -7 -17 -14 -25 -37 -12
-37 3 0 16 8 29 19 18 13 21 21 13 29 -17 17 -3 25 20 11 16 -10 24 -9 48 8
16 12 38 31 49 43 l20 23 -22 -7 c-45 -14 -22 13 36 44 50 27 84 64 83 90 0 3
5 12 12 20 7 8 25 37 40 63 25 44 26 48 8 38 -32 -17 -33 -13 -7 14 38 38 32
61 -21 85 -26 11 -57 20 -70 20 -31 0 -37 27 -25 97 6 31 11 58 11 60 0 2 5 3
10 3 6 0 10 -6 9 -12 -4 -32 1 -38 27 -32 24 6 26 4 20 -17 -3 -13 -3 -18 0
-11 3 6 15 12 27 11 12 0 16 -3 10 -6 -26 -10 -12 -20 32 -21 36 -2 43 1 39
13 -4 8 -11 15 -17 15 -6 0 -8 2 -5 5 7 8 39 -6 34 -14 -8 -12 8 -28 36 -35
23 -5 26 -4 21 11 -6 17 -6 17 10 1 21 -21 21 -25 0 -31 -14 -4 -12 -5 5 -6
12 0 22 3 22 8 0 15 49 19 67 5 16 -11 13 -12 -20 -9 -20 2 -37 0 -37 -6 0 -5
12 -10 28 -10 15 -1 44 -3 64 -4 35 -1 68 -15 38 -15 -17 0 -4 -13 15 -16 8
-1 15 3 15 9 0 7 5 6 10 -3 9 -13 11 -13 20 0 8 12 10 12 10 1 0 -10 10 -12
44 -8 32 5 45 3 49 -7 4 -11 -4 -13 -34 -10 -22 2 -38 0 -35 -5 3 -4 22 -7 43
-6 29 1 38 5 37 18 -1 9 2 17 7 17 5 0 10 -12 10 -27 1 -16 3 -44 5 -63 2 -19
5 -73 7 -120 2 -84 9 -110 28 -110 5 0 9 6 8 13 -4 33 1 41 15 21 11 -15 12
-22 3 -33 -10 -12 -9 -13 2 -6 11 6 13 4 8 -9 -6 -14 -3 -15 13 -6 22 12 27
31 8 26 -7 -1 -9 -1 -5 2 4 2 2 11 -5 20 -10 12 -10 14 0 8 6 -4 12 -3 12 3 0
5 -12 14 -27 19 -25 9 -23 10 23 11 l51 1 11 43 c5 23 18 78 28 122 9 44 24
105 32 135 8 30 14 63 14 72 -1 10 3 20 9 23 5 4 9 14 9 23 0 10 13 50 28 90
19 49 26 85 24 109 l-5 37 -20 -42 c-23 -50 -29 -50 -18 0 7 28 5 38 -6 42 -9
4 -11 2 -7 -6 5 -7 3 -8 -5 -4 -7 5 -18 0 -26 -10 -7 -11 -17 -16 -21 -11 -4
4 -1 13 8 20 16 13 84 112 107 155 8 15 18 29 23 30 4 2 8 14 8 26 0 12 7 31
15 42 23 30 19 52 -5 26 -11 -12 -20 -30 -20 -42 0 -11 -6 -23 -14 -26 -7 -3
-13 -16 -13 -30 0 -13 -10 -33 -22 -43 -11 -10 -21 -25 -21 -32 0 -8 -18 -32
-40 -53 -22 -22 -40 -43 -40 -47 0 -4 -43 -50 -96 -103 -53 -53 -93 -96 -89
-96 3 0 0 -6 -7 -13 -13 -14 -69 -17 -78 -5 -6 7 -55 14 -160 23 -36 3 -100
10 -143 16 -43 6 -104 9 -135 8 -32 -1 -67 3 -79 9 -12 7 -29 12 -38 12 -9 0
-14 4 -11 8 6 10 146 15 146 5 0 -10 206 -11 216 0 12 12 26 8 18 -5 -6 -10
-4 -10 6 -1 12 11 11 15 -6 27 -18 14 -18 15 5 9 22 -5 23 -3 19 20 -3 15 -2
27 1 27 4 0 5 19 3 41 -3 28 -7 37 -13 28 -15 -23 -10 0 6 31 19 37 14 141
-13 256 -13 57 -16 87 -9 99 21 39 -21 229 -48 219 -8 -4 -15 -1 -15 5 0 6 7
11 16 11 8 0 13 4 9 10 -8 13 -35 1 -35 -17 0 -8 -6 -13 -12 -10 -7 2 -12 10
-10 16 1 7 -2 10 -8 6 -6 -3 -8 -10 -5 -15 3 -4 -1 -8 -8 -7 -28 1 -47 -3 -45
-10 3 -8 -29 -58 -36 -58 -12 0 -34 29 -29 39 4 6 -1 5 -10 -3 -15 -12 -22
-12 -45 -1 -15 7 -36 13 -47 12 -20 -2 -20 -2 0 7 19 8 19 8 -2 20 -19 9 -22
9 -17 -2 5 -15 -20 -47 -37 -47 -6 0 -3 7 5 16 9 8 16 18 16 21 0 3 -31 -22
-69 -56 -37 -33 -71 -58 -74 -54 -4 3 -15 0 -24 -7 -10 -7 43 47 117 120 74
73 128 129 120 124 -15 -7 -59 -45 -88 -76 -9 -10 -22 -18 -29 -18 -7 0 -13
-4 -13 -9 0 -5 -9 -13 -20 -16 -11 -3 -20 -14 -20 -22 0 -9 -3 -13 -7 -10 -3
4 -15 -1 -25 -10 -23 -20 -88 -44 -88 -32 0 13 -28 -1 -34 -16 -3 -9 0 -12 10
-8 10 4 12 0 8 -11 -7 -18 -20 -21 -29 -6 -10 16 -23 12 -36 -11 -8 -15 -8
-19 0 -15 14 9 14 4 -1 -31 -6 -15 -12 -31 -12 -35 -1 -3 -4 -9 -8 -13 -9 -9
-5 17 6 33 13 21 -2 27 -22 9 -21 -19 -42 -23 -24 -5 17 17 15 33 -3 18 -12
-10 -16 -8 -24 11 -5 13 -7 27 -4 32 2 4 -3 10 -11 13 -23 9 -19 29 9 48 14 9
25 21 25 28 0 6 -12 -1 -26 -15 -28 -29 -50 -26 -60 6 -4 12 -17 36 -29 52
-39 53 -96 169 -91 187 2 10 0 18 -6 18 -5 0 -6 5 -3 10 4 6 10 8 14 5 9 -5
46 20 46 32 0 11 125 134 260 258 61 55 112 103 113 108 2 4 12 7 22 7 26 0
33 28 12 55 -16 24 -40 36 -27 15 7 -11 -25 -44 -140 -150 -33 -30 -91 -83
-128 -118 -37 -34 -72 -60 -77 -57 -5 3 -11 -4 -15 -14 -12 -38 -90 -111 -119
-111 -18 0 -25 -4 -20 -12 4 -7 3 -8 -4 -4 -6 4 -9 13 -6 20 6 15 -22 29 -38
19 -7 -3 -8 -1 -4 6 4 7 -4 18 -22 28 -16 9 -33 26 -38 37 -5 12 -17 21 -26
21 -10 0 -23 7 -30 15 -11 12 -10 12 7 0 11 -8 2 5 -20 28 -38 40 -64 56 -49
30 5 -9 2 -9 -9 1 -20 16 -23 25 -4 15 6 -4 3 2 -7 15 -15 16 -22 18 -28 9 -7
-10 -8 -9 -6 2 1 8 -61 76 -142 154 -80 77 -161 156 -180 176 -19 19 -53 49
-75 65 -43 31 111 -125 258 -262 48 -44 87 -85 87 -89 0 -5 -39 30 -87 77
-253 247 -430 389 -485 389 -13 0 -29 5 -36 12 -6 6 -14 9 -18 6 -3 -4 12 -16
35 -28 58 -29 51 -32 -16 -5 -32 13 -69 26 -83 29 -21 6 -22 5 -7 -4z m203
-81 c3 -6 -5 -3 -20 6 -14 10 -26 19 -26 22 0 7 39 -17 46 -28z m60 -40 c3 -6
-5 -3 -20 6 -14 10 -26 19 -26 22 0 7 39 -17 46 -28z m459 -369 c3 -5 1 -10
-4 -10 -6 0 -11 5 -11 10 0 6 2 10 4 10 3 0 8 -4 11 -10z m36 -67 c13 -16 12
-17 -3 -4 -10 7 -18 15 -18 17 0 8 8 3 21 -13z m74 -73 c10 -11 16 -20 13 -20
-3 0 -13 9 -23 20 -10 11 -16 20 -13 20 3 0 13 -9 23 -20z m-130 -70 c10 -11
13 -20 7 -20 -6 0 -16 9 -22 20 -6 11 -9 20 -7 20 2 0 12 -9 22 -20z m247 -65
c6 -11 7 -15 2 -10 -5 6 -25 28 -44 50 l-35 40 33 -30 c19 -17 38 -39 44 -50z
m124 -32 c-7 -7 -26 7 -26 19 0 6 6 6 15 -2 9 -7 13 -15 11 -17z m-76 -15 c0
-6 -6 -5 -15 2 -8 7 -15 14 -15 16 0 2 7 1 15 -2 8 -4 15 -11 15 -16z m54 -56
c3 -5 -1 -9 -9 -9 -8 0 -12 4 -9 9 3 4 7 8 9 8 2 0 6 -4 9 -8z m-614 -6 c0 -2
-7 -7 -16 -10 -8 -3 -12 -2 -9 4 6 10 25 14 25 6z m-45 -15 c3 -5 1 -12 -5
-16 -5 -3 -10 1 -10 9 0 18 6 21 15 7z m-25 -31 c0 -5 -5 -10 -11 -10 -5 0 -7
5 -4 10 3 6 8 10 11 10 2 0 4 -4 4 -10z m720 -35 c13 -12 17 -21 10 -25 -8 -5
-4 -20 11 -46 l22 -39 -27 27 c-14 15 -26 31 -26 36 0 5 -7 16 -16 23 -14 12
-14 14 3 20 16 7 16 8 1 8 -9 1 -19 5 -22 10 -10 16 22 6 44 -14z m-192 -100
c-11 -13 -41 19 -43 45 -2 19 1 19 25 -7 15 -16 23 -32 18 -38z m-34 -12 c30
-35 29 -57 -1 -31 -10 9 -23 14 -29 11 -6 -2 -19 8 -29 23 -16 25 -16 28 -1
36 9 5 14 15 11 21 -3 7 0 3 7 -7 7 -11 26 -34 42 -53z m1106 43 c0 -3 -4 -8
-10 -11 -5 -3 -10 -1 -10 4 0 6 5 11 10 11 6 0 10 -2 10 -4z m-1560 -22 c0 -8
-19 -13 -24 -6 -3 5 1 9 9 9 8 0 15 -2 15 -3z m1315 -11 c-2 -10 -4 -19 -4
-21 -1 -2 -6 0 -11 3 -8 5 -7 11 1 21 15 18 18 18 14 -3z m180 7 c-3 -5 -12
-10 -18 -10 -7 0 -6 4 3 10 19 12 23 12 15 0z m-909 -63 c31 -62 18 -52 -22
17 -15 27 -23 46 -16 42 7 -4 24 -31 38 -59z m694 59 c0 -2 -8 -10 -17 -17
-16 -13 -17 -12 -4 4 13 16 21 21 21 13z m-523 -51 c0 -8 -4 -12 -9 -9 -5 3
-6 10 -3 15 9 13 12 11 12 -6z m-951 -13 c1 -7 0 -8 -2 -3 -3 5 -15 7 -27 4
-18 -4 -19 -3 -7 6 18 13 33 10 36 -7z m-66 -41 c0 -5 -7 -11 -14 -14 -10 -4
-13 -1 -9 9 6 15 23 19 23 5z m537 -37 c9 -16 8 -21 -3 -21 -7 0 -11 3 -9 7 2
4 -4 16 -15 27 -10 12 -16 23 -13 26 6 7 23 -10 40 -39z m-163 10 c3 -8 2 -12
-4 -9 -6 3 -10 10 -10 16 0 14 7 11 14 -7z m719 2 c3 -8 -1 -17 -10 -20 -20
-8 -27 -1 -20 19 8 19 23 20 30 1z m-459 -12 c5 -14 4 -15 -9 -4 -17 14 -19
20 -6 20 5 0 12 -7 15 -16z m636 -26 c0 -10 -5 -17 -12 -15 -7 1 -13 -2 -14
-8 -5 -28 -17 -55 -25 -55 -5 0 -5 10 0 23 4 12 6 28 4 35 -3 6 0 12 6 12 6 0
11 8 11 18 0 10 3 22 7 25 9 9 23 -13 23 -35z m-470 -11 c0 -5 -4 -5 -10 -2
-5 3 -10 14 -10 23 0 15 2 15 10 2 5 -8 10 -19 10 -23z m-337 6 c-12 -4 -5
-43 8 -43 5 0 5 7 2 17 -4 11 -3 14 6 9 7 -4 10 -13 8 -19 -2 -7 2 -25 10 -40
8 -16 12 -31 9 -34 -7 -8 -46 41 -68 85 -14 28 -14 33 -3 28 8 -3 15 -1 15 5
0 6 5 7 12 3 8 -5 9 -9 1 -11z m-533 -59 c0 -8 -4 -12 -10 -9 -5 3 -10 10 -10
16 0 5 5 9 10 9 6 0 10 -7 10 -16z m1357 -12 c-10 -10 -17 -22 -17 -27 0 -5 6
0 14 11 8 10 17 16 20 13 3 -3 0 -14 -8 -24 -12 -16 -16 -17 -30 -6 -9 7 -16
10 -16 6 0 -5 -3 -5 -6 -2 -7 7 35 46 50 47 5 0 2 -8 -7 -18z m-914 -54 l19
-33 -31 33 c-17 18 -31 37 -31 43 0 18 22 -5 43 -43z m969 -36 c-29 -16 -54
-9 -50 15 6 33 29 42 52 19 l21 -21 -23 -13z m-428 28 c25 -12 46 -28 46 -36
0 -10 6 -13 19 -9 12 3 21 0 25 -10 4 -10 2 -14 -5 -9 -7 4 -9 0 -5 -12 3 -11
-3 -32 -14 -49 -29 -45 -25 -62 18 -76 37 -12 81 -39 82 -50 0 -3 -21 -16 -46
-30 -25 -13 -63 -42 -84 -66 -26 -30 -45 -43 -64 -43 -30 0 -31 2 -12 38 7 15
13 38 11 52 -1 20 -8 26 -34 28 -43 4 -75 -18 -117 -84 -19 -29 -38 -54 -42
-54 -11 0 -39 69 -52 127 -9 39 -9 57 0 73 7 13 12 38 12 56 0 31 2 34 31 34
31 0 67 24 67 44 0 6 22 27 50 46 27 19 49 38 50 43 0 11 14 9 64 -13z m-1214
-36 c0 -2 -9 -4 -21 -4 -11 0 -18 4 -14 10 5 8 35 3 35 -6z m40 2 c0 -2 -8
-10 -17 -17 -16 -13 -17 -12 -4 4 13 16 21 21 21 13z m1718 -52 c2 -1 0 -10
-6 -19 -8 -16 -9 -16 -15 0 -4 9 -11 13 -17 10 -5 -3 -10 -1 -10 5 0 6 -4 8
-10 5 -5 -3 -10 -1 -10 4 0 6 -8 11 -17 11 -14 0 -15 -2 -5 -9 11 -7 11 -9 -1
-14 -8 -3 -24 1 -36 9 l-21 15 22 18 c21 18 23 17 72 -7 28 -14 53 -27 54 -28z
m-1288 15 c0 -4 14 -24 31 -44 17 -19 27 -35 22 -35 -9 0 -55 47 -82 82 -10
14 -9 16 8 11 12 -3 21 -9 21 -14z m1490 6 c0 -8 -58 -35 -75 -35 -8 0 -15 5
-15 10 0 6 13 10 29 10 17 0 33 5 36 10 6 10 25 14 25 5z m9 -42 c-12 -21 -42
-74 -67 -118 -25 -44 -57 -96 -72 -115 -28 -38 -50 -100 -50 -146 0 -42 -11
-75 -22 -68 -5 3 -6 15 -2 27 6 19 5 20 -10 8 -11 -9 -16 -10 -16 -2 0 7 -4
10 -8 7 -5 -3 -19 4 -31 15 -12 11 -25 18 -30 15 -4 -3 -17 3 -27 13 -19 18
-20 18 -58 -18 -22 -21 -40 -31 -43 -24 -2 6 -12 21 -22 32 l-19 21 -32 -30
c-18 -17 -35 -29 -37 -26 -7 7 16 76 37 111 10 17 21 40 25 52 11 38 -22 17
-51 -32 -28 -49 -80 -78 -94 -54 -5 8 -26 14 -49 14 -23 0 -41 1 -41 3 0 19
40 68 87 106 51 42 62 47 93 42 19 -3 89 -8 155 -12 136 -8 149 -4 230 66 49
42 52 51 7 23 l-27 -17 27 28 c17 18 34 26 43 22 9 -3 13 -2 10 4 -3 6 -1 10
5 10 7 0 32 18 57 40 25 22 48 40 50 40 3 0 -5 -17 -18 -37z m-1908 10 c13
-16 12 -17 -3 -4 -10 7 -18 15 -18 17 0 8 8 3 21 -13z m257 -122 c25 -56 25
-58 -2 -26 -14 17 -26 37 -26 46 0 8 -6 21 -12 29 -11 12 -10 12 5 0 10 -7 26
-30 35 -49z m530 -31 l43 -20 -37 -45 -38 -45 -18 48 c-33 86 -24 96 50 62z
m-583 -30 c3 -6 -1 -7 -9 -4 -18 7 -21 14 -7 14 6 0 13 -4 16 -10z m100 0 c3
-5 1 -10 -4 -10 -6 0 -11 5 -11 10 0 6 2 10 4 10 3 0 8 -4 11 -10z m-87 -55
c-3 -3 -9 2 -12 12 -6 14 -5 15 5 6 7 -7 10 -15 7 -18z m-118 -21 c0 -8 12
-32 27 -52 l28 -37 -45 40 c-27 24 -45 49 -45 62 0 17 3 19 18 12 9 -5 17 -17
17 -25z m-56 -77 c4 4 4 0 1 -9 -5 -12 0 -18 17 -21 18 -3 19 -4 3 -5 -12 -1
-39 21 -69 56 l-50 57 45 -43 c25 -23 49 -39 53 -35z m-429 33 c3 -5 1 -10 -4
-10 -6 0 -11 5 -11 10 0 6 2 10 4 10 3 0 8 -4 11 -10z m135 -50 c0 -5 -2 -10
-4 -10 -3 0 -8 5 -11 10 -3 6 -1 10 4 10 6 0 11 -4 11 -10z m2140 6 c0 -2 -11
-6 -25 -8 -13 -3 -22 -1 -19 3 5 9 44 13 44 5z m-1947 -36 c9 0 17 -7 17 -16
0 -8 -5 -12 -11 -8 -12 7 15 -39 39 -68 8 -10 11 -18 7 -18 -15 0 -85 83 -85
100 0 9 -6 22 -12 30 -7 8 -4 7 8 -3 11 -9 28 -17 37 -17z m2070 23 c-7 -2
-19 -2 -25 0 -7 3 -2 5 12 5 14 0 19 -2 13 -5z m414 -45 c-3 -7 -5 -2 -5 12 0
14 2 19 5 13 2 -7 2 -19 0 -25z m-2902 12 c3 -5 1 -10 -4 -10 -6 0 -11 5 -11
10 0 6 2 10 4 10 3 0 8 -4 11 -10z m589 -26 c5 -14 4 -15 -9 -4 -17 14 -19 20
-6 20 5 0 12 -7 15 -16z m1640 -22 c3 -5 -1 -9 -9 -9 -8 0 -15 4 -15 9 0 4 4
8 9 8 6 0 12 -4 15 -8z m274 -10 c15 12 16 11 3 -4 -7 -10 -17 -18 -22 -18 -5
0 -9 8 -8 18 0 11 2 12 6 4 4 -10 8 -10 21 0z m-658 -16 c0 -2 -7 -7 -16 -10
-8 -3 -12 -2 -9 4 6 10 25 14 25 6z m396 -4 c8 -5 7 -11 -4 -22 -14 -13 -15
-12 -9 4 6 16 5 17 -8 6 -12 -10 -15 -10 -15 4 0 17 17 21 36 8z m187 1 c-7
-2 -19 -2 -25 0 -7 3 -2 5 12 5 14 0 19 -2 13 -5z m-828 -23 c3 -5 -1 -10 -10
-10 -9 0 -13 5 -10 10 3 6 8 10 10 10 2 0 7 -4 10 -10z m205 5 c0 -2 -10 -9
-22 -15 -22 -11 -22 -10 -4 4 21 17 26 19 26 11z m-1531 -86 c22 -33 36 -59
31 -59 -14 0 -90 92 -84 102 3 5 0 17 -8 26 -12 15 -11 16 4 3 10 -7 36 -40
57 -72z m127 54 c21 -28 16 -35 -11 -17 -14 9 -22 20 -19 25 8 13 15 11 30 -8z
m-116 -28 c14 -19 14 -19 -2 -6 -10 7 -18 18 -18 24 0 6 1 8 3 6 1 -2 9 -13
17 -24z m1081 -45 c-5 -23 -7 -49 -4 -56 3 -8 -1 -14 -11 -14 -20 0 -20 5 -2
63 8 26 12 47 9 47 -2 0 -1 5 3 12 13 20 15 -6 5 -52z m215 18 c-5 -41 -29
-78 -42 -65 -12 11 17 107 32 107 11 0 14 -10 10 -42z m1304 38 c0 -3 -4 -8
-10 -11 -5 -3 -10 -1 -10 4 0 6 5 11 10 11 6 0 10 -2 10 -4z m-2453 -35 c-1
-16 -4 -17 -15 -9 -10 9 -11 13 0 19 17 11 17 12 15 -10z m368 -1 c-3 -5 -10
-10 -16 -10 -5 0 -9 5 -9 10 0 6 7 10 16 10 8 0 12 -4 9 -10z m695 -35 c0 -8
7 -15 15 -15 27 0 16 -29 -22 -55 -49 -33 -57 -32 -49 7 11 55 56 106 56 63z
m-1281 -58 c-2 -2 -17 12 -33 32 l-30 36 34 -32 c19 -18 32 -34 29 -36z m1463
10 c-12 -13 -20 -26 -17 -29 4 -3 -5 -15 -19 -26 -15 -11 -26 -25 -26 -31 0
-11 -33 -16 -77 -12 -12 1 -24 -3 -28 -9 -4 -6 4 -10 19 -10 14 0 26 -4 26 -9
0 -12 -26 -21 -61 -21 -17 0 -28 -4 -24 -10 3 -6 -1 -7 -10 -4 -14 6 -14 9 2
27 18 19 17 20 -4 8 -20 -10 -23 -9 -23 9 0 12 7 28 15 36 13 14 15 14 15 -1
0 -9 5 -13 10 -10 6 4 8 10 5 15 -3 5 9 12 27 16 18 4 27 9 21 11 -18 7 10 33
34 32 16 0 16 -1 -2 -9 -11 -5 -14 -9 -7 -9 6 -1 12 -6 12 -12 0 -5 -5 -7 -12
-3 -7 4 -8 3 -4 -4 12 -20 45 -15 39 6 -2 10 5 26 16 36 12 11 21 16 21 13 0
-4 14 2 32 13 40 24 49 18 20 -13z m-402 -38 c0 -44 -3 -60 -12 -57 -25 8 -17
118 7 118 3 0 5 -27 5 -61z m-1146 -46 l24 -43 -39 32 c-36 29 -44 40 -40 62
1 4 -4 16 -11 25 -7 9 0 5 15 -8 15 -14 38 -44 51 -68z m109 62 c-3 -10 1 -15
12 -15 9 0 13 -5 10 -10 -10 -16 -34 7 -32 30 1 10 5 17 9 14 4 -3 5 -11 1
-19z m-558 -14 c-6 -5 -25 10 -25 20 0 5 6 4 14 -3 8 -7 12 -15 11 -17z m1680
9 c3 -6 -1 -13 -10 -16 -12 -5 -13 -9 -5 -14 7 -4 9 -16 5 -29 -11 -36 -25
-23 -25 24 0 33 4 45 14 45 8 0 18 -5 21 -10z m-1689 -32 c10 -13 12 -17 4
-10 -21 18 -40 15 -33 -5 4 -14 3 -15 -6 -7 -12 11 -5 44 9 44 4 0 15 -10 26
-22z m1279 -163 c0 -128 -3 -175 -12 -175 -8 0 -11 43 -9 163 2 138 7 187 19
187 1 0 2 -79 2 -175z m1363 155 c6 0 12 -3 12 -7 0 -5 -17 -7 -37 -6 -48 2
-45 1 -37 14 3 6 16 8 28 5 11 -3 27 -6 34 -6z m-2028 -22 c0 -19 -2 -20 -10
-8 -13 19 -13 30 0 30 6 0 10 -10 10 -22z m870 -4 c0 -8 -4 -14 -9 -14 -11 0
-22 26 -14 34 9 9 23 -3 23 -20z m-1535 6 c3 -5 -1 -10 -10 -10 -9 0 -13 5
-10 10 3 6 8 10 10 10 2 0 7 -4 10 -10z m805 -43 c0 -16 -18 3 -23 25 -6 22
-5 22 8 4 8 -11 15 -24 15 -29z m326 27 c-3 -9 -6 -20 -6 -25 0 -21 -16 -7
-18 16 -1 17 3 25 14 25 11 0 14 -5 10 -16z m661 -10 c-3 -3 -12 -4 -19 -1 -8
3 -5 6 6 6 11 1 17 -2 13 -5z m-277 -218 c-7 -7 -10 18 -10 79 0 133 14 161
18 36 2 -63 -1 -108 -8 -115z m-1195 173 c8 14 25 5 24 -12 0 -9 -2 -8 -6 1
-2 6 -9 10 -14 6 -5 -3 3 -26 18 -52 l27 -47 -34 29 c-19 16 -35 34 -35 41 0
6 -9 25 -19 41 l-19 29 26 -23 c16 -15 27 -20 32 -13z m2235 27 c0 -3 -4 -8
-10 -11 -5 -3 -10 -1 -10 4 0 6 5 11 10 11 6 0 10 -2 10 -4z m-2372 -71 c-3
-3 -18 11 -33 32 l-28 38 34 -32 c18 -18 30 -35 27 -38z m272 40 c7 -8 8 -15
2 -15 -5 0 -15 7 -22 15 -7 8 -8 15 -2 15 5 0 15 -7 22 -15z m980 -50 c0 -37
-4 -65 -10 -65 -11 0 -14 113 -3 123 12 13 13 7 13 -58z m-200 5 c0 -27 -4
-50 -10 -50 -11 0 -14 83 -3 93 12 12 13 8 13 -43z m391 17 c-8 -8 -11 -7 -11
4 0 20 13 34 18 19 3 -7 -1 -17 -7 -23z m-499 -49 c2 -23 -1 -45 -7 -48 -6 -3
-11 21 -13 60 -2 74 16 64 20 -12z m853 62 c-3 -5 -10 -10 -16 -10 -5 0 -9 5
-9 10 0 6 7 10 16 10 8 0 12 -4 9 -10z m125 -10 c0 -5 -4 -10 -10 -10 -5 0
-10 5 -10 10 0 6 5 10 10 10 6 0 10 -4 10 -10z m-1481 -44 c19 -31 29 -68 14
-53 -8 9 -43 87 -38 87 2 0 13 -15 24 -34z m1034 22 c-15 -20 -22 -57 -12 -64
5 -3 6 -23 3 -44 -4 -22 -4 -51 0 -65 6 -23 10 -25 67 -25 33 0 58 -4 55 -9
-4 -5 -41 -8 -83 -6 -50 3 -80 0 -84 -7 -6 -9 -12 -8 -24 2 -14 11 -16 24 -10
64 9 70 57 166 84 166 9 0 10 -4 4 -12z m896 -37 c-16 -13 -26 -16 -31 -8 -5
8 -14 7 -32 -3 -14 -7 -29 -10 -32 -7 -9 9 46 29 63 23 7 -3 13 -1 13 4 0 8
31 19 39 13 2 -1 -7 -11 -20 -22z m-2568 -58 c13 -16 12 -17 -3 -4 -10 7 -18
15 -18 17 0 8 8 3 21 -13z m190 -45 c18 -34 -15 -9 -40 30 l-24 37 28 -25 c15
-14 31 -33 36 -42z m384 32 c3 -5 1 -10 -4 -10 -6 0 -11 5 -11 10 0 6 2 10 4
10 3 0 8 -4 11 -10z m-829 -13 c4 -4 -2 -7 -14 -7 -11 0 -24 5 -27 10 -7 11
30 8 41 -3z m750 -69 c12 -22 12 -29 3 -26 -7 2 -19 19 -26 37 -17 40 1 32 23
-11z m-436 -42 c-12 -12 -30 8 -30 33 0 11 5 10 20 -4 15 -13 17 -22 10 -29z
m45 34 c3 -5 1 -10 -4 -10 -6 0 -11 5 -11 10 0 6 2 10 4 10 3 0 8 -4 11 -10z
m-460 -10 c3 -5 1 -10 -4 -10 -6 0 -11 5 -11 10 0 6 2 10 4 10 3 0 8 -4 11
-10z m2290 -22 c33 -11 64 -24 70 -29 5 -5 17 -9 26 -9 9 0 23 -8 30 -17 13
-15 12 -16 -6 -8 -37 15 -190 65 -218 70 -15 3 -25 10 -22 15 7 12 36 6 120
-22z m-1899 -50 c-4 6 -3 12 2 12 5 0 9 -15 10 -32 1 -29 -1 -31 -12 -16 -7
10 -16 14 -20 10 -4 -4 -7 -2 -6 3 5 22 -1 29 -11 15 -9 -12 -10 -12 -5 3 4
11 -3 32 -15 50 -16 24 -10 21 22 -13 23 -25 39 -39 35 -32z m108 36 c5 -14 4
-15 -9 -4 -17 14 -19 20 -6 20 5 0 12 -7 15 -16z m-564 -4 c0 -5 -2 -10 -4
-10 -3 0 -8 5 -11 10 -3 6 -1 10 4 10 6 0 11 -4 11 -10z m746 -67 c14 -19 20
-64 6 -47 -13 14 -32 64 -25 64 3 0 12 -8 19 -17z m773 -28 c0 -5 -4 -3 -9 5
-5 8 -9 22 -9 30 0 16 17 -16 18 -35z m210 -36 c13 -55 7 -62 -13 -14 -18 42
-22 102 -6 74 5 -9 14 -35 19 -60z m-1839 47 c0 -3 -4 -8 -10 -11 -5 -3 -10
-1 -10 4 0 6 5 11 10 11 6 0 10 -2 10 -4z m2695 -6 c3 -5 2 -10 -4 -10 -5 0
-13 5 -16 10 -3 6 -2 10 4 10 5 0 13 -4 16 -10z m-2062 -30 c10 -16 16 -30 13
-30 -2 0 -14 14 -26 30 -12 17 -18 30 -13 30 5 0 17 -13 26 -30z m-759 11 c3
-5 0 -11 -7 -14 -8 -3 -14 1 -14 9 0 16 13 19 21 5z m51 -11 c3 -5 -1 -10 -9
-10 -8 0 -18 5 -21 10 -3 6 1 10 9 10 8 0 18 -4 21 -10z m2843 -5 c17 -4 32
-10 32 -15 0 -4 19 -18 42 -30 24 -12 52 -32 63 -44 12 -11 47 -45 78 -74 63
-58 93 -99 83 -109 -3 -4 -19 3 -34 15 -47 38 -111 63 -132 52 -23 -12 -67
-13 -74 -1 -3 4 -19 11 -36 14 -24 5 -30 11 -30 33 0 26 1 27 48 21 26 -4 65
-10 87 -13 37 -7 39 -6 26 10 -24 29 -95 73 -109 68 -7 -2 -22 4 -33 14 -15
14 -24 15 -42 6 -26 -13 -98 -3 -105 16 -2 6 3 12 12 12 9 0 13 6 10 14 -4 10
3 16 23 19 29 4 34 3 91 -8z m-2378 -37 c0 19 18 14 30 -8 9 -17 8 -19 -7 -13
-10 4 3 -17 30 -46 26 -29 47 -57 47 -62 0 -14 -20 -11 -20 4 -1 24 -49 68
-71 63 -14 -3 -39 28 -34 41 2 8 0 24 -6 36 -9 19 -7 18 10 -3 11 -14 21 -19
21 -12z m1609 -4 c-7 -16 -11 -33 -10 -37 1 -5 -3 -6 -8 -2 -7 4 -7 15 -1 30
5 14 6 25 2 25 -4 0 0 4 8 10 20 13 22 7 9 -26z m-2049 22 c0 -3 -4 -8 -10
-11 -5 -3 -10 -1 -10 4 0 6 5 11 10 11 6 0 10 -2 10 -4z m1017 -34 c12 -7 29
-9 37 -6 9 4 16 1 16 -6 0 -9 -11 -10 -37 -6 -55 10 -73 16 -73 26 0 11 24 19
30 10 3 -4 15 -12 27 -18z m-395 -32 c4 0 8 -5 8 -12 0 -6 -9 -3 -20 7 -11 10
-20 25 -19 34 0 11 4 9 11 -6 6 -13 15 -23 20 -23z m128 -16 c20 -32 21 -60 1
-38 -9 10 -32 74 -26 74 2 0 13 -16 25 -36z m1645 16 c-3 -5 -12 -10 -20 -10
-32 0 -124 -43 -162 -75 -78 -67 -141 -213 -146 -338 -2 -37 -6 -69 -10 -73
-7 -8 -9 7 -9 87 0 194 108 350 278 403 59 18 77 19 69 6z m42 4 c-3 -3 -12
-4 -19 -1 -8 3 -5 6 6 6 11 1 17 -2 13 -5z m-2377 -36 c0 -6 -6 -5 -15 2 -8 7
-15 14 -15 16 0 2 7 1 15 -2 8 -4 15 -11 15 -16z m850 -10 c0 -6 -6 -5 -15 2
-8 7 -15 14 -15 16 0 2 7 1 15 -2 8 -4 15 -11 15 -16z m-241 -32 c17 -21 31
-44 31 -49 0 -11 -44 44 -62 78 -14 25 -7 20 31 -29z m-198 -13 c13 -16 12
-17 -3 -4 -17 13 -22 21 -14 21 2 0 10 -8 17 -17z m-626 -3 c3 -6 -1 -7 -9 -4
-18 7 -21 14 -7 14 6 0 13 -4 16 -10z m2670 -2 c-11 -7 -31 -22 -44 -35 -36
-32 -40 -19 -5 16 16 15 38 29 49 29 20 1 20 1 0 -10z m-1675 -8 c0 -5 6 -10
13 -10 6 0 23 -9 37 -20 32 -25 12 -26 -53 -4 -49 17 -59 29 -29 37 29 8 32 7
32 -3z m1031 -82 c-11 -46 -23 -112 -27 -148 l-7 -65 -18 40 c-28 62 -24 98
23 185 24 43 44 77 46 75 2 -2 -5 -41 -17 -87z m-1571 72 c3 -1 9 -2 13 -1 5
1 6 -3 2 -9 -5 -8 -12 -7 -23 2 -10 7 -4 -2 13 -19 16 -17 32 -28 35 -23 3 4
11 2 18 -6 7 -8 8 -14 3 -14 -7 0 -7 -9 -1 -26 15 -39 12 -42 -10 -7 -10 18
-31 40 -45 49 -24 15 -27 15 -44 0 -16 -15 -19 -15 -31 -1 -8 10 -9 15 -1 15
6 0 11 -5 11 -11 0 -8 5 -7 15 1 10 9 12 17 6 23 -21 21 5 40 39 27z m159 -34
c0 -7 -2 -6 -6 2 -2 6 -11 12 -19 12 -9 0 -12 5 -9 10 8 13 35 -6 34 -24z
m1608 12 c-3 -8 -6 -5 -6 6 -1 11 2 17 5 13 3 -3 4 -12 1 -19z m-2212 2 c3 -5
1 -10 -4 -10 -6 0 -11 5 -11 10 0 6 2 10 4 10 3 0 8 -4 11 -10z m1413 -17 c2
-9 -10 -13 -45 -13 -47 1 -47 1 -23 15 29 17 62 16 68 -2z m212 -13 c43 -22
96 -26 133 -9 19 9 32 7 65 -10 23 -12 55 -21 71 -21 16 0 31 -3 33 -7 2 -5 1
-33 -2 -63 l-5 -55 -22 22 c-35 35 -58 43 -127 43 -37 0 -68 5 -72 11 -16 26
-95 51 -140 44 -35 -5 -47 -2 -63 14 l-20 20 45 7 c24 3 47 10 50 15 7 12 9
12 54 -11z m889 -15 c-34 -56 -63 -185 -39 -170 12 7 11 9 15 -115 1 -52 5
-112 9 -132 9 -45 1 -64 -19 -48 -37 31 -49 265 -20 368 18 61 54 132 67 132
4 0 -2 -16 -13 -35z m-2184 5 c10 -11 16 -20 13 -20 -3 0 -13 9 -23 20 -10 11
-16 20 -13 20 3 0 13 -9 23 -20z m420 -28 c-8 -8 -35 20 -35 37 1 12 5 11 21
-8 11 -13 17 -26 14 -29z m-65 -61 c0 -8 -14 4 -31 25 -48 61 -55 84 -10 34
22 -25 40 -51 41 -59z m2252 27 c4 -94 4 -128 -3 -128 -12 0 -26 53 -28 113
-2 46 1 57 13 57 12 0 17 -11 18 -42z m-2477 -6 c-6 -7 -35 18 -35 31 0 5 9 2
20 -8 11 -10 18 -20 15 -23z m2309 -202 c5 -28 4 -31 -4 -12 -18 42 -30 146
-22 202 6 52 7 50 13 -50 3 -58 9 -121 13 -140z m-2354 200 c0 -13 -7 -13 -31
1 -11 5 -17 14 -14 20 7 11 45 -7 45 -21z m2028 -2 c-6 -18 -17 -43 -24 -57
-10 -20 -10 -26 2 -38 16 -16 17 -29 4 -58 -7 -16 -9 -12 -10 20 -1 31 -3 35
-9 20 -8 -19 -6 -136 3 -248 2 -26 -1 -50 -5 -53 -5 -3 -9 -10 -9 -15 0 -6 5
-7 10 -4 6 3 10 1 10 -4 0 -17 -7 -14 -60 26 -54 40 -52 34 -54 166 -1 37 2
67 6 67 4 0 5 7 1 16 -4 10 1 20 11 26 9 5 14 13 11 19 -4 5 -3 15 2 22 4 6 8
16 8 21 0 5 5 11 11 13 7 2 9 -9 7 -29 -3 -28 -1 -26 13 15 9 26 22 47 28 47
7 0 20 14 29 30 23 39 29 38 15 -2z m355 23 c5 14 9 -13 12 -86 1 -22 7 -50
13 -62 15 -27 16 -55 2 -33 -8 12 -10 10 -10 -11 0 -24 -26 -38 -27 -15 -1 6
-5 31 -10 56 -5 25 -8 51 -7 58 1 6 2 33 3 60 1 30 4 42 10 33 7 -11 9 -11 14
0z m96 -49 c-1 -42 -2 -44 -9 -17 -11 45 -11 77 0 70 6 -3 9 -27 9 -53z m340
49 c22 -14 8 -34 -26 -37 -36 -4 -51 10 -33 31 14 17 38 19 59 6z m118 -66
c13 -27 11 -26 -21 10 -20 22 -36 44 -36 49 0 16 41 -27 57 -59z m-3019 -41
c-1 -18 -6 -31 -12 -30 -19 3 -36 17 -36 29 0 7 7 3 15 -7 16 -21 19 -18 9 8
-7 18 -39 22 -49 6 -4 -6 3 -18 15 -28 21 -17 21 -18 2 -19 -25 -2 -35 19 -36
74 -1 42 6 54 20 32 4 -8 10 -6 17 7 9 16 12 15 33 -11 14 -18 23 -42 22 -61z
m102 56 c0 -5 -2 -10 -4 -10 -3 0 -8 5 -11 10 -3 6 -1 10 4 10 6 0 11 -4 11
-10z m1940 6 c0 -2 -7 -9 -15 -16 -13 -11 -14 -10 -9 4 5 14 24 23 24 12z
m-2169 -93 c5 -7 17 -9 26 -6 15 6 16 5 3 -10 -14 -15 -17 -14 -43 16 -16 17
-38 46 -49 62 -14 22 -10 19 17 -10 20 -22 40 -45 46 -52z m2454 77 c-11 -17
5 -51 23 -48 14 3 17 -7 19 -57 2 -33 10 -95 19 -138 13 -56 14 -81 7 -88 -17
-17 -31 -3 -38 42 -6 35 -9 38 -19 23 -11 -14 -15 -8 -25 45 -14 71 -13 200 2
219 11 14 21 16 12 2z m-58 -92 c-2 -18 -4 -4 -4 32 0 36 2 50 4 33 2 -18 2
-48 0 -65z m-2142 73 c-3 -6 9 -26 26 -46 17 -20 29 -38 27 -41 -7 -6 -68 70
-68 85 0 6 5 11 11 11 5 0 8 -4 4 -9z m2052 -13 c-3 -8 -6 -5 -6 6 -1 11 2 17
5 13 3 -3 4 -12 1 -19z m-1933 -27 c-6 -6 -24 19 -24 34 1 6 7 1 15 -9 8 -11
12 -22 9 -25z m2619 -28 c98 -124 163 -235 151 -255 -3 -4 0 -8 5 -8 6 0 11
-7 11 -15 0 -8 -6 -12 -14 -9 -7 3 -16 -2 -20 -11 -3 -9 -11 -13 -17 -9 -9 5
-10 -2 -6 -26 l7 -33 -22 25 c-93 101 -166 221 -200 328 -24 76 -23 80 17 80
30 0 40 -8 88 -67z m-3293 16 c0 -6 -4 -7 -10 -4 -5 3 -10 11 -10 16 0 6 5 7
10 4 6 -3 10 -11 10 -16z m3421 8 c-1 -12 -15 -9 -19 4 -3 6 1 10 8 8 6 -3 11
-8 11 -12z m-3358 -73 c40 -49 30 -52 -11 -3 -18 21 -30 39 -25 39 4 0 21 -16
36 -36z m3307 26 c0 -5 -4 -10 -10 -10 -5 0 -10 5 -10 10 0 6 5 10 10 10 6 0
10 -4 10 -10z m173 -27 c8 -21 13 -40 11 -42 -7 -7 -43 44 -44 62 0 29 17 19
33 -20z m-3297 10 c15 -20 18 -34 7 -32 -19 3 -25 -2 -16 -13 6 -7 13 -22 17
-32 6 -16 4 -17 -10 -6 -13 11 -17 11 -24 1 -5 -9 -13 -10 -21 -5 -8 5 -18 9
-23 9 -17 0 -17 22 -1 38 9 9 12 23 8 34 -6 15 -4 16 9 5 13 -10 17 -10 22 3
7 20 16 19 32 -2z m124 -2 c0 -5 12 -24 26 -41 15 -17 24 -34 20 -37 -8 -9
-46 27 -46 44 0 8 -4 12 -9 9 -10 -7 -23 19 -14 28 9 9 23 7 23 -3z m2336 -37
c-3 -8 -1 -14 5 -14 6 0 7 -4 4 -10 -11 -18 -20 -10 -21 20 -1 16 3 27 8 24 5
-3 7 -12 4 -20z m-2176 -30 c0 -20 -27 -17 -34 2 -5 14 -4 15 9 4 18 -15 20 0
3 20 -11 12 -10 12 5 1 9 -7 17 -20 17 -27z m1998 -32 c8 -60 1 -85 -12 -39
-7 26 -8 112 -1 105 3 -2 9 -32 13 -66z m-2352 -16 c6 3 25 -14 43 -37 29 -35
32 -44 22 -62 -11 -22 -11 -22 -7 1 3 17 1 22 -9 18 -12 -4 -30 20 -27 37 1 4
-4 6 -10 5 -7 -2 -12 3 -10 10 1 8 -1 11 -6 8 -5 -3 -18 5 -29 17 -33 37 -38
54 -7 26 16 -15 34 -25 40 -23z m1302 18 c-9 -9 -21 -13 -28 -9 -14 9 5 25 30
25 12 0 12 -3 -2 -16z m65 9 c-7 -2 -19 -2 -25 0 -7 3 -2 5 12 5 14 0 19 -2
13 -5z m112 -3 c18 -8 18 -9 -5 -9 -14 0 -32 4 -40 9 -12 8 -12 10 5 9 11 0
29 -4 40 -9z m165 -6 c19 -3 39 -11 43 -17 6 -9 10 -9 13 0 3 6 17 9 32 7 37
-7 41 -14 8 -14 -15 0 -25 -4 -22 -9 6 -10 54 -3 61 9 5 8 72 -3 82 -14 4 -3
-22 -5 -56 -4 -68 2 -93 -11 -71 -37 16 -19 30 -19 30 0 0 14 34 21 84 16 11
-1 23 4 28 11 5 9 8 5 8 -12 1 -25 1 -25 16 -5 11 13 18 16 21 8 2 -7 10 -10
17 -7 18 7 37 -19 26 -35 -7 -12 -11 -11 -25 2 -21 21 -27 21 -54 -2 -13 -12
-38 -19 -66 -19 -25 -1 -51 -4 -57 -8 -7 -5 -8 -2 -3 6 6 10 4 12 -9 7 -27
-11 -90 10 -116 38 -13 14 -19 25 -13 25 17 0 22 38 6 44 -25 10 -93 6 -93 -5
0 -5 5 -7 10 -4 6 3 10 1 10 -4 0 -6 7 -11 15 -11 23 0 18 -16 -6 -17 -12 -1
-26 -8 -32 -16 -7 -8 -23 -18 -35 -22 -21 -6 -23 -4 -17 15 4 12 8 29 9 38 2
9 11 19 22 23 10 4 13 8 7 8 -7 1 -13 6 -13 12 0 10 54 8 140 -7z m-500 -4 c0
-5 -10 -10 -22 -9 -22 0 -22 1 -3 9 11 5 21 9 23 9 1 1 2 -3 2 -9z m1403 -16
c3 -3 3 -13 0 -21 -5 -12 -7 -12 -14 -1 -15 23 -4 40 14 22z m-1083 -14 c0 -5
-4 -10 -10 -10 -5 0 -10 5 -10 10 0 6 5 10 10 10 6 0 10 -4 10 -10z m-1745
-20 c10 -11 16 -20 13 -20 -3 0 -13 9 -23 20 -10 11 -16 20 -13 20 3 0 13 -9
23 -20z m193 0 c3 -7 0 -10 -7 -6 -7 5 -11 -2 -11 -18 0 -16 -6 -26 -15 -26
-8 0 -15 -5 -15 -12 0 -8 -6 -6 -17 5 -13 12 -14 20 -6 28 6 6 9 19 6 28 -4
14 -3 14 6 1 10 -13 13 -13 22 3 12 20 30 18 37 -3z m370 -5 c-3 -3 -9 2 -12
12 -6 14 -5 15 5 6 7 -7 10 -15 7 -18z m676 11 c-8 -21 -31 -27 -38 -11 -3 9
3 15 17 18 12 2 23 5 24 6 1 0 0 -5 -3 -13z m256 4 c0 -13 -28 -25 -38 -16 -3
4 0 11 8 16 20 13 30 12 30 0z m-310 -10 c0 -5 -2 -10 -4 -10 -3 0 -8 5 -11
10 -3 6 -1 10 4 10 6 0 11 -4 11 -10z m225 0 c3 -5 -3 -10 -15 -10 -12 0 -18
-4 -15 -10 3 -5 1 -10 -4 -10 -6 0 -11 -7 -11 -15 0 -8 -5 -15 -10 -15 -6 0
-10 8 -8 18 3 15 -5 17 -52 15 l-55 -2 40 14 c22 8 45 13 51 11 6 -2 17 0 25
5 19 12 46 11 54 -1z m904 -46 c14 -12 -19 -1 -35 12 -18 14 -18 14 6 3 14 -6
27 -13 29 -15z m333 -4 c3 -16 1 -30 -4 -30 -4 0 -8 3 -8 8 0 4 -3 17 -6 30
-4 12 -2 22 4 22 5 0 12 -13 14 -30z m-2528 -60 c6 0 19 -12 29 -25 17 -24 17
-25 -1 -22 -22 3 -82 61 -108 104 -13 21 -6 17 26 -14 23 -24 47 -43 54 -43z
m1091 70 c3 -5 1 -10 -4 -10 -6 0 -11 5 -11 10 0 6 2 10 4 10 3 0 8 -4 11 -10z
m1175 0 c0 -5 -7 -10 -15 -10 -8 0 -15 5 -15 10 0 6 7 10 15 10 8 0 15 -4 15
-10z m-1900 -36 c0 -8 -4 -14 -10 -14 -5 0 -10 4 -10 9 0 5 -3 18 -7 28 -6 16
-5 16 10 4 9 -7 17 -20 17 -27z m525 16 c3 -5 1 -10 -4 -10 -6 0 -11 5 -11 10
0 6 2 10 4 10 3 0 8 -4 11 -10z m1360 0 c19 -8 19 -9 -2 -9 -12 -1 -25 4 -28
9 -7 12 2 12 30 0z m-1751 -16 c3 -8 2 -12 -4 -9 -6 3 -10 10 -10 16 0 14 7
11 14 -7z m356 2 c0 -2 -9 -6 -20 -9 -11 -3 -18 -1 -14 4 5 9 34 13 34 5z
m1258 -8 c15 -15 16 -42 2 -33 -6 4 -8 11 -5 16 4 5 1 9 -4 9 -6 0 -11 -7 -11
-16 0 -8 -4 -13 -9 -10 -7 5 -8 23 -2 44 2 6 18 1 29 -10z m266 0 c-7 -12 -44
-10 -44 2 0 5 11 9 24 8 14 -1 22 -6 20 -10z m-2084 -8 c0 -5 -2 -10 -4 -10
-3 0 -8 5 -11 10 -3 6 -1 10 4 10 6 0 11 -4 11 -10z m620 0 c-19 -13 -30 -13
-30 0 0 6 10 10 23 10 18 0 19 -2 7 -10z m-1515 -10 c3 -5 -1 -10 -9 -10 -9 0
-16 5 -16 10 0 6 4 10 9 10 6 0 13 -4 16 -10z m860 -17 l18 -28 -21 19 c-12
11 -22 23 -22 28 0 14 7 9 25 -19z m2116 -7 c72 -42 220 -198 200 -211 -6 -3
-17 7 -25 22 -8 15 -30 45 -50 65 -30 30 -43 37 -69 35 -28 -2 -32 1 -32 24
-1 27 -25 59 -44 59 -6 0 -11 5 -11 10 0 6 -9 10 -19 10 -11 0 -23 5 -27 11
-9 15 31 2 77 -25z m-2485 -10 c15 4 16 4 5 -4 -12 -8 -8 -18 19 -54 29 -37
30 -40 7 -19 -31 28 -58 35 -69 18 -4 -6 -10 -8 -14 -4 -4 4 -2 13 4 19 17 17
15 38 -5 62 -15 18 -14 17 8 -2 17 -14 33 -20 45 -16z m870 15 c-4 -5 -1 -11
6 -13 8 -3 6 -6 -4 -10 -11 -5 -15 -2 -13 10 5 23 4 22 11 22 3 0 3 -4 0 -9z
m123 -5 c9 -11 7 -15 -11 -20 -13 -3 -31 -6 -40 -6 -17 0 -17 1 0 19 21 23 36
25 51 7z m78 8 c-3 -3 -12 -4 -19 -1 -8 3 -5 6 6 6 11 1 17 -2 13 -5z m-766
-85 c6 -16 9 -32 6 -35 -9 -10 -27 6 -27 24 0 9 -10 33 -21 52 l-21 35 25 -23
c14 -13 31 -37 38 -53z m-441 26 c7 -8 8 -15 2 -15 -5 0 -15 7 -22 15 -7 8 -8
15 -2 15 5 0 15 -7 22 -15z m370 -121 c25 -34 50 -63 55 -65 6 -2 9 -8 7 -13
-2 -5 3 -13 10 -17 7 -4 10 -11 6 -14 -4 -4 -21 13 -38 37 -19 26 -38 42 -48
40 -13 -2 -14 -1 -4 6 10 7 -1 26 -43 80 -30 39 -55 74 -55 79 0 9 50 -51 110
-133z m200 91 c14 -19 14 -19 -2 -6 -10 7 -18 18 -18 24 0 6 1 8 3 6 1 -2 9
-13 17 -24z m-438 -133 c39 -51 68 -96 65 -98 -3 -3 -13 6 -24 21 -10 14 -51
66 -90 115 -40 48 -73 91 -73 96 0 16 56 -45 122 -134z m268 96 c0 -5 -9 -4
-20 2 -11 6 -20 18 -20 27 0 14 2 14 20 -2 11 -10 20 -22 20 -27z m198 -13
c-3 -3 -9 2 -12 12 -6 14 -5 15 5 6 7 -7 10 -15 7 -18z m-521 -169 c32 -33 47
-57 47 -77 1 -33 -9 -36 -36 -12 -19 17 -25 39 -8 28 5 -3 3 6 -5 21 -19 37
-108 144 -120 144 -5 0 -18 17 -27 38 -16 34 -12 31 43 -28 33 -36 81 -87 106
-114z m208 65 c8 -29 0 -38 -20 -21 -9 7 -13 15 -11 18 3 2 -4 22 -14 43 -11
21 -20 42 -20 46 1 15 59 -62 65 -86z m-300 -133 c7 -9 22 -29 31 -45 10 -15
42 -54 71 -85 29 -31 53 -64 53 -72 0 -27 -13 -18 -50 32 -30 41 -39 47 -63
44 -24 -4 -28 -1 -25 14 2 11 10 18 17 16 17 -4 -9 38 -64 103 -22 26 -69 82
-104 124 l-64 76 92 -95 c51 -52 98 -103 106 -112z m3576 171 c13 -26 7 -24
-22 7 -17 19 -19 23 -6 18 10 -3 22 -15 28 -25z m-21 -24 c18 -19 31 -37 28
-41 -6 -5 -78 59 -78 70 0 14 19 3 50 -29z m-3302 -41 c-10 -10 -27 5 -44 39
l-16 32 33 -32 c18 -18 30 -35 27 -39z m3182 41 c8 -6 31 -28 50 -50 19 -22
28 -34 20 -27 -17 14 -34 16 -25 2 4 -6 -1 -7 -12 -3 -17 6 -17 5 1 -15 25
-29 8 -28 -24 2 -34 31 -79 84 -57 67 19 -15 22 -9 7 18 -7 14 -6 18 8 17 9
-1 24 -6 32 -11z m406 -19 c8 -48 -1 -68 -15 -33 -14 35 -14 67 -1 67 5 0 12
-16 16 -34z m390 -9 c10 -6 64 -109 64 -123 0 -14 -22 0 -30 19 -11 25 -32 59
-41 67 -3 3 -8 14 -11 25 -3 11 -9 29 -13 40 l-7 20 13 -20 c7 -11 18 -23 25
-28z m-721 23 c3 -5 2 -10 -4 -10 -5 0 -13 5 -16 10 -3 6 -2 10 4 10 5 0 13
-4 16 -10z m-620 -10 c3 -5 1 -10 -4 -10 -6 0 -11 5 -11 10 0 6 2 10 4 10 3 0
8 -4 11 -10z m598 -138 c51 -43 31 -41 -26 3 -27 21 -48 31 -52 25 -4 -6 -1
-9 5 -8 7 2 14 -8 16 -21 4 -21 0 -20 -43 17 -60 50 -88 80 -80 88 3 3 24 -11
46 -32 50 -44 68 -37 23 9 -53 54 -36 55 21 1 28 -28 69 -65 90 -82z m63 106
l19 -21 -27 18 c-29 18 -34 25 -20 25 5 0 17 -10 28 -22z m-656 -50 c0 -18
-15 -25 -23 -10 -3 4 -8 23 -11 42 l-7 35 20 -25 c11 -14 21 -33 21 -42z m410
-13 c35 -36 59 -65 52 -65 -7 0 -12 6 -12 13 0 9 -3 8 -9 -2 -7 -11 -10 -9
-15 7 -4 11 -17 27 -30 36 -27 17 -72 76 -59 76 5 0 38 -29 73 -65z m-3487 9
c16 -19 32 -32 36 -31 5 1 30 -24 57 -57 26 -32 60 -62 74 -68 23 -9 24 -10 8
-22 -10 -7 -18 -23 -18 -35 0 -25 -7 -26 -32 -4 -16 14 -18 14 -13 1 12 -31
-24 -28 -47 3 -13 17 -23 34 -23 38 0 5 -19 34 -43 66 -24 31 -41 59 -39 61 2
2 23 -20 48 -48 24 -29 54 -63 65 -77 l22 -25 0 29 c0 21 -14 46 -47 85 -65
76 -109 136 -92 125 8 -4 28 -23 44 -41z m3485 -52 c37 -37 83 -80 102 -95 27
-20 31 -27 16 -27 -16 0 -17 -2 -5 -17 11 -13 11 -17 1 -20 -8 -3 -5 -11 10
-23 41 -33 12 -31 -58 5 -38 19 -93 55 -122 81 -52 46 -122 129 -122 145 0 11
68 -27 98 -54 32 -30 27 -14 -10 30 -18 21 -26 32 -18 26 19 -17 30 -16 30 2
0 8 2 15 5 15 3 0 35 -31 73 -68z m-3957 41 c13 -16 12 -17 -3 -4 -10 7 -18
15 -18 17 0 8 8 3 21 -13z m849 -3 c0 -5 -5 -10 -11 -10 -5 0 -7 5 -4 10 3 6
8 10 11 10 2 0 4 -4 4 -10z m52 -10 c7 -11 19 -20 27 -20 8 0 11 -3 8 -7 -4
-3 -1 -13 5 -21 7 -8 13 -21 14 -29 2 -11 -1 -12 -12 -2 -8 6 -14 15 -14 20 0
5 -16 24 -35 44 -23 23 -30 35 -20 35 8 0 20 -9 27 -20z m-1195 -13 c4 -7 0
-8 -11 -4 -10 4 -22 7 -27 7 -5 0 -9 4 -9 9 0 12 38 2 47 -12z m-328 -21 c-3
-3 -11 5 -18 17 -13 21 -12 21 5 5 10 -10 16 -20 13 -22z m1053 -70 c51 -58
102 -117 113 -131 11 -15 33 -39 49 -54 33 -31 59 -78 51 -92 -4 -5 -19 8 -35
30 -35 48 -45 55 -90 56 -45 2 -58 -9 -52 -41 5 -26 5 -26 -22 -9 -14 10 -26
13 -26 7 0 -6 -9 -8 -21 -5 -23 6 -69 48 -69 63 0 6 -5 10 -11 10 -5 0 -8 4
-5 9 3 5 -8 24 -24 42 -16 19 -30 37 -30 42 0 17 17 4 56 -40 23 -27 53 -61
68 -78 l26 -30 -6 30 c-3 17 -17 41 -32 53 -27 26 -106 142 -99 148 2 2 12 -5
22 -16 10 -11 24 -20 31 -20 7 0 30 -21 51 -47 21 -26 45 -55 53 -65 14 -17
70 -25 83 -12 3 4 1 16 -5 28 -15 28 -118 154 -152 185 -23 22 -33 41 -22 41
2 0 46 -47 98 -104z m292 82 c26 -37 19 -57 -9 -25 -14 15 -25 32 -25 38 0 16
18 10 34 -13z m2935 -43 c17 -24 31 -50 31 -58 0 -8 16 -27 36 -42 21 -16 34
-34 32 -43 -2 -10 3 -22 12 -29 8 -6 12 -14 8 -18 -13 -13 -87 56 -90 84 -2
17 -10 27 -24 29 -14 2 -28 19 -42 53 -39 89 -19 102 37 24z m139 -18 c53 -48
144 -117 158 -122 1 0 5 -11 9 -25 6 -20 5 -23 -6 -12 -7 6 -23 12 -34 12 -41
0 -205 131 -205 163 0 5 -8 16 -17 23 -17 13 -17 14 1 7 13 -4 17 -3 12 5 -18
29 17 7 82 -51z m352 7 c0 -8 -5 -14 -11 -14 -6 0 -8 7 -5 16 3 8 2 12 -4 9
-6 -3 -15 -3 -21 1 -8 4 -7 9 2 15 15 9 39 -7 39 -27z m-4380 0 c0 -14 -3 -15
-17 -3 -10 7 -20 15 -22 16 -2 2 5 3 17 3 14 0 22 -6 22 -16z m4285 -14 c3 -5
1 -10 -4 -10 -6 0 -11 5 -11 10 0 6 2 10 4 10 3 0 8 -4 11 -10z m134 -29 c-8
-2 -7 -6 2 -13 25 -17 -33 3 -65 23 -32 20 -19 27 15 9 15 -8 19 -7 19 5 0 13
3 12 20 -3 12 -10 16 -18 9 -21z m-272 -147 c66 -42 87 -66 50 -56 -12 3 -24
8 -27 11 -16 19 -70 49 -74 42 -3 -5 11 -19 31 -31 26 -15 33 -24 24 -30 -11
-6 -10 -10 4 -17 11 -7 14 -13 7 -17 -6 -3 -13 -2 -17 4 -3 5 -11 10 -16 10
-6 0 -7 -5 -4 -11 8 -11 -61 15 -82 32 -7 6 -11 15 -8 19 3 5 1 11 -4 14 -7 5
-19 56 -26 111 0 6 -7 9 -14 7 -7 -1 -10 2 -7 7 4 5 2 12 -4 16 -5 3 -10 11
-10 16 0 5 26 -12 58 -39 32 -26 86 -66 119 -88z m-4205 84 c-7 -7 -12 -8 -12
-2 0 6 3 14 7 17 3 4 9 5 12 2 2 -3 -1 -11 -7 -17z m4712 12 c-11 -11 -113
-27 -103 -16 3 4 26 10 50 15 62 12 64 12 53 1z m-3168 -67 c-7 -7 -26 7 -26
19 0 6 6 6 15 -2 9 -7 13 -15 11 -17z m3114 17 c-18 -12 -47 -13 -54 -2 -2 4
12 9 32 10 28 2 33 0 22 -8z m173 -125 c9 -4 28 -4 41 -1 20 5 23 2 20 -20 -1
-14 -10 -34 -18 -43 -9 -10 -16 -23 -16 -29 0 -21 -53 -53 -78 -47 -13 3 -21
2 -18 -3 3 -5 -6 -7 -19 -4 -23 4 -25 9 -25 57 0 35 5 57 15 65 12 10 15 10
15 0 0 -13 15 -5 15 8 1 27 29 34 68 17z m-224 -29 c9 -11 5 -18 -22 -35 -19
-12 -39 -21 -46 -21 -15 0 -14 27 2 33 6 2 -10 3 -38 1 l-50 -3 55 10 c30 6
62 14 70 19 8 5 16 9 16 9 1 1 7 -5 13 -13z m-356 -11 c-3 -9 -8 -14 -10 -11
-3 3 -2 9 2 15 9 16 15 13 8 -4z m-3361 -63 l43 -21 -35 0 c-44 0 -72 -5 -88
-15 -7 -4 -12 -4 -11 1 3 19 -2 27 -10 15 -5 -9 -8 -2 -9 19 -1 30 1 31 33 26
18 -3 53 -14 77 -25z m3738 19 c0 -21 -99 -65 -173 -76 -38 -6 -46 -5 -42 7 3
7 27 20 53 27 26 8 52 17 57 22 6 4 25 9 43 12 19 3 36 8 40 11 8 9 22 7 22
-3z m-3660 -15 c0 -2 -8 -10 -17 -17 -16 -13 -17 -12 -4 4 13 16 21 21 21 13z
m3377 -22 c-3 -3 -12 -4 -19 -1 -8 3 -5 6 6 6 11 1 17 -2 13 -5z m-3284 -11
c-7 -2 -21 -2 -30 0 -10 3 -4 5 12 5 17 0 24 -2 18 -5z m3330 -30 c-7 -2 -19
-2 -25 0 -7 3 -2 5 12 5 14 0 19 -2 13 -5z m-4246 -59 c-3 -3 -12 -4 -19 -1
-8 3 -5 6 6 6 11 1 17 -2 13 -5z m4400 -130 c-3 -3 -12 -4 -19 -1 -8 3 -5 6 6
6 11 1 17 -2 13 -5z m-1327 -34 c-19 -12 -47 -13 -54 -1 -8 13 47 31 59 19 6
-6 5 -12 -5 -18z"/>
<path d="M5820 3709 c0 -5 5 -7 10 -4 6 3 10 8 10 11 0 2 -4 4 -10 4 -5 0 -10
-5 -10 -11z"/>
<path d="M6173 2164 c15 -16 27 -33 27 -37 0 -4 -12 0 -27 10 l-28 16 21 -22
c15 -16 26 -21 37 -15 18 10 9 25 -33 59 -23 18 -23 17 3 -11z"/>
<path d="M5970 2063 c0 -12 38 -48 45 -41 3 2 -6 15 -20 28 -14 13 -25 19 -25
13z"/>
<path d="M5889 1836 c13 -16 51 -41 51 -33 0 2 -15 14 -32 27 -21 15 -28 17
-19 6z"/>
<path d="M2596 1623 c6 -4 14 -15 17 -23 5 -11 6 -9 4 4 -1 11 -9 21 -17 23
-10 3 -11 2 -4 -4z"/>
<path d="M5021 5833 c6 -10 23 -27 37 -37 21 -15 20 -12 -7 17 -38 41 -47 46
-30 20z"/>
<path d="M6390 5480 c14 -10 27 -17 29 -14 6 5 -31 33 -44 33 -5 1 1 -8 15
-19z"/>
<path d="M6430 5451 c0 -5 5 -13 10 -16 6 -3 10 -2 10 4 0 5 -4 13 -10 16 -5
3 -10 2 -10 -4z"/>
<path d="M4920 5426 c0 -2 7 -7 16 -10 8 -3 12 -2 9 4 -6 10 -25 14 -25 6z"/>
<path d="M4850 5400 c-13 -8 -12 -10 3 -10 9 0 20 0 24 -1 4 0 9 4 11 10 5 14
-18 14 -38 1z"/>
<path d="M4909 5397 c-1 -7 -1 -15 0 -19 2 -16 -53 -48 -73 -42 -21 6 -21 6
-1 -9 13 -10 22 -12 26 -5 4 7 13 6 27 -1 11 -6 23 -7 26 -3 3 5 18 7 34 4 16
-2 33 1 37 7 9 15 -14 43 -28 34 -6 -4 -8 0 -5 8 4 9 -4 19 -18 26 -18 8 -24
8 -25 0z"/>
<path d="M6480 5401 c0 -6 4 -13 10 -16 6 -3 7 1 4 9 -7 18 -14 21 -14 7z"/>
<path d="M4820 5376 c0 -2 7 -6 15 -10 8 -3 15 -1 15 4 0 6 -7 10 -15 10 -8 0
-15 -2 -15 -4z"/>
<path d="M4860 5360 c0 -5 5 -10 10 -10 6 0 10 5 10 10 0 6 -4 10 -10 10 -5 0
-10 -4 -10 -10z"/>
<path d="M4997 5316 c-3 -8 2 -16 14 -19 15 -4 19 -1 17 10 -4 22 -24 27 -31
9z"/>
<path d="M5040 5282 c0 -13 38 -23 46 -11 3 5 1 9 -5 9 -5 0 -16 3 -25 6 -9 3
-16 2 -16 -4z"/>
<path d="M4774 5268 c-3 -5 10 -15 28 -23 25 -11 28 -15 13 -16 -11 -1 -28 -1
-37 0 -27 3 -22 -7 11 -24 17 -8 38 -12 48 -9 14 5 15 4 4 -4 -11 -8 -9 -12
10 -22 19 -10 22 -10 12 0 -6 7 -9 19 -6 26 3 8 0 14 -6 14 -6 0 -11 7 -11 15
0 11 10 9 48 -11 l47 -26 -30 26 c-16 14 -34 25 -39 26 -5 0 -18 8 -28 17 -21
18 -56 25 -64 11z"/>
<path d="M4920 5276 c0 -3 9 -10 20 -16 11 -6 20 -8 20 -6 0 3 -9 10 -20 16
-11 6 -20 8 -20 6z"/>
<path d="M6590 5250 c6 -11 13 -20 16 -20 2 0 0 9 -6 20 -6 11 -13 20 -16 20
-2 0 0 -9 6 -20z"/>
<path d="M5100 5240 c-13 -9 -13 -10 0 -10 9 0 22 -9 30 -19 7 -11 18 -17 23
-14 5 3 13 -1 18 -8 6 -10 9 -8 9 8 0 16 -8 25 -25 29 -14 3 -22 10 -19 15 7
12 -17 11 -36 -1z"/>
<path d="M4659 5205 c30 -14 56 -24 58 -21 6 6 -76 46 -95 46 -9 0 7 -11 37
-25z"/>
<path d="M6630 5190 c0 -21 17 -46 25 -38 4 4 0 17 -9 30 -10 14 -16 17 -16 8z"/>
<path d="M4750 5161 c14 -11 30 -21 35 -21 11 0 -7 14 -40 31 -13 7 -12 3 5
-10z"/>
<path d="M5188 5163 c7 -3 16 -2 19 1 4 3 -2 6 -13 5 -11 0 -14 -3 -6 -6z"/>
<path d="M4438 5108 c5 -5 16 -8 23 -6 8 3 3 7 -10 11 -17 4 -21 3 -13 -5z"/>
<path d="M4615 5113 c15 -15 167 -94 161 -84 -11 18 -113 80 -141 87 -20 4
-27 3 -20 -3z"/>
<path d="M4484 5091 c4 -6 12 -11 17 -11 6 0 30 -13 54 -30 24 -16 47 -30 50
-30 4 0 20 -9 36 -21 16 -11 29 -17 29 -12 0 4 -33 29 -73 54 -75 48 -125 70
-113 50z"/>
<path d="M4595 5076 c11 -8 23 -12 27 -10 11 7 48 -15 48 -29 0 -7 14 -20 30
-29 33 -19 41 -13 13 8 -12 9 -14 13 -5 14 42 1 -63 59 -107 60 -24 0 -24 -1
-6 -14z"/>
<path d="M6696 5070 c7 -28 12 -35 18 -29 2 2 -2 15 -10 29 l-15 25 7 -25z"/>
<path d="M4520 5017 c-12 -21 -12 -21 6 -7 10 8 20 15 22 16 2 1 -1 4 -5 7 -5
3 -15 -4 -23 -16z"/>
<path d="M4680 4976 c0 -2 8 -10 18 -17 15 -13 16 -12 3 4 -13 16 -21 21 -21
13z"/>
<path d="M4309 4955 c18 -8 38 -15 45 -15 19 1 -38 29 -59 29 -14 0 -10 -4 14
-14z"/>
<path d="M4450 4967 c16 -16 128 -63 123 -51 -3 7 -18 20 -34 28 -29 15 -98
33 -89 23z"/>
<path d="M5025 4951 c19 -23 19 -24 1 -17 -16 5 -17 4 -6 -9 15 -18 17 -19 23
-1 3 8 -4 22 -16 33 l-22 18 20 -24z"/>
<path d="M4421 4947 c34 -28 139 -95 139 -89 0 5 -3 12 -7 16 -5 4 -8 13 -8
19 0 15 -82 57 -109 57 -11 0 -17 -2 -15 -3z"/>
<path d="M4377 4933 c-4 -3 28 -29 71 -56 42 -27 79 -52 82 -56 3 -4 21 -17
40 -30 29 -19 28 -16 -12 21 -26 24 -66 55 -89 68 -23 14 -50 33 -60 43 -21
19 -23 20 -32 10z"/>
<path d="M4740 4926 c0 -2 7 -7 16 -10 8 -3 12 -2 9 4 -6 10 -25 14 -25 6z"/>
<path d="M4795 4880 c10 -11 20 -20 23 -20 3 0 -3 9 -13 20 -10 11 -20 20 -23
20 -3 0 3 -9 13 -20z"/>
<path d="M6027 4883 c-4 -3 -7 -11 -7 -17 0 -6 5 -5 12 2 6 6 9 14 7 17 -3 3
-9 2 -12 -2z"/>
<path d="M4350 4872 c0 -7 -7 -12 -16 -12 -8 0 -13 -4 -9 -9 3 -6 -2 -14 -11
-19 -13 -7 -4 -16 47 -44 35 -19 81 -45 102 -58 65 -38 40 -14 -39 39 -42 28
-82 51 -90 51 -9 0 -12 5 -9 10 5 8 11 7 21 -1 8 -6 18 -8 22 -4 4 4 1 10 -7
13 -11 4 -11 6 0 13 11 6 11 11 1 21 -9 9 -12 9 -12 0z"/>
<path d="M6530 4851 c0 -6 4 -13 10 -16 6 -3 7 1 4 9 -7 18 -14 21 -14 7z"/>
<path d="M4133 4833 c-7 -3 11 -17 40 -32 29 -15 75 -41 102 -57 27 -15 45
-23 41 -16 -4 6 -28 24 -54 39 -26 15 -50 31 -53 36 -3 5 -9 8 -13 8 -17 -3
-26 0 -38 12 -7 8 -19 12 -25 10z"/>
<path d="M4900 4836 c0 -2 8 -10 18 -17 15 -13 16 -12 3 4 -13 16 -21 21 -21
13z"/>
<path d="M4260 4807 c3 -3 47 -35 98 -71 61 -43 87 -57 73 -40 -11 14 -18 30
-15 35 6 10 -59 53 -96 63 -54 16 -65 18 -60 13z"/>
<path d="M6110 4792 c-31 -20 -40 -32 -40 -52 1 -12 3 -11 11 3 5 9 18 17 28
17 10 0 25 7 32 17 13 15 12 15 -11 3 l-25 -13 19 22 c23 25 20 26 -14 3z"/>
<path d="M4840 4796 c0 -2 7 -7 16 -10 8 -3 12 -2 9 4 -6 10 -25 14 -25 6z"/>
<path d="M4218 4743 c6 -2 18 -2 25 0 6 3 1 5 -13 5 -14 0 -19 -2 -12 -5z"/>
<path d="M4241 4714 c13 -16 29 -19 29 -5 0 5 -9 11 -21 14 -16 4 -18 3 -8 -9z"/>
<path d="M4168 4693 c-16 -2 -28 -8 -28 -12 0 -4 24 -19 53 -34 28 -14 79 -42
112 -62 33 -19 47 -25 30 -12 -16 12 -39 32 -52 44 -13 13 -25 22 -26 20 -7
-5 -65 51 -60 57 4 3 4 5 2 5 -2 -1 -16 -4 -31 -6z"/>
<path d="M4350 4697 c0 -3 12 -12 26 -22 15 -9 23 -12 20 -6 -7 11 -46 35 -46
28z"/>
<path d="M4020 4656 c90 -49 95 -53 93 -65 -2 -6 3 -8 10 -5 7 2 37 -14 67
-36 29 -22 56 -40 58 -40 14 0 -32 39 -93 78 -38 26 -72 49 -75 52 -7 9 -70
37 -100 44 -14 4 4 -9 40 -28z"/>
<path d="M7473 4670 c-1 -11 2 -20 6 -20 5 0 11 9 14 20 3 12 0 20 -7 20 -6 0
-12 -9 -13 -20z"/>
<path d="M4120 4653 c1 -9 122 -93 135 -93 4 0 1 7 -6 17 -13 15 -12 15 11 4
22 -11 22 -9 -5 13 -44 37 -135 78 -135 59z"/>
<path d="M4645 4590 c10 -11 20 -20 23 -20 3 0 -3 9 -13 20 -10 11 -20 20 -23
20 -3 0 3 -9 13 -20z"/>
<path d="M3830 4529 c23 -15 129 -78 185 -110 l50 -29 -40 35 c-22 19 -54 41
-71 50 -17 8 -37 21 -44 30 -7 8 -16 12 -21 9 -5 -3 -16 2 -25 10 -8 9 -23 16
-32 15 -15 0 -15 -1 -2 -10z"/>
<path d="M3990 4530 c0 -5 9 -12 21 -15 11 -4 55 -27 97 -51 42 -25 66 -35 52
-24 -58 49 -67 56 -92 69 -15 8 -26 17 -24 20 2 3 -9 7 -25 8 -16 1 -29 -2
-29 -7z"/>
<path d="M3955 4508 c11 -6 36 -23 55 -38 19 -15 47 -35 63 -45 26 -17 27 -17
24 1 -1 11 -6 25 -10 32 -10 14 -78 45 -85 37 -2 -2 -14 2 -26 10 -11 8 -25
15 -31 15 -5 0 -1 -6 10 -12z m93 -53 c-3 -3 -9 2 -12 12 -6 14 -5 15 5 6 7
-7 10 -15 7 -18z"/>
<path d="M4329 4441 c25 -22 46 -41 48 -41 10 0 -11 21 -50 51 l-42 32 44 -42z"/>
<path d="M3880 4450 c0 -5 5 -10 11 -10 5 0 7 5 4 10 -3 6 -8 10 -11 10 -2 0
-4 -4 -4 -10z"/>
<path d="M3831 4391 c-11 -7 -8 -10 10 -16 20 -7 79 -40 194 -109 l30 -18 -25
21 c-35 29 -165 120 -182 126 -7 3 -19 1 -27 -4z"/>
<path d="M3820 4355 c7 -8 17 -12 23 -8 5 3 7 1 4 -5 -4 -5 16 -27 44 -47 44
-31 51 -34 47 -17 -4 15 -2 19 8 15 8 -3 14 -3 14 1 0 9 -86 56 -120 66 -27 8
-30 7 -20 -5z"/>
<path d="M3730 4358 c8 -7 193 -133 210 -142 21 -12 4 3 -55 50 -75 59 -108
80 -135 89 -14 4 -23 5 -20 3z"/>
<path d="M4229 4246 c13 -15 13 -19 1 -26 -17 -11 -7 -23 20 -25 40 -3 29 33
-20 60 -13 8 -13 7 -1 -9z"/>
<path d="M3670 4243 c0 -5 24 -18 52 -31 28 -12 48 -25 45 -29 -4 -3 -26 3
-49 14 -51 25 -78 34 -78 27 0 -3 13 -10 30 -15 16 -6 28 -14 25 -19 -3 -4 3
-14 12 -21 11 -10 14 -10 9 -2 -5 9 -2 11 8 7 9 -3 14 -10 11 -14 -3 -5 9 -19
27 -31 28 -19 30 -20 17 -3 -32 38 -33 47 -3 29 23 -13 25 -14 10 -1 -28 23
-13 30 26 11 29 -14 30 -14 13 0 -11 8 -29 23 -40 32 -42 36 -115 65 -115 46z"/>
<path d="M3548 4220 c23 -10 58 -31 77 -46 35 -26 61 -28 34 -2 -23 22 -115
68 -135 68 -11 0 0 -9 24 -20z"/>
<path d="M3431 4214 c0 -11 3 -14 6 -6 3 7 2 16 -1 19 -3 4 -6 -2 -5 -13z"/>
<path d="M2210 4127 c-29 -115 -54 -167 -80 -167 -11 0 -25 9 -32 19 -6 10
-17 17 -23 15 -8 -3 -9 12 -4 53 4 32 8 83 8 113 1 46 -1 52 -12 40 -15 -16
-57 -112 -57 -130 0 -6 -9 -23 -20 -38 -16 -21 -22 -50 -27 -115 -7 -100 0
-107 48 -47 18 22 36 37 40 34 5 -3 9 -25 9 -48 0 -64 18 -148 35 -166 14 -13
16 -13 21 7 3 11 14 23 25 26 10 3 23 17 29 32 10 28 30 26 30 -3 1 -9 7 -28
15 -42 l15 -25 6 23 c8 27 35 29 52 2 7 -11 17 -20 23 -20 6 0 24 -9 40 -21
21 -15 29 -29 30 -52 1 -33 5 -21 25 81 7 34 54 30 87 -8 15 -16 34 -30 42
-30 8 0 15 -7 15 -15 0 -8 8 -31 19 -50 18 -33 19 -34 25 -13 3 13 6 47 6 76
0 46 2 52 20 52 12 0 31 -11 44 -25 13 -14 31 -25 40 -25 9 0 22 -11 28 -25 6
-14 14 -25 17 -25 4 0 17 18 31 41 24 39 26 40 70 36 25 -2 54 -8 65 -11 18
-6 21 -3 20 31 0 21 -4 41 -10 45 -6 5 -5 8 3 8 7 0 10 5 7 10 -11 19 5 48 34
60 21 8 39 9 67 1 49 -14 67 -14 59 -1 -3 5 -1 19 5 30 7 13 8 34 4 53 l-7 32
-12 -28 c-13 -32 -25 -26 -25 14 0 33 -34 78 -49 64 -5 -5 -16 -35 -23 -65
-12 -46 -18 -55 -37 -55 -12 0 -30 -11 -41 -25 l-18 -24 -15 34 c-19 44 -37
122 -37 158 0 59 -16 51 -34 -18 -10 -39 -22 -70 -26 -70 -5 0 -23 -12 -40
-27 l-32 -26 -23 29 c-15 17 -24 42 -25 62 0 36 -15 72 -30 72 -5 0 -13 -12
-16 -27 -9 -36 -34 -74 -44 -68 -5 3 -20 0 -34 -6 -34 -16 -61 8 -70 60 -7 45
-30 71 -40 45 -3 -8 -6 -24 -6 -35 0 -10 -12 -25 -28 -33 -16 -8 -34 -22 -41
-30 -17 -20 -41 -21 -41 -1 0 14 -53 48 -66 43 -15 -7 -23 32 -12 57 9 19 9
31 1 44 -8 12 -8 34 -1 70 15 85 4 68 -22 -32z"/>
<path d="M3365 4086 c11 -8 25 -16 31 -16 6 0 22 -10 36 -22 14 -13 32 -24 39
-26 8 -2 28 -14 44 -26 30 -22 80 -46 60 -28 -72 63 -147 110 -205 127 -24 7
-24 7 -5 -9z"/>
<path d="M3526 4085 c18 -14 17 -14 -11 -11 -16 2 -24 1 -17 -1 7 -3 10 -8 7
-13 -2 -4 14 -20 38 -35 31 -21 38 -23 27 -9 -8 11 2 2 22 -20 39 -40 66 -44
32 -4 -16 19 -16 20 -1 9 9 -8 20 -11 24 -8 3 4 -18 21 -46 38 -28 18 -51 34
-51 36 0 6 60 -27 132 -73 37 -24 68 -42 68 -40 0 6 -152 122 -177 134 -12 7
-32 12 -44 12 -22 0 -22 0 -3 -15z"/>
<path d="M3244 4055 c-9 -23 5 -37 22 -21 18 18 18 22 -1 30 -9 3 -18 -1 -21
-9z"/>
<path d="M4080 4059 c0 -5 5 -7 10 -4 6 3 10 8 10 11 0 2 -4 4 -10 4 -5 0 -10
-5 -10 -11z"/>
<path d="M7702 3978 c-15 -15 -16 -45 -1 -54 14 -8 29 14 29 44 0 24 -10 28
-28 10z"/>
<path d="M3190 3952 c0 -4 26 -20 58 -35 31 -15 86 -48 122 -73 49 -34 55 -37
27 -12 -60 53 -89 74 -144 102 -56 28 -63 30 -63 18z"/>
<path d="M3360 3950 c0 -5 8 -14 18 -20 15 -10 14 -10 -5 -5 -13 3 -33 8 -44
11 -45 13 -12 -15 121 -102 25 -16 25 -16 4 3 -11 10 -18 25 -16 32 3 8 -6 22
-19 32 -24 18 -23 18 19 2 39 -15 56 -33 31 -33 -15 0 -1 -18 24 -31 22 -12
22 -12 3 10 -25 28 -15 27 37 -4 l42 -26 -30 26 c-16 14 -29 29 -28 34 1 5 -5
8 -15 7 -10 0 -16 5 -14 15 1 11 -9 21 -30 29 -18 6 -41 16 -50 21 -23 12 -48
12 -48 -1z"/>
<path d="M3634 3911 c4 -5 21 -20 39 -32 l32 -23 -20 23 c-22 25 -62 51 -51
32z"/>
<path d="M3267 3882 c7 -4 11 -18 8 -30 -5 -28 6 -33 27 -11 16 17 15 19 -7
33 -14 9 -28 16 -32 16 -4 0 -2 -4 4 -8z"/>
<path d="M7645 3878 c-9 -33 -12 -69 -4 -74 5 -3 9 1 9 9 0 8 7 20 15 27 20
16 19 50 0 50 -9 0 -17 -6 -20 -12z"/>
<path d="M7736 3859 c-3 -17 -2 -38 3 -47 8 -15 11 -13 20 11 15 39 14 67 -3
67 -7 0 -16 -14 -20 -31z"/>
<path d="M3326 3842 c-3 -5 1 -9 9 -9 8 0 12 4 9 9 -3 4 -7 8 -9 8 -2 0 -6 -4
-9 -8z"/>
<path d="M6930 3826 c0 -2 7 -7 16 -10 8 -3 12 -2 9 4 -6 10 -25 14 -25 6z"/>
<path d="M3045 3800 c22 -12 56 -32 75 -45 19 -13 53 -35 75 -49 22 -14 51
-34 65 -43 13 -10 21 -12 16 -5 -11 19 -166 125 -201 138 -64 24 -69 24 -30 4z"/>
<path d="M3750 3816 c0 -2 7 -9 15 -16 9 -7 15 -8 15 -2 0 5 -7 12 -15 16 -8
3 -15 4 -15 2z"/>
<path d="M3200 3806 c0 -2 19 -15 43 -28 23 -14 69 -41 102 -62 l60 -37 -39
35 c-22 20 -35 36 -30 36 10 0 -57 44 -68 45 -3 0 -10 3 -14 8 -8 7 -54 10
-54 3z"/>
<path d="M3479 3761 c24 -23 48 -41 54 -41 6 0 8 1 6 3 -2 1 -26 20 -54 41
l-50 38 44 -41z"/>
<path d="M3164 3777 c10 -7 31 -22 47 -35 15 -12 33 -21 41 -20 7 2 12 -2 11
-7 -1 -6 14 -20 32 -32 33 -22 33 -22 38 -2 9 33 -87 96 -158 104 -26 3 -28 2
-11 -8z m161 -77 c3 -5 1 -10 -4 -10 -6 0 -11 5 -11 10 0 6 2 10 4 10 3 0 8
-4 11 -10z"/>
<path d="M7755 3740 c-8 -13 4 -32 16 -25 12 8 12 35 0 35 -6 0 -13 -4 -16
-10z"/>
<path d="M3135 3710 c-4 -6 -1 -17 5 -26 10 -11 16 -12 26 -3 11 9 11 15 3 25
-14 17 -25 18 -34 4z m35 -14 c0 -3 -4 -8 -10 -11 -5 -3 -10 -1 -10 4 0 6 5
11 10 11 6 0 10 -2 10 -4z"/>
<path d="M6885 3710 c3 -5 8 -10 11 -10 2 0 4 5 4 10 0 6 -5 10 -11 10 -5 0
-7 -4 -4 -10z"/>
<path d="M6928 3703 c7 -3 16 -2 19 1 4 3 -2 6 -13 5 -11 0 -14 -3 -6 -6z"/>
<path d="M6958 3673 c7 -3 16 -2 19 1 4 3 -2 6 -13 5 -11 0 -14 -3 -6 -6z"/>
<path d="M3053 3662 c-8 -5 6 -18 40 -36 29 -16 59 -34 67 -41 8 -6 33 -22 55
-34 l40 -23 -30 27 c-53 47 -143 115 -152 115 -4 0 -13 -4 -20 -8z"/>
<path d="M3604 3652 c15 -17 22 -19 33 -11 17 15 17 20 -2 13 -8 -4 -23 0 -33
7 -14 11 -13 9 2 -9z"/>
<path d="M2880 3656 c0 -7 84 -46 88 -41 6 6 -60 45 -75 45 -7 0 -13 -2 -13
-4z"/>
<path d="M2990 3644 c0 -11 124 -92 133 -87 6 3 7 1 3 -5 -7 -12 27 -35 38
-25 3 4 -2 15 -11 26 -11 12 -12 17 -4 12 9 -5 12 -4 7 3 -16 26 -166 95 -166
76z"/>
<path d="M7730 3584 c-13 -33 -13 -51 1 -60 16 -9 29 15 29 54 0 38 -17 42
-30 6z"/>
<path d="M2915 3590 c-3 -5 -1 -11 5 -15 5 -3 10 -17 10 -30 0 -17 4 -23 14
-19 8 3 17 1 21 -5 8 -14 -30 -14 -56 -1 -15 8 -19 7 -19 -4 0 -8 24 -28 53
-44 28 -17 72 -43 97 -58 l45 -27 -25 29 c-14 16 -29 32 -35 36 -43 31 -54 42
-49 49 3 5 10 7 15 4 5 -4 9 -2 9 3 0 6 -7 13 -16 16 -8 3 -13 10 -10 15 3 5
-3 7 -14 4 -21 -5 -28 11 -10 22 6 3 10 1 10 -5 0 -6 5 -8 10 -5 6 3 13 -1 16
-9 5 -12 10 -13 25 -5 15 7 19 6 19 -6 0 -8 5 -15 11 -15 22 0 1 26 -39 48
-47 26 -79 35 -87 22z"/>
<path d="M3010 3588 c0 -7 15 -21 33 -31 l32 -19 -29 31 c-33 35 -36 36 -36
19z"/>
<path d="M7207 3562 c-9 -2 -15 -8 -12 -13 8 -12 45 -12 45 0 0 13 -12 18 -33
13z"/>
<path d="M3080 3533 c0 -9 40 -36 45 -31 2 2 -8 11 -21 21 -13 10 -24 14 -24
10z"/>
<path d="M2728 3503 c6 -2 18 -2 25 0 6 3 1 5 -13 5 -14 0 -19 -2 -12 -5z"/>
<path d="M7202 3484 c-1 -15 2 -23 8 -19 6 4 8 11 5 16 -4 5 -1 9 4 9 6 0 11
5 11 10 0 23 -26 8 -28 -16z"/>
<path d="M2855 3474 c53 -43 149 -108 141 -96 -4 7 -3 12 3 12 5 0 8 7 7 16
-3 22 -102 82 -146 88 l-35 5 30 -25z"/>
<path d="M2785 3473 c27 -15 28 -17 10 -23 -11 -4 -26 -5 -32 -3 -8 3 -13 -3
-13 -16 0 -12 -5 -21 -12 -21 -18 0 3 -17 27 -22 16 -4 12 -7 -15 -15 l-35
-10 45 -23 c25 -12 58 -32 75 -44 83 -59 111 -70 67 -27 -23 23 -40 46 -37 50
6 11 -20 33 -28 24 -4 -3 -7 1 -7 11 0 12 6 15 24 12 17 -3 23 0 22 12 -1 10
6 16 17 16 9 -1 17 2 17 7 0 5 -7 9 -15 9 -8 0 -15 4 -15 9 0 13 -90 71 -109
71 -9 -1 -3 -8 14 -17z"/>
<path d="M7775 3466 c-3 -9 -7 -23 -10 -31 -2 -8 -1 -15 4 -15 10 0 25 50 17
58 -3 2 -8 -3 -11 -12z"/>
<path d="M7399 3407 c6 -8 9 -17 6 -21 -3 -3 0 -2 6 3 12 10 4 31 -13 31 -7 0
-7 -4 1 -13z"/>
<path d="M7714 3396 c-3 -8 -4 -27 -2 -43 l4 -28 16 35 c9 19 14 38 12 42 -8
13 -24 9 -30 -6z"/>
<path d="M2570 3357 c14 -8 36 -19 49 -26 l24 -13 -33 -29 c-18 -16 -29 -29
-24 -29 5 0 2 -5 -6 -10 -13 -9 -13 -10 0 -10 8 0 22 4 30 10 15 9 30 -3 30
-25 0 -5 -4 -4 -9 4 -8 12 -14 12 -41 1 l-32 -13 26 -14 c35 -18 33 -24 -4
-12 -16 6 -37 9 -47 7 -14 -2 -6 -12 31 -41 28 -21 56 -35 63 -32 8 2 12 1 8
-4 -6 -11 42 -51 59 -50 7 0 6 3 -1 6 -19 7 -16 23 5 23 18 1 13 6 -56 60 -34
27 -15 17 73 -37 55 -34 63 -37 36 -14 -18 16 -30 34 -27 40 4 6 0 11 -8 11
-14 0 -20 11 -17 32 0 4 -6 5 -14 2 -29 -12 -15 25 16 41 29 15 32 15 50 -1
11 -9 21 -15 24 -13 2 3 -12 18 -31 35 -18 17 -34 29 -34 26 0 -3 -12 6 -27
20 -35 32 -98 68 -121 68 -12 0 -10 -4 8 -13z"/>
<path d="M2666 3349 c3 -5 29 -24 57 -43 29 -19 71 -48 95 -66 25 -19 40 -25
36 -16 -3 9 -1 16 5 16 23 0 9 18 -41 52 -69 46 -68 46 -116 57 -25 5 -40 5
-36 0z"/>
<path d="M6225 3350 c-3 -5 -1 -10 4 -10 6 0 11 5 11 10 0 6 -2 10 -4 10 -3 0
-8 -4 -11 -10z"/>
<path d="M2225 3330 c-7 -11 -1 -21 46 -76 23 -28 28 -30 44 -18 18 13 17 16
-16 50 -42 44 -66 58 -74 44z"/>
<path d="M2381 3285 c-24 -23 -24 -24 -5 -31 10 -3 36 -12 58 -20 l38 -15 -7
28 c-7 32 -33 63 -49 62 -6 0 -22 -11 -35 -24z"/>
<path d="M7360 3241 c0 -30 59 -21 60 9 0 3 -14 5 -30 6 -22 1 -30 -3 -30 -15z"/>
<path d="M2425 3205 c17 -8 41 -24 54 -34 l25 -19 -26 5 c-30 6 -68 -35 -46
-48 9 -6 6 -13 -10 -27 l-22 -19 42 -19 c23 -10 54 -28 68 -40 14 -11 43 -30
65 -43 l40 -23 -22 24 c-13 13 -23 28 -23 32 0 4 -10 16 -22 26 -19 15 -20 20
-9 34 7 9 10 16 5 16 -5 0 2 7 14 16 18 12 26 13 37 4 8 -7 15 -9 15 -4 -1 15
-157 123 -187 129 l-28 6 30 -16z"/>
<path d="M7375 3200 c3 -5 8 -10 11 -10 2 0 4 5 4 10 0 6 -5 10 -11 10 -5 0
-7 -4 -4 -10z"/>
<path d="M3050 3136 c0 -2 8 -10 18 -17 15 -13 16 -12 3 4 -13 16 -21 21 -21
13z"/>
<path d="M2265 3050 c33 -17 64 -35 70 -41 7 -8 4 -8 -11 0 -17 8 -24 8 -31
-2 -15 -19 -23 -47 -14 -47 5 0 11 6 14 13 2 6 4 0 3 -15 0 -16 -2 -28 -3 -28
-1 0 -14 5 -29 10 -24 9 -25 9 -14 -5 7 -8 9 -15 4 -15 -4 0 1 -7 12 -16 18
-14 18 -15 1 -10 -11 3 -30 9 -44 12 l-25 7 23 -28 c48 -55 203 -153 159 -100
-10 12 -10 15 1 15 14 1 -23 38 -71 73 -36 26 -2 9 45 -23 22 -15 51 -33 65
-40 24 -13 25 -12 8 7 -10 11 -18 23 -18 27 0 4 -12 18 -27 31 -23 20 -25 24
-10 25 9 0 17 7 17 15 0 8 7 15 17 15 14 0 14 2 -3 21 l-19 22 25 -13 25 -13
-25 27 c-15 16 -32 25 -42 23 -10 -3 -16 -2 -13 2 6 11 -35 47 -62 56 -13 3
-23 11 -23 16 0 5 -14 9 -32 9 -30 0 -28 -2 27 -30z m95 -134 c0 -11 -19 -15
-25 -6 -3 5 1 10 9 10 9 0 16 -2 16 -4z"/>
<path d="M2925 3060 c3 -5 11 -10 16 -10 6 0 7 5 4 10 -3 6 -11 10 -16 10 -6
0 -7 -4 -4 -10z"/>
<path d="M2370 3053 c0 -16 16 -30 86 -81 77 -56 87 -60 78 -37 -4 8 -1 15 6
15 21 0 -13 32 -72 67 -58 34 -98 49 -98 36z"/>
<path d="M2075 2920 c3 -5 12 -10 18 -10 7 0 32 -14 57 -32 40 -27 38 -30 -7
-11 -6 2 -17 -6 -24 -18 -9 -17 -9 -24 0 -27 20 -7 12 -28 -16 -38 -26 -9 -23
-11 76 -72 87 -53 100 -59 83 -35 -11 15 -34 41 -52 56 -22 20 -29 32 -22 39
8 8 16 6 27 -6 18 -18 30 -21 20 -6 -3 6 -1 10 4 10 20 0 11 28 -15 49 -15 12
-22 21 -17 21 6 0 16 -7 23 -15 7 -8 17 -15 22 -15 18 0 -83 84 -123 102 -46
20 -63 23 -54 8z m91 -147 c-7 -7 -26 7 -26 19 0 6 6 6 15 -2 9 -7 13 -15 11
-17z"/>
<path d="M2270 2796 c0 -2 12 -12 28 -21 l27 -18 -19 21 c-17 20 -36 29 -36
18z"/>
<path d="M1910 2781 c0 -9 71 -43 77 -37 3 2 -14 14 -36 24 -23 11 -41 17 -41
13z"/>
<path d="M2630 2780 c0 -5 5 -10 11 -10 5 0 7 5 4 10 -3 6 -8 10 -11 10 -2 0
-4 -4 -4 -10z"/>
<path d="M2040 2753 c1 -14 165 -133 183 -133 5 0 4 7 -3 15 -10 12 -10 15 1
15 18 1 -60 70 -78 70 -7 0 -13 5 -13 10 0 6 -9 10 -19 10 -11 0 -23 5 -26 10
-7 12 -45 14 -45 3z"/>
<path d="M2000 2731 c0 -5 6 -12 13 -14 6 -3 -2 -6 -19 -6 -41 -1 -54 -29 -24
-53 20 -16 20 -17 -17 -12 -26 4 -34 3 -24 -4 10 -8 11 -10 0 -14 -11 -4 9
-17 133 -89 15 -9 36 -23 45 -30 17 -13 17 -13 1 7 -10 11 -18 24 -18 29 0 10
-40 45 -52 45 -5 0 -6 5 -3 10 3 6 1 10 -6 10 -7 0 -10 3 -6 6 3 3 13 1 23 -4
13 -7 22 -4 39 14 17 19 24 21 35 11 8 -7 1 4 -14 23 -16 19 -36 39 -46 45
-10 5 -27 16 -39 23 -11 7 -21 8 -21 3z m96 -73 c4 -7 3 -8 -4 -4 -7 4 -12 2
-12 -5 0 -7 -3 -10 -6 -6 -6 5 3 27 11 27 2 0 7 -5 11 -12z"/>
<path d="M1730 2635 c0 -2 28 -18 63 -35 60 -30 101 -60 82 -60 -6 0 -17 4
-24 9 -22 14 -54 -6 -48 -30 4 -14 0 -19 -15 -19 -10 0 -17 -4 -14 -9 4 -5 1
-11 -5 -13 -6 -2 25 -26 68 -53 43 -27 89 -56 103 -64 22 -14 20 -10 -10 29
-19 25 -39 47 -43 48 -4 2 -3 10 4 18 6 8 16 11 21 8 5 -3 12 4 15 15 5 21 7
21 30 6 45 -30 34 -9 -20 36 -85 73 -207 140 -207 114z"/>
<path d="M7660 2570 c-24 -48 -29 -68 -24 -96 3 -19 10 -36 14 -39 4 -3 19 23
34 56 26 60 35 139 16 139 -5 0 -23 -27 -40 -60z"/>
<path d="M1891 2592 c13 -21 156 -125 176 -128 11 -2 11 2 -3 17 -16 18 -16
19 1 19 12 0 0 14 -36 41 -82 62 -164 93 -138 51z"/>
<path d="M1600 2469 c0 -8 31 -32 68 -54 37 -21 79 -48 94 -59 34 -24 49 -15
17 11 -13 10 -37 32 -54 49 -17 17 -45 36 -61 41 -16 6 -37 14 -46 18 -12 5
-18 3 -18 -6z"/>
<path d="M1759 2421 c25 -22 48 -38 53 -35 4 3 8 1 8 -4 0 -5 20 -23 45 -41
25 -18 45 -28 45 -22 0 5 -5 13 -10 16 -6 4 -9 13 -8 22 4 21 -98 91 -142 99
l-35 5 44 -40z"/>
<path d="M4340 2439 c-25 -5 -65 -11 -90 -13 -108 -11 -313 -101 -373 -164
-25 -25 -26 -30 -12 -42 19 -16 19 -30 0 -30 -9 0 -12 -6 -9 -15 5 -11 2 -13
-10 -9 -14 5 -18 0 -15 -22 0 -3 -8 -12 -18 -20 -12 -8 -13 -13 -5 -14 7 0 10
-5 6 -11 -5 -8 -9 -8 -14 1 -6 9 -13 9 -28 1 -28 -15 -30 -14 -34 9 -3 20 -5
19 -35 -8 -79 -73 -66 -225 30 -344 41 -51 156 -128 246 -165 l73 -31 73 34
c40 18 103 42 141 53 81 23 66 27 -21 6 -68 -16 -87 -18 -65 -6 8 4 55 16 104
27 49 10 84 20 77 22 -6 2 -43 -4 -82 -13 -38 -10 -72 -15 -75 -12 -3 2 18 10
45 17 28 7 54 17 57 22 4 7 -2 7 -17 3 -40 -13 -93 -24 -97 -20 -4 4 8 7 101
30 38 9 78 15 90 15 12 -1 25 -1 30 0 19 6 33 6 50 -2 10 -5 17 -5 17 1 0 5
14 9 30 9 17 -1 30 -6 30 -12 0 -6 5 -4 10 4 5 8 10 10 10 4 0 -6 17 -10 38
-10 86 -1 210 -18 252 -35 25 -10 79 -35 120 -57 62 -32 80 -37 98 -29 32 14
24 26 -44 64 -130 73 -342 118 -506 107 -51 -3 -120 -7 -153 -9 -125 -8 -244
-42 -333 -97 l-32 -20 10 28 c6 15 18 34 28 41 15 13 15 13 -5 4 -29 -14 -33
-14 -33 4 0 16 34 37 68 41 20 2 21 0 10 -13 -7 -9 -8 -14 -3 -12 6 3 31 14
56 26 65 30 192 63 267 70 64 6 96 22 45 24 -15 0 -52 1 -81 2 -29 0 -49 4
-44 9 21 21 363 35 458 19 69 -12 202 -69 224 -97 7 -8 21 -14 31 -14 11 0 19
-5 19 -10 0 -6 11 -15 24 -21 13 -6 29 -22 35 -36 11 -24 11 -24 -11 -9 -12 9
-31 16 -42 16 -15 0 -14 -4 10 -22 16 -12 33 -28 37 -35 11 -18 35 -15 81 10
41 23 58 47 34 47 -7 0 -28 27 -47 60 -47 82 -71 101 -192 148 -117 46 -152
54 -74 16 39 -18 43 -23 20 -19 -28 5 -27 4 10 -15 46 -23 39 -22 -125 22 -98
26 -137 32 -265 35 -172 5 -297 -14 -426 -67 -82 -33 -94 -36 -83 -17 6 8 3 8
-9 -1 -9 -8 -22 -10 -28 -6 -8 4 -9 3 -5 -4 4 -8 -3 -11 -24 -9 -25 2 -29 5
-24 22 4 11 10 21 15 23 4 2 5 10 2 18 -3 9 2 14 16 14 12 0 38 7 59 16 56 24
93 34 87 23 -8 -13 35 -11 75 3 19 6 92 21 164 33 l131 22 -53 7 c-58 9 -64
24 -16 39 45 14 288 8 368 -9 83 -17 170 -56 246 -109 76 -54 100 -76 93 -88
-3 -6 -1 -7 4 -4 17 11 101 -70 108 -103 4 -17 12 -30 20 -30 16 0 76 74 100
125 40 83 18 224 -43 283 -23 22 -25 22 -37 5 -7 -10 -11 -21 -9 -25 3 -5 -9
-8 -25 -8 -17 0 -31 -5 -31 -10 0 -14 -38 6 -69 36 -29 30 -19 31 20 3 16 -11
29 -16 29 -10 0 5 15 14 34 21 51 17 54 48 8 87 -73 62 -215 126 -342 154 -25
5 -53 12 -64 15 -14 5 -16 3 -10 -7 6 -12 5 -12 -9 0 -12 9 -17 10 -17 2 0 -7
-4 -9 -10 -6 -5 3 -10 2 -10 -2 0 -5 -17 -8 -37 -7 -21 1 -43 -2 -50 -7 -8 -7
-10 -4 -6 11 4 16 2 19 -12 13 -12 -4 -16 -3 -12 4 4 6 1 13 -6 15 -21 8 -270
5 -317 -3z m275 -9 c22 8 35 5 35 -11 0 -3 -10 -9 -22 -12 -23 -6 -63 15 -51
27 4 4 9 3 11 -3 2 -6 12 -7 27 -1z m-30 -91 c-24 -6 -18 -7 28 -6 31 1 57 0
57 -4 0 -3 34 -11 75 -18 183 -30 307 -93 447 -227 77 -73 94 -107 89 -188 -1
-18 -2 -18 -25 3 -13 13 -27 35 -31 49 -3 14 -15 38 -25 53 -11 14 -24 38 -29
51 -17 45 -226 138 -401 179 -58 14 -137 15 -310 5 -91 -5 -144 -15 -270 -51
-24 -7 -24 -7 -5 8 27 20 182 57 275 67 80 8 54 12 -70 11 -76 0 -69 5 31 24
l74 14 -85 -5 c-47 -3 -116 -13 -155 -21 -102 -22 -125 -25 -80 -9 56 19 131
35 189 41 27 3 52 8 55 11 8 9 -132 -5 -206 -21 -35 -7 -63 -10 -63 -6 0 4 46
15 103 25 56 10 109 19 117 21 8 1 67 3 130 3 77 0 105 -3 85 -9z m-458 -85
c-3 -4 -140 -52 -192 -68 -11 -3 20 13 69 38 51 25 96 41 107 39 11 -3 18 -7
16 -9z m433 -44 c0 -5 -5 -10 -11 -10 -5 0 -7 5 -4 10 3 6 8 10 11 10 2 0 4
-4 4 -10z m-172 -18 c2 4 8 6 12 3 5 -3 60 -7 122 -9 137 -5 245 -20 316 -43
50 -16 76 -42 30 -29 -200 55 -435 66 -587 27 -110 -28 -134 -25 -46 5 69 24
70 24 20 18 -44 -6 -48 -5 -34 8 21 21 43 25 109 17 30 -3 57 -2 58 3z m-239
-16 c-15 -13 -89 -45 -89 -38 0 5 17 16 38 25 36 15 60 21 51 13z m231 -106
c0 -5 -8 -10 -17 -11 -10 0 -38 -2 -63 -4 l-45 -4 45 13 c56 17 80 19 80 6z
m-644 -121 c3 -6 1 -15 -6 -19 -7 -4 -9 -13 -6 -19 4 -6 2 -11 -3 -11 -6 0
-11 14 -11 30 0 30 13 40 26 19z m219 -99 c3 -5 1 -10 -4 -10 -6 0 -11 5 -11
10 0 6 2 10 4 10 3 0 8 -4 11 -10z m215 -190 c-8 -5 -19 -10 -25 -10 -5 0 -3
5 5 10 8 5 20 10 25 10 6 0 3 -5 -5 -10z"/>
<path d="M1630 2350 c-8 -5 -10 -10 -5 -11 6 0 1 -4 -10 -8 -18 -7 -16 -10 15
-26 19 -9 49 -27 65 -39 17 -12 47 -33 68 -46 l39 -23 -15 30 c-9 16 -22 35
-31 42 -18 15 -9 44 12 36 12 -5 13 -3 2 10 -7 9 -20 13 -28 10 -9 -3 -12 0
-9 8 4 10 -3 14 -21 14 -15 0 -36 3 -47 7 -11 3 -27 2 -35 -4z"/>
<path d="M1820 2317 c0 -3 17 -17 38 -33 30 -23 33 -24 17 -5 -19 22 -55 46
-55 38z"/>
<path d="M3827 2313 c-4 -3 -7 -11 -7 -17 0 -6 5 -5 12 2 6 6 9 14 7 17 -3 3
-9 2 -12 -2z"/>
<path d="M6722 1856 c-9 -20 -10 -32 -3 -39 16 -16 23 -3 19 34 l-3 34 -13
-29z"/>
<path d="M4486 1858 c3 -4 11 -5 19 -1 21 7 19 12 -4 10 -11 0 -18 -5 -15 -9z"/>
<path d="M5442 1784 c-7 -8 -10 -19 -6 -26 5 -7 11 -5 21 7 23 33 11 49 -15
19z"/>
<path d="M5306 1753 c-9 -23 14 -45 34 -33 10 7 11 10 3 10 -7 0 -13 9 -13 20
0 24 -15 26 -24 3z"/>
<path d="M4428 1723 c6 -2 18 -2 25 0 6 3 1 5 -13 5 -14 0 -19 -2 -12 -5z"/>
<path d="M4333 1713 c9 -2 23 -2 30 0 6 3 -1 5 -18 5 -16 0 -22 -2 -12 -5z"/>
<path d="M2250 1640 c0 -5 5 -10 11 -10 5 0 7 5 4 10 -3 6 -8 10 -11 10 -2 0
-4 -4 -4 -10z"/>
<path d="M4363 1599 c-23 -4 -79 -18 -125 -30 -90 -24 -87 -31 19 -43 58 -6
61 -6 56 14 -6 22 -7 22 162 23 39 0 73 5 78 11 5 8 10 6 17 -4 5 -8 10 -10
10 -4 0 6 14 11 30 12 17 0 30 -4 30 -11 0 -8 3 -8 12 1 7 7 23 11 38 11 24
-1 23 -2 -5 -9 -20 -5 -24 -8 -10 -9 11 -1 31 -4 45 -7 20 -4 22 -3 10 5 -13
9 -13 11 3 11 9 0 17 -3 17 -7 0 -5 28 -8 61 -9 68 -1 61 8 -18 25 -94 19
-362 32 -430 20z"/>
<path d="M2095 1550 c-3 -5 1 -10 10 -10 9 0 13 5 10 10 -3 6 -8 10 -10 10 -2
0 -7 -4 -10 -10z"/>
<path d="M4380 1540 c-23 -7 -23 -8 -3 -9 12 -1 25 4 28 9 3 6 5 10 3 9 -2 -1
-14 -5 -28 -9z"/>
<path d="M6165 1350 c-3 -6 1 -7 9 -4 18 7 21 14 7 14 -6 0 -13 -4 -16 -10z"/>
<path d="M6235 1349 c-4 -6 -14 -8 -22 -5 -8 3 -11 1 -8 -4 9 -15 32 -12 39 5
6 17 0 20 -9 4z"/>
<path d="M4038 1296 c-28 -9 -18 -11 72 -18 149 -11 334 -15 355 -8 15 5 13 8
-11 18 -35 13 -131 15 -139 1 -9 -13 -49 -11 -64 4 -15 15 -164 17 -213 3z"/>
<path d="M4516 1271 c-8 -12 13 -19 76 -27 29 -3 76 -12 103 -19 28 -8 82 -17
120 -20 l70 -6 -31 20 c-20 14 -61 25 -110 31 -44 6 -95 15 -114 20 -43 12
-107 13 -114 1z"/>
<path d="M5868 951 c-14 -24 -151 -145 -283 -251 -89 -72 -89 -72 -225 -166
-52 -36 -106 -77 -120 -89 -14 -13 -52 -34 -85 -46 -33 -12 -65 -26 -71 -31
-7 -5 -47 -15 -90 -24 -99 -18 -480 -21 -639 -5 -184 20 -536 82 -602 107 -35
13 -63 21 -63 19 0 -13 62 -60 105 -81 63 -29 126 -39 395 -64 414 -38 606
-44 780 -25 85 9 166 20 180 24 65 20 427 274 654 457 117 96 118 97 112 132
-3 20 -12 42 -20 50 -12 13 -16 12 -28 -7z"/>
</g>
</svg>
