<?xml version="1.0" standalone="no"?>
<!DOCTYPE svg PUBLIC "-//W3C//DTD SVG 20010904//EN"
 "http://www.w3.org/TR/2001/REC-SVG-20010904/DTD/svg10.dtd">
<svg version="1.0" xmlns="http://www.w3.org/2000/svg"
 width="1060.000000pt" height="708.000000pt" viewBox="0 0 1060.000000 708.000000"
 preserveAspectRatio="xMidYMid meet">

<g transform="translate(0.000000,708.000000) scale(0.100000,-0.100000)"
fill="#000000" stroke="none">
<path d="M5075 6299 c-4 -5 16 -48 45 -94 85 -140 85 -173 -7 -232 -69 -44
-115 -62 -211 -78 -141 -25 -291 -16 -350 21 -12 8 -56 66 -98 129 -52 79 -81
115 -94 115 -28 0 -166 -172 -190 -237 -11 -30 -20 -60 -20 -67 0 -7 17 -36
38 -64 30 -41 41 -50 59 -46 12 3 57 -5 100 -19 43 -14 105 -33 138 -42 72
-20 121 -45 108 -54 -31 -20 -10 -71 29 -71 24 0 40 24 26 38 -9 9 -7 12 10
12 12 0 22 -4 22 -9 0 -5 86 -8 201 -7 176 2 203 5 214 19 7 9 20 17 29 17 17
0 17 1 21 39 3 33 25 49 161 122 63 33 135 76 160 95 25 19 52 33 61 32 21 -4
31 29 32 106 1 56 -1 61 -37 95 -54 52 -138 93 -294 145 -155 52 -145 50 -153
35z m55 -623 c0 -3 -4 -8 -10 -11 -5 -3 -10 -1 -10 4 0 6 5 11 10 11 6 0 10
-2 10 -4z m-130 -16 c0 -5 -2 -10 -4 -10 -3 0 -8 5 -11 10 -3 6 -1 10 4 10 6
0 11 -4 11 -10z"/>
<path d="M5520 5741 c-14 -4 -30 -17 -36 -29 -6 -13 -21 -33 -33 -46 -11 -12
-21 -26 -21 -30 0 -4 -10 -20 -21 -36 -16 -21 -28 -27 -46 -24 -14 3 -52 -4
-84 -16 -33 -11 -67 -20 -77 -20 -9 0 -35 -9 -57 -19 l-40 -18 45 -42 c38 -35
49 -40 75 -35 44 10 66 27 61 47 -7 27 25 20 62 -14 34 -30 35 -54 2 -44 -17
5 -18 3 -7 -25 10 -25 9 -33 -3 -40 -8 -5 -23 -7 -32 -4 -10 3 -18 1 -18 -4 0
-22 -34 -22 -59 1 -51 47 -227 155 -271 167 -45 12 -112 47 -118 62 -8 19 -32
6 -32 -17 0 -19 13 -32 70 -65 81 -47 87 -55 66 -79 -20 -22 -15 -27 114 -104
52 -31 113 -73 135 -93 52 -46 110 -84 131 -84 9 0 14 -6 11 -13 -3 -9 3 -13
17 -13 16 1 21 -5 21 -26 -1 -37 17 -21 56 52 17 32 44 71 60 86 l30 29 -7
-42 c-3 -23 -1 -64 5 -91 14 -55 77 -140 104 -139 20 1 22 8 5 25 -7 7 -8 12
-2 11 5 0 19 -13 32 -29 26 -33 12 -52 -19 -24 -10 9 -19 13 -19 7 0 -5 28
-35 61 -66 44 -40 63 -65 64 -84 3 -30 31 -90 79 -167 15 -26 32 -61 36 -79
62 -242 130 -395 207 -468 l38 -36 65 12 c36 7 101 20 145 30 133 27 189 35
199 25 5 -5 -2 -11 -18 -14 -62 -14 -72 -16 -82 -23 -6 -5 -14 -48 -18 -98 -9
-123 -15 -153 -35 -159 -17 -6 -37 -7 -145 -6 -37 0 -72 -2 -76 -5 -4 -3 -18
20 -30 51 -27 65 -43 60 -28 -9 13 -55 10 -59 -60 -98 -26 -14 -46 -19 -52
-13 -20 20 -19 70 4 135 13 37 20 71 16 76 -4 4 -15 52 -24 106 -28 173 -132
501 -136 432 -1 -11 -4 -14 -7 -7 -2 6 -9 10 -14 6 -5 -3 -9 2 -9 11 0 9 -4
13 -10 10 -5 -3 -15 5 -22 19 -6 14 -15 26 -20 26 -4 0 -8 4 -8 9 0 18 -74 91
-113 111 -46 25 -60 21 -20 -5 15 -10 33 -26 40 -34 6 -9 17 -16 25 -16 7 0
12 -8 12 -18 -1 -9 2 -14 7 -12 12 8 42 -42 33 -56 -4 -8 -3 -9 4 -5 6 4 18
-6 27 -23 17 -34 20 -65 4 -56 -5 4 -3 -10 6 -32 9 -21 19 -45 22 -53 3 -8 15
-35 25 -59 23 -50 45 -168 34 -178 -7 -7 -21 8 -29 32 -3 6 -8 6 -13 1 -5 -5
-4 -11 4 -13 17 -6 15 -23 -3 -23 -9 0 -18 -7 -22 -16 -5 -13 -7 -13 -14 -2
-11 18 -1 49 24 71 11 9 15 17 9 17 -7 0 -12 5 -12 11 0 5 4 8 9 4 28 -16 -42
138 -104 230 -91 136 -138 186 -204 216 -43 19 -44 20 -26 39 21 23 74 27 94
8 12 -11 13 -9 6 7 -5 11 -7 34 -6 50 2 17 3 38 4 48 1 10 9 17 22 17 19 0 18
2 -5 20 -25 19 -62 27 -58 13 4 -16 -14 -53 -23 -48 -5 4 -9 -1 -9 -10 0 -9
-4 -14 -9 -11 -5 3 -12 -6 -16 -22 -4 -15 -16 -35 -26 -45 -27 -26 -20 -49 21
-70 65 -33 95 -55 92 -67 -1 -6 2 -9 7 -6 12 8 34 -21 26 -34 -4 -6 -1 -9 6
-8 6 2 14 -3 17 -11 3 -8 0 -11 -7 -7 -12 8 -2 -19 36 -92 13 -24 23 -51 24
-60 0 -9 11 -37 24 -62 13 -25 31 -61 40 -80 21 -45 32 -164 16 -174 -7 -4
-11 0 -11 12 0 11 -9 22 -20 25 -11 3 -20 1 -20 -4 0 -5 -4 -9 -8 -9 -10 0
-36 115 -29 132 4 9 6 7 6 -4 1 -10 6 -18 12 -18 6 0 8 -7 5 -16 -3 -8 -2 -12
3 -9 14 8 9 48 -9 63 -8 8 -9 11 -2 7 31 -16 -24 113 -74 170 -13 15 -24 31
-24 35 0 4 -8 16 -17 28 -10 11 -35 41 -56 65 -38 46 -107 93 -158 107 -16 5
-29 7 -29 5 0 -6 94 -60 115 -66 11 -3 19 -12 17 -21 -1 -9 3 -20 9 -24 8 -4
9 -3 5 4 -4 7 -3 12 2 12 12 0 46 -48 77 -110 l27 -55 -26 30 c-24 29 -24 26
9 -55 19 -47 35 -90 35 -97 0 -7 6 -16 13 -20 31 -19 57 -101 56 -175 0 -64
-2 -70 -12 -48 -21 46 -66 67 -68 33 -1 -25 -14 22 -23 82 -9 62 8 50 22 -15
10 -44 10 -44 7 20 -2 73 -18 113 -82 210 -24 36 -54 80 -66 99 -24 38 -97
111 -110 111 -5 0 -21 8 -35 18 -24 17 -72 35 -72 27 0 -1 25 -18 54 -36 30
-19 61 -44 67 -57 8 -14 15 -18 20 -11 8 14 48 -38 83 -111 l27 -55 -26 30
c-13 17 -25 27 -25 24 0 -12 81 -193 89 -198 30 -20 60 -152 47 -206 -8 -30
-26 -33 -26 -5 0 14 -7 20 -22 21 -21 0 -21 1 -4 8 17 6 17 8 4 14 -20 7 -28
0 -28 -25 0 -11 -4 -17 -9 -14 -5 3 -12 -10 -15 -29 -8 -42 -26 -47 -27 -7 0
15 -3 21 -6 14 -7 -18 -23 -4 -23 20 0 21 0 21 -19 -1 -14 -16 -21 -18 -24 -9
-3 7 -6 -4 -6 -24 -1 -35 -21 -64 -29 -40 -2 6 -10 8 -19 5 -9 -4 -14 -2 -10
3 3 5 -3 10 -14 10 -10 0 -19 -5 -20 -11 -1 -5 -5 1 -9 15 -7 21 -8 18 -10
-20 -1 -25 -2 -48 -1 -52 0 -5 -3 -8 -9 -8 -5 0 -10 7 -10 16 0 8 -5 12 -11 8
-6 -3 -15 0 -20 7 -7 11 -9 9 -9 -6 0 -15 -2 -17 -9 -6 -12 19 -34 9 -38 -19
-4 -30 -5 -30 -32 -23 -14 4 -19 8 -11 13 8 5 7 9 -4 13 -11 4 -16 1 -16 -10
0 -13 -3 -14 -12 -5 -19 19 -28 14 -28 -15 0 -16 -4 -35 -9 -42 -8 -12 -12
-10 -21 10 -7 14 -18 26 -25 26 -8 0 -12 -4 -9 -8 2 -4 -5 -13 -16 -19 -17 -9
-20 -8 -21 7 -1 17 -12 -19 -23 -76 -3 -13 -10 -29 -15 -34 -6 -6 -8 -3 -5 9
3 11 -4 40 -15 64 l-21 45 0 -33 c0 -18 -7 -40 -15 -48 -8 -9 -15 -12 -15 -7
0 4 -5 1 -10 -7 -5 -8 -7 -35 -4 -60 8 -62 -12 -212 -30 -225 -8 -5 -23 -16
-33 -23 -17 -12 -16 -13 5 -8 26 5 29 -6 7 -24 -9 -7 -13 -20 -10 -29 3 -8 3
-12 -1 -8 -4 3 -19 -3 -35 -13 -35 -26 -98 -37 -171 -33 -48 3 -58 1 -58 -12
0 -9 5 -13 11 -10 6 4 9 0 7 -11 -6 -39 -82 -60 -91 -26 -3 10 -5 7 -6 -10 -1
-16 6 -31 17 -37 14 -8 9 -11 -27 -17 l-44 -7 44 -18 c24 -10 57 -18 73 -18
l29 -1 -24 -26 c-33 -36 -244 -180 -365 -250 -97 -56 -336 -174 -382 -189 -13
-4 -21 -9 -19 -11 7 -7 114 39 262 113 175 88 234 123 414 248 85 59 163 108
174 111 36 7 92 40 101 61 6 12 26 29 45 38 43 20 43 20 -79 -90 -171 -155
-464 -345 -683 -444 -53 -24 -95 -46 -93 -48 7 -8 262 118 391 193 117 67 388
263 485 351 26 23 53 43 60 43 6 0 27 12 45 26 19 14 39 23 44 19 7 -4 8 1 4
12 -3 10 -2 15 2 10 5 -4 19 0 31 8 22 14 41 18 139 31 22 3 48 7 57 10 10 3
23 2 29 -1 13 -9 0 -18 -126 -85 -170 -90 -280 -152 -290 -163 -10 -10 260
128 365 186 l55 31 -72 -79 c-126 -141 -329 -313 -463 -394 -30 -19 -57 -37
-60 -40 -10 -13 -119 -81 -194 -122 -42 -22 -76 -43 -76 -46 0 -11 182 94 305
176 188 125 332 241 480 384 72 70 134 127 138 127 5 0 5 4 2 10 -3 5 0 7 8 4
8 -3 18 -1 22 5 3 6 12 11 18 11 7 0 6 -4 -3 -10 -12 -8 -10 -10 10 -10 20 0
22 -2 10 -10 -13 -8 -12 -10 3 -10 9 0 17 5 17 11 0 6 7 8 15 5 9 -3 23 -2 33
4 9 5 30 11 45 15 16 3 39 16 52 29 13 13 27 21 31 17 4 -3 4 -1 1 5 -7 13 14
33 58 54 17 8 33 19 37 25 5 6 8 4 8 -4 0 -11 4 -10 16 5 11 13 10 9 -3 -14
-57 -104 -275 -353 -423 -483 -84 -73 -235 -188 -352 -268 -88 -60 -106 -79
-25 -28 314 201 607 466 799 722 35 47 69 85 76 85 6 0 12 3 12 8 0 4 17 8 37
9 68 2 100 12 167 48 56 30 79 36 168 44 57 5 115 14 130 20 25 9 31 6 95 -61
100 -105 111 -115 193 -177 103 -78 142 -102 258 -160 245 -123 628 -223 947
-247 125 -9 104 1 -30 15 -543 57 -979 223 -1254 478 -68 62 -142 151 -140
169 0 5 27 22 61 39 33 16 73 44 87 62 14 18 31 33 38 33 17 0 128 -54 208
-102 67 -39 71 -40 110 -29 74 22 139 33 167 27 44 -9 34 11 -39 82 -40 37
-53 53 -31 38 20 -14 39 -26 43 -26 3 0 29 -17 58 -38 119 -87 92 -58 -56 61
-53 44 -100 83 -103 88 -10 17 95 -28 108 -46 4 -5 11 -6 15 -1 4 4 -1 14 -11
22 -11 8 -16 14 -10 14 5 0 27 -16 49 -35 22 -19 45 -35 52 -35 6 0 13 -3 15
-7 5 -13 66 -53 79 -53 7 0 9 -3 6 -6 -9 -10 41 -46 53 -39 5 3 10 0 10 -8 0
-14 96 -107 111 -107 5 0 9 -6 9 -14 0 -8 14 -19 30 -25 17 -5 30 -15 30 -22
0 -13 46 -59 59 -59 4 0 19 -10 33 -22 14 -13 41 -36 61 -53 20 -16 49 -40 63
-53 15 -13 45 -35 68 -50 22 -15 47 -33 54 -39 7 -7 25 -13 40 -13 20 0 23 -3
14 -12 -19 -19 -14 -30 11 -24 12 3 16 3 9 0 -10 -5 -9 -10 4 -25 9 -10 23
-19 31 -19 7 0 18 -11 24 -24 6 -13 32 -36 57 -52 26 -16 63 -45 83 -64 44
-42 73 -60 95 -60 12 0 15 -6 11 -20 -4 -17 3 -25 39 -41 24 -12 44 -24 44
-28 0 -3 15 -22 33 -41 30 -32 36 -50 38 -107 1 -13 5 -23 10 -23 5 0 9 -10
10 -22 0 -13 3 -17 6 -10 2 6 11 12 19 12 24 0 26 -44 4 -95 -42 -96 -26 -227
35 -288 19 -19 35 -40 35 -45 0 -18 19 -23 40 -12 16 8 36 2 111 -36 51 -25
174 -79 273 -119 244 -98 256 -104 256 -131 0 -26 -16 -34 -53 -27 -15 3 -27
1 -27 -4 0 -10 123 -43 163 -43 28 0 38 24 13 33 -7 3 -17 22 -21 43 -3 20
-31 74 -61 120 -30 45 -58 98 -61 118 -3 20 -4 36 -2 36 2 1 47 3 99 6 109 6
164 22 264 74 39 20 92 45 119 55 45 17 47 19 31 36 -32 35 -123 61 -231 67
-66 3 -107 1 -116 -6 -7 -6 -30 -13 -51 -15 -21 -2 -41 -8 -44 -14 -4 -6 -16
-7 -27 -3 -15 6 -28 -2 -57 -33 -21 -22 -38 -46 -38 -54 0 -11 -5 -11 -20 -3
-11 6 -20 19 -20 30 0 11 -10 22 -22 26 -29 9 -38 22 -38 58 0 67 147 153 310
181 19 3 53 11 75 17 22 6 122 12 223 13 149 2 186 0 197 -12 11 -10 15 -39
15 -101 0 -48 4 -92 8 -99 10 -16 52 -5 52 13 0 8 10 14 23 13 22 0 83 -75
168 -206 19 -29 39 -52 45 -52 7 -1 28 38 49 86 21 49 51 117 68 153 89 191
18 349 -196 439 -93 38 -227 65 -455 91 -101 11 -192 25 -203 30 -13 7 -19 7
-19 0 0 -5 -10 -10 -23 -10 -13 0 -28 -5 -34 -11 -5 -5 -57 -15 -114 -20 -66
-6 -109 -15 -120 -25 -9 -8 -20 -14 -25 -13 -5 1 -25 -1 -45 -5 -23 -5 -45 -4
-58 3 -17 9 -22 8 -31 -9 -6 -11 -20 -20 -30 -20 -11 0 -20 -4 -20 -10 0 -5
-19 -15 -42 -21 -24 -7 -63 -26 -88 -43 -25 -17 -66 -38 -92 -48 -26 -9 -61
-26 -78 -38 -38 -27 -50 -19 -49 33 3 60 -7 83 -41 97 -17 7 -30 18 -30 25 0
7 -26 38 -58 69 -50 49 -58 61 -59 96 -1 22 2 40 8 40 5 0 9 7 9 16 0 13 -3
14 -14 5 -10 -9 -21 -5 -47 20 -26 25 -30 32 -18 40 20 12 19 13 74 -36 31
-28 44 -45 34 -45 -21 0 -31 -24 -23 -57 8 -31 63 -81 116 -106 21 -10 38 -24
38 -32 0 -18 16 -20 26 -3 4 6 0 16 -9 23 -10 7 -17 17 -17 24 0 6 -12 11 -26
11 -14 0 -23 4 -19 9 3 5 -5 17 -17 25 -12 9 -18 19 -14 23 5 5 11 2 13 -4 5
-15 33 -17 33 -3 0 6 5 10 11 10 5 0 8 -3 6 -7 -8 -13 12 -55 23 -48 5 3 10
-3 10 -15 0 -12 4 -19 9 -15 16 9 22 -12 11 -39 -12 -32 2 -34 31 -5 23 23 39
18 18 -7 -11 -13 -11 -17 1 -24 27 -15 35 -10 32 18 -2 21 3 30 23 39 20 9 25
8 25 -2 0 -7 -6 -16 -12 -18 -9 -4 -7 -6 3 -6 9 -1 24 8 34 19 10 11 14 20 9
20 -5 0 2 6 16 14 14 7 29 9 35 4 15 -13 25 -9 25 10 1 16 1 16 14 -1 8 -10
20 -15 30 -11 9 3 16 1 16 -6 0 -6 5 -8 10 -5 6 3 10 1 10 -5 0 -7 6 -5 15 4
8 8 15 19 15 25 0 5 9 12 19 16 11 3 18 11 16 18 -7 18 7 33 39 44 40 13 43
30 9 45 -15 7 -34 18 -41 25 -13 13 -31 19 -19 7 3 -4 -1 -13 -9 -22 -14 -13
-17 -13 -25 -1 -5 8 -8 19 -8 24 0 6 3 4 6 -2 7 -19 19 -16 20 5 2 19 -92 90
-103 79 -4 -4 -15 5 -26 18 -11 14 -58 52 -105 85 -82 57 -112 72 -98 50 3 -5
1 -10 -5 -10 -7 0 -10 6 -7 14 5 13 -21 46 -36 46 -4 0 -15 8 -26 18 -28 26
-101 85 -126 102 -12 8 -43 33 -70 55 -97 82 -133 110 -155 125 -13 8 -35 26
-49 39 -34 30 -125 91 -137 91 -5 0 -17 8 -26 18 -36 36 -55 52 -64 52 -5 0
-17 8 -25 18 -20 21 -70 65 -128 112 -23 19 -52 43 -63 53 -12 9 -24 17 -28
17 -3 0 -17 10 -29 22 -21 19 -24 20 -33 5 -13 -24 -31 -21 -25 4 4 17 3 19
-6 10 -16 -16 -32 -14 -18 3 10 11 8 16 -5 24 -14 8 -16 15 -8 31 9 19 11 19
41 4 18 -8 30 -19 27 -24 -3 -5 -2 -9 3 -8 19 3 46 -1 40 -7 -6 -6 16 -34 28
-34 3 0 11 -4 18 -10 22 -18 172 -140 184 -150 7 -6 15 -10 18 -10 3 0 17 -10
30 -22 26 -25 31 -29 90 -73 22 -16 49 -37 59 -47 11 -10 23 -18 27 -18 5 0
35 -22 68 -50 33 -27 63 -50 67 -50 6 0 55 -39 109 -88 11 -9 32 -24 47 -31
15 -8 25 -17 23 -21 -3 -4 3 -7 13 -6 9 0 16 -5 15 -11 -2 -7 6 -13 17 -13 11
0 29 -13 42 -30 12 -16 27 -30 34 -30 7 0 17 -6 21 -13 10 -15 139 -112 203
-152 25 -15 95 -61 157 -102 61 -40 136 -85 165 -100 29 -15 55 -30 58 -33 7
-7 70 -31 100 -37 14 -3 30 -9 35 -12 8 -6 70 -7 108 -2 5 1 -37 24 -92 52
-56 27 -101 53 -101 58 0 4 26 15 57 25 32 10 107 41 168 69 552 252 846 695
735 1107 -17 63 -20 44 -4 -30 29 -136 11 -288 -49 -438 -111 -272 -445 -547
-841 -692 l-89 -32 -41 23 c-128 71 -322 217 -1368 1024 -71 55 -137 105 -146
110 -9 6 -43 30 -75 54 -46 35 -60 42 -67 31 -5 -8 -6 -19 -2 -25 3 -5 -2 -4
-11 4 -14 11 -15 17 -6 28 9 10 9 17 1 25 -9 9 -12 8 -12 -5 0 -9 -5 -17 -11
-17 -6 0 -8 8 -4 19 5 17 -16 40 -74 78 -2 1 4 33 12 71 10 45 13 80 8 98 l-8
29 -8 -29 -8 -30 -9 25 c-9 24 -27 103 -33 147 -4 29 -56 109 -95 147 -16 16
-30 34 -30 39 0 6 -11 24 -25 40 -14 16 -25 27 -25 24 0 -2 18 -40 40 -83 40
-75 46 -109 14 -69 -15 19 -16 19 -9 -1 4 -11 14 -40 22 -65 17 -50 28 -65 46
-65 27 0 62 -235 37 -250 -12 -7 -13 2 -12 70 1 45 1 47 -9 23 -12 -31 -32
-38 -27 -10 1 9 0 22 -4 27 -3 6 -14 48 -23 94 -9 47 -22 90 -29 96 -6 7 -18
23 -26 35 -97 145 -130 169 -70 50 30 -59 45 -100 36 -100 -3 0 -15 18 -26 40
-26 51 -36 52 -14 3 9 -21 21 -55 27 -77 6 -23 17 -41 28 -43 22 -6 38 -50 44
-122 3 -38 2 -48 -4 -31 l-8 25 -7 -27 c-11 -37 -34 -26 -31 15 1 18 -4 44
-11 59 -8 15 -14 29 -13 30 8 12 -17 88 -37 113 -34 42 -33 41 -97 128 -31 42
-59 77 -62 77 -3 0 12 -28 33 -62 43 -72 85 -168 73 -168 -5 0 -14 14 -21 30
-20 47 -31 45 -15 -2 8 -24 19 -62 25 -85 8 -31 16 -42 32 -45 17 -2 25 -14
35 -53 17 -65 16 -144 -2 -175 -14 -25 -14 -24 -13 15 0 22 4 45 8 50 4 6 6
21 5 35 -2 14 -4 29 -4 33 -1 5 -5 6 -10 3 -4 -3 -13 6 -19 19 -7 14 -16 25
-21 25 -5 0 -12 21 -16 48 -7 47 -53 129 -94 166 -12 11 -21 25 -21 31 0 11
-21 25 -35 25 -2 0 7 -21 20 -47 12 -27 25 -59 29 -73 6 -22 5 -23 -6 -8 -7 9
-18 25 -25 35 -7 10 -6 1 2 -19 38 -95 -9 -58 -90 71 -5 8 -31 40 -56 69 -32
36 -45 60 -42 73 6 20 -7 23 -41 10 -17 -6 -13 -14 35 -68 51 -56 107 -154
123 -213 5 -18 0 -13 -18 15 -43 69 -46 71 -26 22 11 -26 19 -64 18 -85 -1
-20 9 -73 21 -117 25 -89 40 -265 34 -394 -3 -81 -13 -128 -13 -63 0 17 -5 34
-11 38 -8 5 -10 31 -6 83 11 134 -24 361 -76 493 -43 111 -106 228 -123 228
-7 0 -20 7 -28 16 -9 8 -16 11 -16 6 0 -6 -9 -8 -20 -5 -27 7 -25 21 6 54 l26
27 -24 54 c-42 90 -166 211 -275 267 -23 11 -49 21 -58 21 -9 0 -18 6 -21 13
-2 8 -44 42 -92 77 -182 134 -252 210 -252 278 0 23 -13 26 -60 13z m90 -197
c0 -7 16 -21 35 -30 20 -9 57 -36 84 -60 43 -39 52 -43 84 -37 30 4 38 2 44
-13 4 -10 2 -19 -5 -22 -7 -2 -12 -8 -12 -14 0 -6 14 -8 38 -3 57 11 33 -3
-44 -25 -53 -15 -64 -16 -50 -5 11 8 18 15 15 16 -2 0 -17 2 -33 3 -20 1 -40
14 -64 41 -32 38 -35 39 -46 21 -28 -48 -56 -67 -94 -65 -80 5 -109 0 -115
-21 -3 -13 -14 -20 -30 -20 -35 0 -42 15 -16 34 l22 15 -21 26 c-18 22 -19 30
-9 46 13 21 32 25 42 9 3 -5 13 -10 22 -10 8 0 30 -7 49 -16 42 -20 57 -15 78
27 21 43 21 44 -18 80 -34 30 -38 54 -12 71 12 8 56 -29 56 -48z m-96 -25 l27
-21 -23 -22 c-54 -51 -140 -16 -108 44 15 27 69 27 104 -1z m711 -584 c0 -25
-4 -27 -75 -40 -3 -1 -15 -4 -27 -9 -12 -4 -31 -2 -42 4 -17 8 -19 8 -15 -4 6
-16 -29 -32 -46 -21 -19 11 -10 35 13 36 12 0 31 2 42 4 10 2 25 -1 32 -7 11
-8 12 -7 6 7 -5 14 -3 17 9 12 10 -3 19 0 22 9 6 15 40 32 66 33 10 1 15 -8
15 -24z m-499 -8 c8 3 14 0 14 -6 0 -6 9 -11 21 -11 13 0 19 -5 16 -12 -3 -9
6 -14 26 -15 17 -1 35 -7 41 -13 5 -5 19 -10 31 -10 50 0 57 -43 20 -109 -14
-23 -25 -52 -25 -62 0 -29 -15 -23 -16 6 -1 14 -14 44 -29 67 -21 31 -29 38
-36 27 -7 -9 -8 -5 -3 13 6 28 -10 49 -74 100 -12 10 -22 23 -22 30 0 9 3 9
11 1 6 -6 18 -9 25 -6z m281 -63 c4 -12 -55 -33 -75 -26 -20 6 -14 20 16 30
32 13 54 11 59 -4z m950 -36 c-3 -7 -5 -2 -5 12 0 14 2 19 5 13 2 -7 2 -19 0
-25z m-77 -88 c0 -5 -2 -10 -4 -10 -3 0 -8 5 -11 10 -3 6 -1 10 4 10 6 0 11
-4 11 -10z m-323 -122 c-3 -8 -6 -5 -6 6 -1 11 2 17 5 13 3 -3 4 -12 1 -19z
m121 10 c6 -7 13 -31 17 -53 8 -40 7 -40 -12 -20 -11 11 -20 25 -20 30 0 6 -3
20 -7 33 -8 24 5 30 22 10z m172 -18 c0 -5 -4 -10 -10 -10 -5 0 -10 5 -10 10
0 6 5 10 10 10 6 0 10 -4 10 -10z m-259 -62 c17 -60 18 -203 1 -220 -11 -11
-12 -6 -7 27 4 24 -1 71 -10 115 -10 41 -20 85 -22 98 -4 15 -1 22 10 22 10 0
21 -16 28 -42z m159 25 c-1 -5 -8 -19 -16 -33 -8 -14 -13 -17 -10 -7 3 10 6
25 6 33 0 8 5 14 10 14 6 0 10 -3 10 -7z m-60 -64 c0 -10 -4 -19 -10 -19 -5 0
-10 12 -10 26 0 14 4 23 10 19 6 -3 10 -15 10 -26z m-1050 -23 c0 -5 -7 -1
-15 10 -8 10 -14 24 -14 29 0 6 6 1 14 -9 8 -11 15 -24 15 -30z m1079 8 c8 6
-6 -101 -16 -116 -13 -22 -22 10 -12 45 5 20 9 43 8 49 -1 7 0 24 1 38 3 24 3
24 7 2 2 -12 8 -20 12 -18z m206 4 c-11 -48 -24 -70 -25 -38 0 36 11 70 22 70
6 0 7 -14 3 -32z m-145 2 c0 -5 -4 -10 -10 -10 -5 0 -10 5 -10 10 0 6 5 10 10
10 6 0 10 -4 10 -10z m-105 -68 c-11 -11 -27 17 -20 35 6 16 8 16 16 -6 5 -13
7 -26 4 -29z m-775 -209 c0 -72 -6 -80 -14 -18 -5 37 1 85 10 85 2 0 4 -30 4
-67z m1275 27 c-3 -5 -10 -10 -16 -10 -5 0 -9 5 -9 10 0 6 7 10 16 10 8 0 12
-4 9 -10z m50 -20 c10 -11 22 -17 26 -14 5 3 9 -2 9 -10 0 -8 -6 -13 -12 -11
-7 3 -20 1 -28 -5 -12 -7 -10 -12 9 -30 14 -11 21 -23 16 -28 -4 -4 -10 -2
-12 5 -2 7 -20 22 -39 33 -38 24 -46 45 -13 37 16 -4 18 -3 9 8 -12 14 -6 35
9 35 4 0 16 -9 26 -20z m275 -124 c0 -3 -4 -8 -10 -11 -5 -3 -10 -1 -10 4 0 6
5 11 10 11 6 0 10 -2 10 -4z m-310 -26 c0 -5 -2 -10 -4 -10 -3 0 -8 5 -11 10
-3 6 -1 10 4 10 6 0 11 -4 11 -10z m-66 -6 c9 -3 14 -10 11 -15 -3 -4 -12 -6
-20 -3 -7 3 -22 0 -32 -6 -16 -10 -16 -11 0 -6 20 6 47 -2 47 -16 0 -17 30
-40 45 -34 22 8 45 -4 45 -23 -1 -14 -3 -13 -15 3 -8 11 -15 15 -15 9 0 -15
21 -30 51 -38 22 -5 25 -11 21 -37 -3 -20 -1 -29 6 -24 7 4 10 -2 9 -15 -1
-12 -9 -24 -19 -27 -10 -2 -18 -8 -18 -13 0 -13 27 -11 35 1 5 8 11 8 19 1 7
-6 15 -8 18 -5 8 7 58 -36 58 -49 0 -5 -15 -7 -32 -5 -18 3 -44 2 -58 -2 -25
-6 -25 -6 -2 -12 12 -3 22 -2 22 4 0 5 5 6 11 3 7 -5 4 -14 -8 -28 -10 -11
-13 -17 -7 -14 7 4 15 0 18 -9 8 -22 -3 -33 -14 -14 -5 8 -16 24 -25 35 -14
17 -16 17 -11 2 9 -30 -44 -9 -88 34 -22 22 -45 39 -52 39 -8 0 -19 9 -26 20
-7 11 -19 20 -26 20 -7 0 -33 20 -59 45 -25 25 -51 45 -58 45 -15 0 -28 27
-19 41 3 5 10 9 15 9 6 0 7 -4 4 -10 -3 -5 -1 -10 5 -10 6 0 8 -4 5 -10 -3 -5
0 -10 7 -10 7 -1 31 -9 53 -20 29 -13 42 -15 47 -7 13 21 9 28 -16 21 -13 -3
-27 -1 -30 5 -4 6 -1 9 7 5 18 -7 31 47 14 58 -9 6 -9 8 0 8 6 0 9 9 6 20 -4
14 0 20 11 20 9 0 16 5 16 10 0 11 20 13 44 4z m-104 -35 c0 -7 -18 -7 -48 0
-2 1 -1 5 2 10 7 11 46 2 46 -10z m368 1 c-12 -19 -28 -27 -28 -14 0 6 30 33
38 34 1 0 -3 -9 -10 -20z m-1465 -16 c9 -10 -4 -34 -18 -34 -17 0 -28 17 -20
30 7 11 28 13 38 4z m1524 0 c-3 -3 -12 -4 -19 -1 -8 3 -5 6 6 6 11 1 17 -2
13 -5z m-1619 -26 c18 -15 15 -28 -10 -37 -23 -9 -23 -9 5 -16 23 -6 26 -10
15 -22 -25 -31 -58 -35 -102 -13 -54 27 -89 57 -81 70 4 7 18 1 37 -15 36 -30
48 -32 48 -5 0 18 3 19 21 10 28 -16 33 -7 9 15 -11 10 -20 22 -20 27 0 11 60
0 78 -14z m1210 -9 c-2 -6 -8 -11 -13 -11 -6 0 -16 -4 -22 -10 -7 -6 -13 -7
-13 -3 0 9 31 34 43 35 5 0 7 -5 5 -11z m297 -29 c0 -7 -6 -15 -12 -17 -8 -3
-13 4 -13 17 0 13 5 20 13 18 6 -3 12 -11 12 -18z m-1740 -27 c18 -4 72 -80
63 -88 -2 -2 -19 -7 -38 -13 -19 -6 -59 -20 -87 -33 -29 -13 -56 -20 -59 -16
-12 12 20 102 43 120 13 10 23 25 23 34 0 11 5 13 18 8 9 -4 26 -10 37 -12z
m1713 -12 c3 -8 -1 -12 -9 -9 -7 2 -15 10 -17 17 -3 8 1 12 9 9 7 -2 15 -10
17 -17z m-1838 -32 c0 -5 -13 -15 -30 -24 l-29 -15 17 29 c14 26 42 33 42 10z
m1910 -20 c0 -5 -6 -6 -13 -3 -8 3 -14 11 -14 19 0 11 4 12 14 4 7 -6 13 -15
13 -20z m-414 8 c10 4 12 0 8 -13 -6 -15 -4 -17 6 -7 10 9 17 7 34 -10 11 -12
27 -23 34 -23 47 -4 48 -4 32 -14 -8 -5 -10 -10 -4 -10 12 0 134 -95 146 -114
16 -24 7 -26 -24 -4 -18 13 -35 26 -38 29 -8 10 -95 52 -98 48 -2 -2 -8 4 -13
14 -6 9 -14 17 -20 17 -5 0 -20 9 -32 21 -12 11 -32 25 -44 29 -16 7 -20 14
-15 32 3 12 7 17 9 11 3 -7 11 -9 19 -6z m-1699 -98 c-72 -37 -133 -66 -135
-64 -2 1 0 14 4 29 4 16 13 26 24 26 32 0 51 12 61 37 7 20 11 22 27 12 27
-17 71 -3 78 24 5 22 8 23 40 13 l34 -11 -133 -66z m193 76 c0 -3 -9 -24 -20
-46 -16 -30 -29 -41 -53 -46 -18 -4 -35 -6 -39 -5 -5 1 -8 -3 -8 -9 0 -5 -4
-8 -8 -5 -5 3 -30 -1 -57 -9 -100 -31 -88 -18 60 64 106 59 125 67 125 56z
m2027 -51 c-3 -3 -12 -4 -19 -1 -8 3 -5 6 6 6 11 1 17 -2 13 -5z m240 0 c-3
-3 -12 -4 -19 -1 -8 3 -5 6 6 6 11 1 17 -2 13 -5z m40 -19 c0 -8 -4 -12 -9 -9
-4 3 -8 9 -8 15 0 5 4 9 8 9 5 0 9 -7 9 -15z m-367 -31 c-9 -22 -8 -25 4 -21
10 4 13 1 9 -9 -3 -7 0 -14 6 -14 6 0 11 -4 11 -9 0 -5 -9 -7 -20 -4 -10 3
-18 9 -17 13 1 5 -7 16 -18 24 -20 16 -20 16 -1 31 29 22 37 18 26 -11z
m-2322 -40 c-9 -9 -27 -18 -41 -19 -20 -2 -24 1 -20 16 4 14 14 19 41 19 34 0
35 -1 20 -16z m2252 -56 c0 -4 -4 -8 -9 -8 -6 0 -12 4 -15 8 -3 5 1 9 9 9 8 0
15 -4 15 -9z m44 -9 c-2 -4 -12 -9 -23 -12 -13 -3 -18 -1 -14 8 2 8 13 13 23
12 10 -1 17 -4 14 -8z m299 -14 c-3 -9 -8 -14 -10 -11 -3 3 -2 9 2 15 9 16 15
13 8 -4z m137 5 c0 -5 -4 -10 -10 -10 -5 0 -10 5 -10 10 0 6 5 10 10 10 6 0
10 -4 10 -10z m-411 -24 c9 -11 7 -15 -8 -19 -12 -3 -26 2 -33 11 -11 13 -10
15 5 9 9 -3 17 -2 17 3 0 14 6 12 19 -4z m145 -21 c11 -8 16 -15 10 -15 -5 0
-18 7 -28 15 -11 8 -16 15 -10 15 5 0 18 -7 28 -15z m-104 -27 c0 -4 -4 -8 -9
-8 -6 0 -12 4 -15 8 -3 5 1 9 9 9 8 0 15 -4 15 -9z m147 -4 c-3 -3 -12 -4 -19
-1 -8 3 -5 6 6 6 11 1 17 -2 13 -5z m193 -34 c0 -3 -7 -7 -15 -7 -8 0 -15 9
-15 20 0 16 3 17 15 7 8 -7 15 -16 15 -20z m-310 10 c0 -5 -2 -10 -4 -10 -3 0
-8 5 -11 10 -3 6 -1 10 4 10 6 0 11 -4 11 -10z m146 -5 c-19 -14 -36 -12 -36
6 0 5 12 9 28 9 26 -1 26 -1 8 -15z m-89 -23 c1 -29 26 -50 31 -27 2 8 10 15
17 15 10 0 12 -7 5 -29 -7 -24 -6 -29 7 -24 13 5 13 3 2 -15 -13 -21 -14 -21
-20 -3 -4 10 -19 28 -34 39 -14 11 -26 24 -27 29 0 4 -4 16 -9 25 -7 13 -5 16
8 15 12 0 19 -10 20 -25z m275 -4 c-7 -7 -12 -8 -12 -2 0 14 12 26 19 19 2 -3
-1 -11 -7 -17z m363 -68 c3 -5 -1 -10 -10 -10 -9 0 -13 5 -10 10 3 6 8 10 10
10 2 0 7 -4 10 -10z m84 -48 c-2 -24 -2 -24 -6 -4 -2 12 -12 22 -21 22 -14 0
-15 2 -2 9 20 14 30 4 29 -27z m-591 0 c2 -7 -3 -12 -12 -12 -9 0 -16 5 -16
10 0 6 -7 10 -16 10 -8 0 -13 4 -9 10 7 11 47 -2 53 -18z m50 -29 c10 -10 27
-24 38 -31 17 -11 16 -12 -11 -7 -28 6 -55 29 -55 47 0 12 8 10 28 -9z m102
-93 c0 -11 11 -20 29 -23 32 -7 61 -31 61 -53 0 -18 -16 -18 -27 -1 -4 7 -29
28 -55 47 -47 32 -54 47 -23 47 8 0 15 -8 15 -17z m134 -19 c-7 -8 -35 9 -29
19 4 6 11 5 20 -3 7 -6 11 -14 9 -16z m36 -15 c0 -5 -3 -6 -7 -2 -4 3 -12 -6
-19 -21 l-12 -28 -1 28 c-1 15 4 27 9 27 6 0 10 8 10 18 0 14 2 15 10 2 5 -8
10 -19 10 -24z m55 -26 c8 0 15 -5 15 -11 0 -6 -6 -9 -12 -6 -7 2 -23 -5 -35
-16 -19 -17 -23 -18 -23 -4 0 8 5 28 11 44 9 25 12 26 20 11 6 -10 17 -18 24
-18z m-145 -59 c0 -4 -7 -8 -15 -8 -8 0 -15 6 -15 13 0 8 6 11 15 8 8 -4 15
-9 15 -13z m66 4 c4 -8 12 -15 19 -15 7 0 20 -11 29 -25 9 -14 12 -25 6 -25
-6 0 -22 11 -36 25 -14 14 -29 25 -33 25 -5 0 -14 7 -21 15 -10 13 -9 15 9 15
12 0 24 -7 27 -15z m419 -5 c3 -5 -1 -10 -10 -10 -9 0 -13 5 -10 10 3 6 8 10
10 10 2 0 7 -4 10 -10z m225 -40 c5 0 10 6 13 13 2 6 8 9 12 5 15 -14 -7 -29
-35 -23 -33 7 -49 -9 -23 -24 10 -5 14 -13 10 -18 -5 -4 -13 0 -19 10 -8 15
-12 16 -25 6 -11 -10 -11 -5 3 24 9 20 21 34 25 31 4 -2 11 1 16 8 6 9 9 6 11
-9 2 -13 7 -23 12 -23z m-85 0 c3 -5 2 -10 -4 -10 -5 0 -13 5 -16 10 -3 6 -2
10 4 10 5 0 13 -4 16 -10z m-450 -45 c24 -25 32 -45 18 -45 -12 0 -53 46 -53
59 0 16 6 14 35 -14z m135 -36 c0 -5 -4 -9 -10 -9 -5 0 -10 7 -10 16 0 8 5 12
10 9 6 -3 10 -10 10 -16z m210 0 c0 -6 -4 -7 -10 -4 -5 3 -10 11 -10 16 0 6 5
7 10 4 6 -3 10 -11 10 -16z m205 11 c3 -5 -1 -10 -9 -10 -8 0 -18 5 -21 10 -3
6 1 10 9 10 8 0 18 -4 21 -10z"/>
<path d="M7106 3984 c-4 -9 -13 -14 -21 -10 -8 3 -15 1 -15 -4 0 -6 9 -10 20
-10 11 0 20 -5 20 -11 0 -5 3 -8 8 -6 4 2 18 -7 31 -20 13 -13 20 -23 15 -24
-23 -2 -58 -10 -63 -15 -3 -3 12 -3 34 -1 47 6 65 0 59 -18 -6 -14 33 -28 52
-17 14 8 1 52 -16 52 -5 0 -10 6 -10 14 0 8 -9 18 -20 21 -11 4 -18 11 -15 16
3 5 -1 6 -9 3 -11 -4 -19 2 -26 20 -11 30 -25 36 -18 8 3 -12 0 -19 -9 -19 -8
0 -11 7 -7 19 7 22 -1 24 -10 2z m129 -114 c-3 -5 -12 -10 -18 -10 -7 0 -6 4
3 10 19 12 23 12 15 0z"/>
<path d="M7170 3798 c0 -4 11 -7 25 -6 33 3 33 16 0 14 -14 0 -25 -4 -25 -8z"/>
<path d="M7196 3783 c-11 -11 -6 -23 8 -23 8 0 17 4 20 9 7 10 -19 23 -28 14z"/>
<path d="M4492 5388 c4 -12 69 -50 75 -44 2 2 -2 15 -8 30 -9 19 -20 26 -41
26 -18 0 -28 -5 -26 -12z"/>
<path d="M4675 5370 c-9 -14 25 -24 70 -21 20 2 20 2 1 16 -23 17 -62 20 -71
5z"/>
<path d="M7037 5233 c3 -7 11 -13 18 -13 8 0 21 -7 29 -16 9 -8 16 -11 16 -5
0 6 8 11 18 11 23 0 -24 25 -60 32 -19 4 -25 1 -21 -9z"/>
<path d="M6935 5210 c15 -17 69 -50 82 -50 1 0 3 6 3 14 0 14 -69 56 -92 56
-6 0 -3 -9 7 -20z"/>
<path d="M6828 5182 c13 -9 39 -30 58 -46 19 -15 34 -25 34 -20 0 4 13 -4 28
-19 33 -32 106 -171 99 -190 -3 -6 -10 1 -16 17 -6 16 -14 26 -17 23 -10 -10
26 -68 38 -61 8 5 9 1 5 -11 -10 -23 13 -84 28 -78 18 6 47 -119 47 -199 -1
-65 0 -68 23 -68 17 0 26 9 36 33 23 59 20 108 -7 86 -12 -9 -14 -6 -14 22 0
69 -38 221 -60 239 -4 3 -15 20 -25 38 -11 17 -23 32 -27 32 -4 0 -28 28 -55
63 -60 79 -89 107 -136 135 -45 26 -73 29 -39 4z"/>
<path d="M7030 5160 c0 -5 5 -10 11 -10 5 0 7 5 4 10 -3 6 -8 10 -11 10 -2 0
-4 -4 -4 -10z"/>
<path d="M6731 5136 c19 -14 44 -32 56 -41 13 -8 24 -14 27 -13 2 2 14 -6 27
-17 l24 -20 -24 27 c-13 15 -28 25 -32 22 -5 -3 -9 -1 -9 5 0 13 -70 61 -89
61 -8 0 1 -11 20 -24z"/>
<path d="M6595 5110 c-3 -5 -2 -10 3 -10 5 0 32 -15 60 -34 27 -19 53 -32 57
-28 4 4 18 -6 31 -23 13 -16 24 -25 24 -18 0 6 -13 23 -30 36 -16 14 -30 30
-30 36 0 6 -7 11 -15 11 -8 0 -29 9 -47 20 -38 23 -44 24 -53 10z"/>
<path d="M6310 5082 c0 -19 29 -47 39 -37 6 7 1 16 -15 28 -13 10 -24 14 -24
9z"/>
<path d="M6498 5060 c12 -5 25 -16 28 -25 4 -8 14 -15 24 -15 9 0 29 -12 44
-27 21 -21 25 -22 20 -7 -9 24 -34 54 -46 54 -5 0 -16 7 -24 15 -9 8 -27 15
-42 14 -26 0 -26 0 -4 -9z"/>
<path d="M7130 5039 c0 -4 7 -26 15 -49 20 -58 19 -70 -6 -40 -17 20 -19 21
-14 5 4 -11 14 -38 22 -59 8 -21 20 -48 28 -60 13 -17 15 -18 15 -3 0 15 3 14
22 -5 19 -19 22 -32 21 -100 0 -57 3 -78 12 -78 25 0 25 73 0 225 l-5 30 20
-25 c11 -14 20 -20 20 -13 0 15 -47 123 -53 123 -3 0 -1 -17 3 -37 l8 -38 -26
34 c-43 54 -81 96 -82 90z"/>
<path d="M6400 5005 c25 -13 52 -27 60 -31 8 -4 20 -14 25 -21 6 -8 18 -11 28
-7 17 6 17 7 0 27 -24 27 -91 57 -128 57 -29 0 -29 -1 15 -25z"/>
<path d="M5613 4809 c-21 -21 -15 -39 11 -39 27 0 82 -41 91 -69 3 -12 15 -18
35 -18 l29 0 -17 29 c-20 34 -56 60 -77 56 -8 -2 -25 10 -37 25 -19 22 -25 26
-35 16z"/>
<path d="M7281 4738 c-1 -46 3 -78 9 -78 12 0 12 107 0 135 -6 14 -9 -5 -9
-57z"/>
<path d="M8010 4750 c19 -13 30 -13 30 0 0 6 -10 10 -22 10 -19 0 -20 -2 -8
-10z"/>
<path d="M7192 4700 c0 -14 2 -19 5 -12 2 6 2 18 0 25 -3 6 -5 1 -5 -13z"/>
<path d="M7260 4631 c-12 -24 -13 -34 -1 -27 9 6 22 46 15 46 -2 0 -8 -9 -14
-19z"/>
<path d="M5121 4567 c14 -7 43 -26 64 -44 21 -18 42 -30 46 -28 16 10 99 -111
113 -165 l7 -25 -22 25 -22 25 8 -25 c4 -14 13 -28 19 -32 6 -4 8 -8 4 -8 -16
0 40 -125 60 -135 12 -5 23 -16 26 -25 2 -8 5 -1 6 15 1 17 4 24 7 17 2 -6 8
-10 13 -7 4 3 6 -5 2 -17 -4 -15 -2 -19 8 -13 17 11 6 74 -22 122 -30 50 -84
130 -100 148 -7 7 -33 38 -58 68 -50 59 -109 101 -155 110 -30 6 -30 6 -4 -6z"/>
<path d="M8770 4577 c3 -2 37 -28 75 -57 l70 -52 -50 50 c-27 28 -61 53 -75
57 -14 4 -23 5 -20 2z"/>
<path d="M4172 4550 c-60 -13 -140 -52 -182 -89 -29 -26 -33 -34 -24 -48 6
-10 22 -20 35 -21 13 -2 31 -14 41 -25 46 -55 77 -80 134 -108 34 -16 69 -29
78 -29 36 0 57 -35 56 -91 -2 -78 -20 -213 -30 -222 -9 -10 19 -124 48 -187
25 -56 97 -130 152 -155 37 -16 48 -17 97 -7 97 20 173 98 173 178 0 15 4 23
10 19 6 -4 4 11 -4 32 -8 21 -22 67 -31 103 -27 106 -70 185 -118 218 -54 38
-75 44 -158 47 -77 2 -88 8 -72 34 9 14 9 21 0 30 -8 8 -8 11 2 11 19 0 100
70 116 100 12 24 12 30 -3 51 -28 42 -105 119 -137 139 -37 23 -123 32 -183
20z m38 -84 c0 -2 -7 -7 -16 -10 -8 -3 -12 -2 -9 4 6 10 25 14 25 6z m240
-610 c0 -3 -4 -8 -10 -11 -5 -3 -10 -1 -10 4 0 6 5 11 10 11 6 0 10 -2 10 -4z"/>
<path d="M7175 4510 c-44 -45 -36 -53 15 -15 40 30 58 55 38 55 -8 0 -32 -18
-53 -40z"/>
<path d="M8005 4540 c3 -5 8 -10 11 -10 2 0 4 5 4 10 0 6 -5 10 -11 10 -5 0
-7 -4 -4 -10z"/>
<path d="M5004 4531 c4 -6 13 -11 19 -11 7 0 34 -21 60 -45 26 -25 52 -43 57
-40 19 12 127 -171 117 -198 -2 -6 -11 4 -20 24 -24 58 -38 55 -15 -3 12 -29
25 -57 30 -62 4 -6 8 -18 8 -28 0 -11 11 -30 24 -43 13 -13 26 -35 30 -49 3
-14 11 -26 16 -26 6 0 6 9 0 26 -13 34 -13 41 4 47 10 4 13 1 9 -9 -3 -7 0
-14 6 -14 7 0 9 -9 5 -25 -4 -15 -2 -25 4 -25 39 0 8 94 -75 225 -69 111 -157
212 -208 237 -46 23 -79 32 -71 19z m136 -81 c0 -5 -2 -10 -4 -10 -3 0 -8 5
-11 10 -3 6 -1 10 4 10 6 0 11 -4 11 -10z"/>
<path d="M5732 4508 c2 -6 10 -14 16 -16 7 -2 10 2 6 12 -7 18 -28 22 -22 4z"/>
<path d="M8002 4501 c-11 -7 -11 -9 2 -14 10 -4 16 -1 16 8 0 17 -1 17 -18 6z"/>
<path d="M4900 4496 c0 -2 16 -14 35 -26 20 -12 41 -28 48 -35 8 -7 22 -14 32
-16 23 -5 93 -106 122 -176 27 -65 17 -69 -17 -8 -13 24 -25 43 -27 41 -4 -4
65 -165 80 -187 8 -10 17 -16 20 -12 4 3 10 -8 13 -26 4 -17 11 -34 17 -38 5
-3 7 -1 3 5 -3 5 0 13 6 15 10 4 9 6 -1 6 -10 1 -7 7 8 21 l23 19 -26 53 c-25
52 -102 178 -115 188 -3 3 -26 29 -50 58 -44 54 -108 104 -148 116 -13 4 -23
5 -23 2z m334 -420 c-3 -9 -10 -13 -15 -10 -5 3 -3 11 4 19 15 16 19 13 11 -9z"/>
<path d="M4671 4454 c0 -11 3 -14 6 -6 3 7 2 16 -1 19 -3 4 -6 -2 -5 -13z"/>
<path d="M7534 4430 c-75 -37 -181 -117 -170 -127 3 -3 27 14 55 37 27 23 87
62 133 86 46 24 78 44 72 44 -7 0 -47 -18 -90 -40z"/>
<path d="M4810 4442 c14 -9 43 -33 65 -53 38 -35 40 -36 41 -14 2 19 -10 30
-56 54 -62 33 -91 41 -50 13z"/>
<path d="M7663 4436 c-35 -13 -87 -38 -118 -57 -55 -34 -148 -119 -129 -119 6
0 21 12 35 26 49 53 174 125 289 167 13 5 13 5 0 6 -8 0 -43 -10 -77 -23z"/>
<path d="M8964 4409 c97 -135 112 -305 40 -449 -89 -177 -294 -322 -574 -406
-41 -13 -66 -23 -55 -23 38 -2 189 53 294 105 58 29 106 52 107 51 2 -1 -45
-53 -104 -116 l-107 -113 -53 3 c-28 2 -52 1 -52 -3 0 -5 26 -8 58 -8 l58 0
80 83 c215 224 259 271 297 316 23 27 93 103 155 169 l113 120 -53 55 c-47 48
-48 48 -10 5 l43 -48 -18 -30 c-9 -16 -48 -60 -86 -97 -55 -53 -68 -63 -63
-43 40 150 40 151 26 224 -7 39 -13 83 -14 97 -1 16 -21 48 -54 85 -30 32 -42
43 -28 23z"/>
<path d="M4670 4410 c0 -6 4 -9 8 -6 5 3 36 -15 69 -39 34 -24 63 -42 66 -39
14 15 100 -126 133 -218 18 -52 1 -48 -19 4 -26 64 -30 40 -6 -33 24 -69 37
-92 50 -84 11 7 25 -21 33 -67 6 -31 9 -36 20 -25 8 6 10 14 4 16 -5 1 -2 11
7 21 16 18 16 18 -6 13 -18 -5 -21 -3 -16 11 4 10 7 25 8 34 0 11 3 9 10 -7 5
-13 11 -22 14 -19 7 7 -14 76 -28 91 -16 17 -34 46 -50 77 -13 26 -48 81 -57
90 -3 3 -18 22 -33 43 -16 20 -40 49 -54 63 -53 53 -153 102 -153 74z"/>
<path d="M9861 4384 c0 -11 3 -14 6 -6 3 7 2 16 -1 19 -3 4 -6 -2 -5 -13z"/>
<path d="M4954 4335 c36 -46 90 -151 101 -195 3 -14 -8 -2 -25 28 -18 28 -33
52 -35 52 -3 0 5 -21 15 -46 11 -25 20 -52 20 -59 0 -7 16 -37 36 -66 20 -30
40 -63 45 -74 6 -15 8 -16 8 -4 1 9 8 22 16 29 17 14 21 35 4 25 -7 -5 -8 4
-4 27 5 28 -1 44 -36 98 -71 111 -160 230 -171 230 -5 0 8 -20 26 -45z"/>
<path d="M4567 4352 c-16 -17 -14 -20 28 -56 53 -44 60 -32 10 19 -20 19 -31
35 -26 35 22 0 67 -27 89 -52 33 -39 45 -35 21 6 -11 19 -32 39 -47 44 -15 6
-34 13 -43 16 -9 4 -22 -1 -32 -12z"/>
<path d="M8638 4325 c178 -227 -31 -514 -438 -601 -57 -12 -59 -13 -16 -9 134
14 305 89 402 178 125 115 161 246 102 368 -15 30 -40 66 -55 80 -24 22 -24
20 5 -16z"/>
<path d="M8550 4326 c0 -4 11 -21 25 -38 52 -61 58 -174 15 -262 -34 -67 -124
-147 -215 -191 -77 -37 -207 -75 -256 -75 -15 0 -30 -4 -33 -8 -7 -13 97 5
179 29 276 82 429 284 347 459 -21 46 -61 102 -62 86z"/>
<path d="M2580 4291 c0 -5 5 -13 10 -16 6 -3 10 -2 10 4 0 5 -4 13 -10 16 -5
3 -10 2 -10 -4z"/>
<path d="M2400 4216 c16 -43 2 -110 -33 -159 -23 -32 -25 -37 -7 -22 39 35 63
94 57 143 -3 24 -10 49 -16 55 -10 9 -10 5 -1 -17z"/>
<path d="M2612 4220 c0 -14 2 -19 5 -12 2 6 2 18 0 25 -3 6 -5 1 -5 -13z"/>
<path d="M4770 4215 c0 -3 12 -29 26 -57 44 -86 70 -174 30 -100 -18 32 -20
21 -6 -29 6 -20 21 -47 34 -60 13 -13 30 -44 36 -69 13 -45 13 -45 22 -17 10
29 -12 147 -36 191 -29 53 -106 156 -106 141z m137 -307 c-3 -8 -6 -5 -6 6 -1
11 2 17 5 13 3 -3 4 -12 1 -19z"/>
<path d="M2611 4140 c-7 -30 -20 -68 -28 -84 -8 -15 -10 -26 -5 -22 20 12 53
99 50 130 -3 27 -5 25 -17 -24z"/>
<path d="M1294 4144 c-19 -74 30 -190 105 -253 44 -36 149 -96 156 -89 2 2
-20 16 -50 31 -141 74 -224 202 -196 303 5 20 6 34 0 34 -5 0 -12 -12 -15 -26z"/>
<path d="M1505 4136 c-11 -55 39 -152 90 -178 12 -6 5 5 -16 28 -50 53 -61 79
-61 135 0 57 -5 62 -13 15z"/>
<path d="M4735 4089 c5 -13 14 -45 20 -71 13 -48 45 -104 45 -78 0 16 -17 70
-38 123 -17 43 -39 63 -27 26z"/>
<path d="M2515 3968 l-50 -53 53 50 c48 46 57 55 49 55 -1 0 -25 -24 -52 -52z"/>
<path d="M4800 4001 c0 -5 5 -13 10 -16 6 -3 10 -2 10 4 0 5 -4 13 -10 16 -5
3 -10 2 -10 -4z"/>
<path d="M3943 3888 c5 -24 13 -51 18 -60 6 -11 5 -18 0 -18 -22 0 -21 -43 0
-99 17 -43 28 -59 41 -58 13 1 16 7 12 22 -4 11 -10 22 -13 25 -17 13 -41 62
-40 82 0 15 3 18 6 8 3 -8 10 -19 15 -25 5 -5 15 -19 22 -29 11 -16 12 -11 9
40 -2 32 -8 63 -15 69 -8 7 -9 5 -5 -7 3 -10 2 -20 -3 -23 -6 -4 -10 4 -10 16
0 36 -22 99 -35 99 -9 0 -10 -11 -2 -42z"/>
<path d="M2430 3899 c-22 -18 -22 -19 -3 -10 12 6 25 16 28 21 9 15 3 12 -25
-11z"/>
<path d="M3901 3904 c0 -11 3 -14 6 -6 3 7 2 16 -1 19 -3 4 -6 -2 -5 -13z"/>
<path d="M1895 3880 c-3 -5 1 -10 10 -10 9 0 13 5 10 10 -3 6 -8 10 -10 10 -2
0 -7 -4 -10 -10z"/>
<path d="M7971 3874 c0 -11 3 -14 6 -6 3 7 2 16 -1 19 -3 4 -6 -2 -5 -13z"/>
<path d="M2374 3864 c-18 -14 -18 -15 4 -4 12 6 22 13 22 15 0 8 -5 6 -26 -11z"/>
<path d="M3921 3855 c1 -19 18 -51 18 -35 0 8 -4 22 -9 30 -5 8 -9 11 -9 5z"/>
<path d="M1610 3780 c8 -5 20 -10 25 -10 6 0 3 5 -5 10 -8 5 -19 10 -25 10 -5
0 -3 -5 5 -10z"/>
<path d="M1728 3753 c6 -2 18 -2 25 0 6 3 1 5 -13 5 -14 0 -19 -2 -12 -5z"/>
<path d="M3883 3692 c-109 -158 -342 -339 -616 -478 -335 -171 -700 -277
-1122 -326 -146 -17 -697 -17 -825 0 -549 74 -954 240 -1227 505 -51 50 -93
86 -93 80 0 -5 39 -48 88 -95 388 -378 1131 -571 1952 -508 649 50 1261 270
1651 596 89 74 239 243 239 268 0 17 -19 0 -47 -42z"/>
<path d="M7070 3616 c0 -9 52 -55 63 -56 5 0 2 6 -5 13 -37 34 -58 49 -58 43z"/>
<path d="M7225 3480 c10 -11 20 -20 22 -20 2 0 -2 9 -9 20 -7 11 -17 20 -22
20 -5 0 -1 -9 9 -20z"/>
<path d="M7270 3445 c7 -9 15 -13 17 -11 7 7 -7 26 -19 26 -6 0 -6 -6 2 -15z"/>
<path d="M4185 3310 c16 -16 36 -30 44 -30 9 0 2 12 -19 30 -46 38 -62 38 -25
0z"/>
<path d="M4425 3289 c-11 -17 1 -21 15 -4 8 9 8 15 2 15 -6 0 -14 -5 -17 -11z"/>
<path d="M4090 3214 c-86 -66 -316 -207 -425 -262 -173 -86 -456 -196 -660
-256 -66 -19 -114 -35 -106 -35 29 -2 301 82 441 136 260 99 476 212 700 364
94 64 160 118 145 118 -5 0 -48 -29 -95 -65z"/>
<path d="M1761 3254 c0 -11 3 -14 6 -6 3 7 2 16 -1 19 -3 4 -6 -2 -5 -13z"/>
<path d="M1742 3170 c0 -14 2 -19 5 -12 2 6 2 18 0 25 -3 6 -5 1 -5 -13z"/>
<path d="M1731 3124 c0 -11 3 -14 6 -6 3 7 2 16 -1 19 -3 4 -6 -2 -5 -13z"/>
<path d="M8780 3032 c0 -4 10 -14 21 -22 12 -8 27 -21 34 -27 10 -10 14 -9 19
3 8 22 8 26 -4 19 -5 -3 -20 3 -32 14 -22 22 -38 27 -38 13z"/>
<path d="M8760 3004 c0 -10 -6 -14 -14 -11 -19 8 -26 -14 -10 -30 17 -17 24
-16 24 2 0 10 10 15 27 15 25 0 26 0 8 20 -22 24 -35 26 -35 4z"/>
<path d="M1681 2914 c0 -11 3 -14 6 -6 3 7 2 16 -1 19 -3 4 -6 -2 -5 -13z"/>
<path d="M0 2845 c0 -26 526 -225 564 -212 5 2 -19 11 -55 21 -136 38 -332
112 -441 167 -58 29 -68 33 -68 24z"/>
<path d="M8116 2791 c-4 -5 3 -15 15 -21 18 -10 20 -9 17 6 -4 20 -23 30 -32
15z"/>
<path d="M2835 2650 c-13 -5 -14 -9 -5 -9 8 0 24 4 35 9 13 5 14 9 5 9 -8 0
-24 -4 -35 -9z"/>
<path d="M3650 2640 c-8 -5 -10 -10 -5 -10 6 0 17 5 25 10 8 5 11 10 5 10 -5
0 -17 -5 -25 -10z"/>
<path d="M4663 2629 c-35 -22 -46 -37 -15 -20 22 13 58 40 52 41 -3 0 -20 -10
-37 -21z"/>
<path d="M2788 2633 c7 -3 16 -2 19 1 4 3 -2 6 -13 5 -11 0 -14 -3 -6 -6z"/>
<path d="M3726 2605 c-83 -36 -98 -45 -75 -45 8 0 51 18 94 39 98 48 88 51
-19 6z"/>
<path d="M588 2623 c6 -2 18 -2 25 0 6 3 1 5 -13 5 -14 0 -19 -2 -12 -5z"/>
<path d="M2738 2623 c6 -2 18 -2 25 0 6 3 1 5 -13 5 -14 0 -19 -2 -12 -5z"/>
<path d="M4230 2620 c-9 -6 -10 -10 -3 -10 6 0 15 5 18 10 8 12 4 12 -15 0z"/>
<path d="M638 2613 c6 -2 18 -2 25 0 6 3 1 5 -13 5 -14 0 -19 -2 -12 -5z"/>
<path d="M2698 2613 c7 -3 16 -2 19 1 4 3 -2 6 -13 5 -11 0 -14 -3 -6 -6z"/>
<path d="M730 2595 c30 -8 73 -16 95 -19 31 -4 27 -2 -15 9 -30 8 -73 16 -95
19 -31 4 -27 2 15 -9z"/>
<path d="M2658 2603 c7 -3 16 -2 19 1 4 3 -2 6 -13 5 -11 0 -14 -3 -6 -6z"/>
<path d="M3550 2600 c-8 -5 -10 -10 -5 -10 6 0 17 5 25 10 8 5 11 10 5 10 -5
0 -17 -5 -25 -10z"/>
<path d="M2598 2593 c7 -3 16 -2 19 1 4 3 -2 6 -13 5 -11 0 -14 -3 -6 -6z"/>
<path d="M2548 2583 c7 -3 16 -2 19 1 4 3 -2 6 -13 5 -11 0 -14 -3 -6 -6z"/>
<path d="M895 2560 c17 -4 44 -8 60 -8 25 0 24 2 -10 9 -51 10 -92 10 -50 -1z"/>
<path d="M1013 2543 c9 -2 25 -2 35 0 9 3 1 5 -18 5 -19 0 -27 -2 -17 -5z"/>
<path d="M2308 2543 c7 -3 16 -2 19 1 4 3 -2 6 -13 5 -11 0 -14 -3 -6 -6z"/>
<path d="M1088 2533 c12 -2 30 -2 40 0 9 3 -1 5 -23 4 -22 0 -30 -2 -17 -4z"/>
<path d="M2228 2533 c7 -3 16 -2 19 1 4 3 -2 6 -13 5 -11 0 -14 -3 -6 -6z"/>
<path d="M1173 2523 c9 -2 25 -2 35 0 9 3 1 5 -18 5 -19 0 -27 -2 -17 -5z"/>
<path d="M2108 2523 c6 -2 18 -2 25 0 6 3 1 5 -13 5 -14 0 -19 -2 -12 -5z"/>
<path d="M1278 2513 c12 -2 32 -2 45 0 12 2 2 4 -23 4 -25 0 -35 -2 -22 -4z"/>
<path d="M1480 2510 l-105 -5 103 -5 c57 -3 161 -3 230 0 l127 6 -125 4 c-69
3 -172 3 -230 0z"/>
<path d="M1978 2513 c12 -2 30 -2 40 0 9 3 -1 5 -23 4 -22 0 -30 -2 -17 -4z"/>
<path d="M0 2504 c0 -7 52 -25 57 -20 2 2 -10 8 -26 14 -17 6 -31 9 -31 6z"/>
<path d="M3845 2454 c-27 -13 -39 -21 -25 -18 29 7 100 43 85 43 -5 0 -32 -11
-60 -25z"/>
<path d="M218 2353 c7 -3 16 -2 19 1 4 3 -2 6 -13 5 -11 0 -14 -3 -6 -6z"/>
<path d="M2500 2320 c0 -5 5 -10 10 -10 6 0 10 5 10 10 0 6 -4 10 -10 10 -5 0
-10 -4 -10 -10z"/>
<path d="M2768 2303 c7 -3 16 -2 19 1 4 3 -2 6 -13 5 -11 0 -14 -3 -6 -6z"/>
<path d="M478 2283 c7 -3 16 -2 19 1 4 3 -2 6 -13 5 -11 0 -14 -3 -6 -6z"/>
<path d="M2485 2250 c-3 -6 1 -7 9 -4 18 7 21 14 7 14 -6 0 -13 -4 -16 -10z"/>
<path d="M748 2233 c7 -3 16 -2 19 1 4 3 -2 6 -13 5 -11 0 -14 -3 -6 -6z"/>
<path d="M1413 2210 c8 -20 18 -30 32 -30 19 1 19 1 1 15 -11 8 -16 21 -13 30
4 10 0 15 -12 15 -17 0 -18 -3 -8 -30z"/>
<path d="M1600 2225 c0 -8 -12 -21 -27 -29 -24 -13 -25 -15 -7 -16 11 0 30 13
42 30 18 24 20 30 7 30 -8 0 -15 -7 -15 -15z"/>
<path d="M2305 2228 c-74 -8 -407 -38 -428 -38 -7 0 -5 -5 4 -10 9 -5 43 -5
85 1 38 5 145 15 237 23 150 12 190 19 176 29 -2 2 -35 0 -74 -5z"/>
<path d="M1780 2179 c0 -5 5 -7 10 -4 6 3 10 8 10 11 0 2 -4 4 -10 4 -5 0 -10
-5 -10 -11z"/>
<path d="M2935 2169 c18 -5 33 -5 39 1 7 7 -4 10 -29 9 -40 -1 -40 -1 -10 -10z"/>
<path d="M3028 2173 c6 -2 18 -2 25 0 6 3 1 5 -13 5 -14 0 -19 -2 -12 -5z"/>
<path d="M1648 2113 c7 -3 16 -2 19 1 4 3 -2 6 -13 5 -11 0 -14 -3 -6 -6z"/>
<path d="M3335 2080 c3 -5 10 -10 16 -10 5 0 9 5 9 10 0 6 -7 10 -16 10 -8 0
-12 -4 -9 -10z"/>
<path d="M3395 2080 c-3 -5 1 -10 9 -10 9 0 16 5 16 10 0 6 -4 10 -9 10 -6 0
-13 -4 -16 -10z"/>
<path d="M1469 2063 c-13 -16 -12 -17 4 -4 9 7 17 15 17 17 0 8 -8 3 -21 -13z"/>
<path d="M1310 2008 c-16 -7 -20 -12 -12 -15 8 -3 21 2 30 11 19 18 17 19 -18
4z"/>
<path d="M1457 1996 c-4 -10 -1 -13 8 -9 8 3 12 9 9 14 -7 12 -11 11 -17 -5z"/>
<path d="M8585 2000 c3 -5 13 -10 21 -10 8 0 14 5 14 10 0 6 -9 10 -21 10 -11
0 -17 -4 -14 -10z"/>
<path d="M1215 1990 c-3 -5 3 -10 14 -10 12 0 21 5 21 10 0 6 -6 10 -14 10 -8
0 -18 -4 -21 -10z"/>
<path d="M870 1820 c0 -5 6 -10 14 -10 8 0 18 5 21 10 3 6 -3 10 -14 10 -12 0
-21 -4 -21 -10z"/>
<path d="M2355 1700 c-3 -6 5 -10 19 -10 14 0 28 5 31 10 3 6 -5 10 -19 10
-14 0 -28 -4 -31 -10z"/>
<path d="M1479 1489 c-23 -19 -23 -20 -2 -10 12 6 25 16 28 21 10 16 -1 12
-26 -11z"/>
<path d="M3158 1494 c6 -11 20 -28 33 -39 l23 -20 -20 34 c-20 37 -55 60 -36
25z"/>
<path d="M1146 1224 c-5 -14 -4 -15 9 -4 17 14 19 20 6 20 -5 0 -12 -7 -15
-16z"/>
<path d="M3360 1214 c0 -7 9 -22 20 -35 10 -13 19 -19 20 -13 0 7 -9 22 -20
35 -10 13 -19 19 -20 13z"/>
<path d="M1061 914 c0 -11 3 -14 6 -6 3 7 2 16 -1 19 -3 4 -6 -2 -5 -13z"/>
</g>
</svg>
