<svg width="24" height="24" viewBox="0 0 24 24" fill="none" xmlns="http://www.w3.org/2000/svg">
<path fill-rule="evenodd" clip-rule="evenodd" d="M5 16.25C5.19891 16.25 5.38968 16.329 5.53033 16.4697C5.67098 16.6103 5.75 16.8011 5.75 17V19C5.75 19.138 5.862 19.25 6 19.25H18C18.0663 19.25 18.1299 19.2237 18.1768 19.1768C18.2237 19.1299 18.25 19.0663 18.25 19V17C18.25 16.8011 18.329 16.6103 18.4697 16.4697C18.6103 16.329 18.8011 16.25 19 16.25C19.1989 16.25 19.3897 16.329 19.5303 16.4697C19.671 16.6103 19.75 16.8011 19.75 17V19C19.75 19.4641 19.5656 19.9092 19.2374 20.2374C18.9092 20.5656 18.4641 20.75 18 20.75H6C5.53587 20.75 5.09075 20.5656 4.76256 20.2374C4.43437 19.9092 4.25 19.4641 4.25 19V17C4.25 16.8011 4.32902 16.6103 4.46967 16.4697C4.61032 16.329 4.80109 16.25 5 16.25Z" fill="#FD7E14"/>
<path d="M10.738 3.75C10.4898 3.75007 10.2507 3.84314 10.0678 4.01087C9.88491 4.17859 9.77151 4.40877 9.75 4.656C9.59611 6.40842 9.56871 8.16964 9.668 9.926C9.421 9.939 9.175 9.956 8.928 9.973L7.438 10.082C7.30678 10.0916 7.1803 10.1351 7.07094 10.2083C6.96158 10.2815 6.87309 10.3818 6.81413 10.4994C6.75516 10.617 6.72775 10.7479 6.73456 10.8793C6.74138 11.0107 6.78219 11.1381 6.853 11.249C7.91489 12.9111 9.2832 14.3561 10.885 15.507L11.482 15.936C11.633 16.0444 11.8141 16.1027 12 16.1027C12.1859 16.1027 12.367 16.0444 12.518 15.936L13.115 15.507C14.7168 14.3561 16.0851 12.9111 17.147 11.249C17.2178 11.1381 17.2586 11.0107 17.2654 10.8793C17.2723 10.7479 17.2448 10.617 17.1859 10.4994C17.1269 10.3818 17.0384 10.2815 16.9291 10.2083C16.8197 10.1351 16.6932 10.0916 16.562 10.082L15.072 9.973C14.8255 9.95517 14.5788 9.9395 14.332 9.926C14.4316 8.16967 14.4045 6.40844 14.251 4.656C14.2295 4.4086 14.1159 4.17828 13.9328 4.01053C13.7497 3.84278 13.5103 3.74982 13.262 3.75H10.738Z" fill="#FD7E14"/>
</svg>
