<svg width="48" height="48" viewBox="0 0 48 48" fill="none" xmlns="http://www.w3.org/2000/svg">
<path fill-rule="evenodd" clip-rule="evenodd" d="M24 27C26.1217 27 28.1566 26.1571 29.6569 24.6569C31.1571 23.1566 32 21.1217 32 19C32 16.8783 31.1571 14.8434 29.6569 13.3431C28.1566 11.8429 26.1217 11 24 11C21.8783 11 19.8434 11.8429 18.3431 13.3431C16.8429 14.8434 16 16.8783 16 19C16 21.1217 16.8429 23.1566 18.3431 24.6569C19.8434 26.1571 21.8783 27 24 27ZM24 25C24.7879 25 25.5681 24.8448 26.2961 24.5433C27.0241 24.2417 27.6855 23.7998 28.2426 23.2426C28.7998 22.6855 29.2417 22.0241 29.5433 21.2961C29.8448 20.5681 30 19.7879 30 19C30 18.2121 29.8448 17.4319 29.5433 16.7039C29.2417 15.9759 28.7998 15.3145 28.2426 14.7574C27.6855 14.2002 27.0241 13.7583 26.2961 13.4567C25.5681 13.1552 24.7879 13 24 13C22.4087 13 20.8826 13.6321 19.7574 14.7574C18.6321 15.8826 18 17.4087 18 19C18 20.5913 18.6321 22.1174 19.7574 23.2426C20.8826 24.3679 22.4087 25 24 25Z" fill="white"/>
<path fill-rule="evenodd" clip-rule="evenodd" d="M44 24C44 35.046 35.046 44 24 44C12.954 44 4 35.046 4 24C4 12.954 12.954 4 24 4C35.046 4 44 12.954 44 24ZM33.63 39.21C30.751 41.0376 27.4101 42.0055 24 42C20.5085 42.0054 17.0915 40.9905 14.169 39.08C13.929 38.78 13.685 38.47 13.439 38.15C13.1532 37.7751 12.9989 37.3164 13 36.845C13 35.768 13.774 34.865 14.809 34.714C21.654 33.714 26.367 33.8 33.221 34.749C33.7174 34.821 34.1709 35.0701 34.4979 35.4504C34.8249 35.8307 35.0033 36.3165 35 36.818C35 37.298 34.835 37.764 34.537 38.128C34.23 38.502 33.927 38.863 33.63 39.21ZM36.985 36.466C36.825 34.594 35.404 33.032 33.495 32.768C26.479 31.797 21.575 31.704 14.52 32.735C12.6 33.015 11.185 34.591 11.017 36.468C7.79233 33.1191 5.99364 28.6491 6 24C6 14.059 14.059 6 24 6C33.941 6 42 14.059 42 24C42.0064 28.6481 40.2085 33.1172 36.985 36.466Z" fill="white"/>
</svg>
