<svg width="24" height="24" viewBox="0 0 24 24" fill="none" xmlns="http://www.w3.org/2000/svg">
<path d="M11.293 2.293C11.4805 2.10553 11.7348 2.00021 12 2.00021C12.2652 2.00021 12.5195 2.10553 12.707 2.293L16.707 6.293C16.8892 6.4816 16.99 6.7342 16.9877 6.9964C16.9854 7.2586 16.8802 7.50941 16.6948 7.69482C16.5094 7.88023 16.2586 7.9854 15.9964 7.98767C15.7342 7.98995 15.4816 7.88916 15.293 7.707L13 5.414V16C13 16.2652 12.8946 16.5196 12.7071 16.7071C12.5196 16.8946 12.2652 17 12 17C11.7348 17 11.4804 16.8946 11.2929 16.7071C11.1054 16.5196 11 16.2652 11 16V5.414L8.707 7.707C8.5184 7.88916 8.2658 7.98995 8.0036 7.98767C7.7414 7.9854 7.49059 7.88023 7.30518 7.69482C7.11977 7.50941 7.0146 7.2586 7.01233 6.9964C7.01005 6.7342 7.11084 6.4816 7.293 6.293L11.293 2.293ZM5 17C5.26522 17 5.51957 17.1054 5.70711 17.2929C5.89464 17.4804 6 17.7348 6 18V20H18V18C18 17.7348 18.1054 17.4804 18.2929 17.2929C18.4804 17.1054 18.7348 17 19 17C19.2652 17 19.5196 17.1054 19.7071 17.2929C19.8946 17.4804 20 17.7348 20 18V20C20 20.5304 19.7893 21.0391 19.4142 21.4142C19.0391 21.7893 18.5304 22 18 22H6C5.46957 22 4.96086 21.7893 4.58579 21.4142C4.21071 21.0391 4 20.5304 4 20V18C4 17.7348 4.10536 17.4804 4.29289 17.2929C4.48043 17.1054 4.73478 17 5 17Z" fill="#F8F8F8"/>
</svg>
