<svg width="26" height="26" viewBox="0 0 26 26" fill="none" xmlns="http://www.w3.org/2000/svg">
<path d="M13 0C12.3 0 11.794 0.294 11.594 0.594C11.494 0.694 11.413 0.9 11.313 1H10C8.9 1 8 1.9 8 3H6C4.3 3 3 4.3 3 6V23C3 24.7 4.3 26 6 26H20C21.7 26 23 24.7 23 23V6C23 4.3 21.7 3 20 3H18C18 1.9 17.1 1 16 1H14.687C14.587 0.9 14.507 0.694 14.407 0.594C14.206 0.294 13.7 0 13 0ZM10 3H16V5H10V3ZM6 6H8.313C8.613 6.6 9.3 7 10 7H16C16.7 7 17.387 6.6 17.688 6H20V23H6V6ZM16.563 10.688C16.375 10.688 16.193 10.756 16.093 10.906L11.688 15.594L10 14C9.7 13.7 9.2 13.7 9 14L8.312 14.688C8.012 14.988 8.012 15.488 8.312 15.688L11.094 18.312C11.494 18.712 12.1 18.587 12.5 18.187L17.906 12.407C18.106 12.207 18.113 11.8 17.813 11.5L17.093 10.906C17.0234 10.8364 16.9408 10.7812 16.8499 10.7436C16.7589 10.706 16.6614 10.6878 16.563 10.688Z" fill="white"/>
</svg>
