<svg width="1024" height="1024" viewBox="0 0 1024 1024" fill="none" xmlns="http://www.w3.org/2000/svg">
<path d="M868 732H797.7C792.9 732 788.4 734.1 785.4 737.8C778.4 746.3 770.9 754.5 763 762.3C730.689 794.643 692.417 820.418 650.3 838.2C606.666 856.63 559.767 866.085 512.4 866C464.5 866 418.1 856.6 374.5 838.2C332.383 820.418 294.111 794.643 261.8 762.3C229.432 730.066 203.622 691.861 185.8 649.8C167.3 606.2 158 559.9 158 512C158 464.1 167.4 417.8 185.8 374.2C203.6 332.1 229.2 294.2 261.8 261.7C294.4 229.2 332.3 203.6 374.5 185.8C418.1 167.4 464.5 158 512.4 158C560.3 158 606.7 167.3 650.3 185.8C692.5 203.6 730.4 229.2 763 261.7C770.9 269.6 778.3 277.8 785.4 286.2C788.4 289.9 793 292 797.7 292H868C874.3 292 878.2 285 874.7 279.7C798 160.5 663.8 81.6 511.3 82C271.7 82.6 79.6 277.1 82 516.4C84.4 751.9 276.2 942 512.4 942C664.5 942 798.1 863.2 874.7 744.3C878.1 739 874.3 732 868 732ZM956.9 505.7L815 393.7C809.7 389.5 802 393.3 802 400V476H488C483.6 476 480 479.6 480 484V540C480 544.4 483.6 548 488 548H802V624C802 630.7 809.8 634.5 815 630.3L956.9 518.3C957.856 517.552 958.629 516.595 959.161 515.504C959.693 514.412 959.969 513.214 959.969 512C959.969 510.786 959.693 509.588 959.161 508.496C958.629 507.404 957.856 506.448 956.9 505.7Z" fill="#F8F8F8"/>
</svg>
