<svg width="25" height="24" viewBox="0 0 25 24" fill="none" xmlns="http://www.w3.org/2000/svg">
<path d="M4.97198 18H20.972C21.522 18 21.972 17.55 21.972 17C21.972 16.45 21.522 16 20.972 16H4.97198C4.42198 16 3.97198 16.45 3.97198 17C3.97198 17.55 4.42198 18 4.97198 18ZM4.97198 13H20.972C21.522 13 21.972 12.55 21.972 12C21.972 11.45 21.522 11 20.972 11H4.97198C4.42198 11 3.97198 11.45 3.97198 12C3.97198 12.55 4.42198 13 4.97198 13ZM3.97198 7C3.97198 7.55 4.42198 8 4.97198 8H20.972C21.522 8 21.972 7.55 21.972 7C21.972 6.45 21.522 6 20.972 6H4.97198C4.42198 6 3.97198 6.45 3.97198 7Z" fill="#F8F8F8"/>
</svg>
