<svg width="48" height="48" viewBox="0 0 48 48" fill="none" xmlns="http://www.w3.org/2000/svg">
<path d="M35 44V7C35 6.20435 34.6839 5.44129 34.1213 4.87868C33.5587 4.31607 32.7956 4 32 4H8C7.20435 4 6.44129 4.31607 5.87868 4.87868C5.31607 5.44129 5 6.20435 5 7V41C5 41.7956 5.31607 42.5587 5.87868 43.1213C6.44129 43.6839 7.20435 44 8 44H35ZM35 44H40C40.7956 44 41.5587 43.6839 42.1213 43.1213C42.6839 42.5587 43 41.7956 43 41V24C43 23.4696 42.7893 22.9609 42.4142 22.5858C42.0391 22.2107 41.5304 22 41 22H37C36.4696 22 35.9609 22.2107 35.5858 22.5858C35.2107 22.9609 35 23.4696 35 24V44Z" stroke="#F8F8F8" stroke-width="4" stroke-linejoin="round"/>
<path d="M11 12H19M11 19H23" stroke="#F8F8F8" stroke-width="4" stroke-linecap="round" stroke-linejoin="round"/>
</svg>
