<svg version="1.1" id="Layer_1" xmlns="http://www.w3.org/2000/svg" xmlns:xlink="http://www.w3.org/1999/xlink" x="0px" y="0px"
	 width="100%" viewBox="0 0 327 258" enable-background="new 0 0 327 258" xml:space="preserve">
<path fill="#FEFEFF" opacity="1.000000" stroke="none" 
	d="
M228.000000,259.000000 
	C153.365021,259.000000 79.230019,258.975952 5.095191,259.081268 
	C1.880648,259.085815 0.886732,258.719025 0.892759,255.098312 
	C1.031703,171.634216 1.022944,88.169823 0.913361,4.705648 
	C0.909122,1.476730 1.773551,0.927297 4.791317,0.929681 
	C111.245743,1.013784 217.700241,1.011226 324.154694,0.940257 
	C327.043945,0.938331 328.100555,1.288944 328.095673,4.651672 
	C327.973694,88.282410 327.976776,171.913391 328.091278,255.544159 
	C328.095520,258.646088 327.320953,259.084869 324.458435,259.074341 
	C292.472626,258.956635 260.486237,259.000000 228.000000,259.000000 
z"/>
<path fill="#1F3692" opacity="1.000000" stroke="none" 
	d="
M140.215500,59.672569 
	C133.895035,51.719990 134.776764,40.879520 142.033722,34.449192 
	C149.121155,28.169079 160.806595,28.396669 167.574463,34.770622 
	C173.530930,40.380394 176.024261,53.886967 167.358459,61.924664 
	C164.417023,61.871456 164.757248,59.453495 164.505569,58.045635 
	C163.676743,53.409336 160.430115,51.760868 156.494568,51.094322 
	C152.532913,50.423347 148.874100,51.262505 146.339615,54.800762 
	C145.663528,55.744610 145.091354,56.768879 143.671890,57.438416 
	C141.177750,56.344131 140.509567,57.409538 140.215500,59.672569 
z"/>
<path fill="#1C2458" opacity="1.000000" stroke="none" 
	d="
M152.218216,155.299835 
	C151.816956,129.959488 151.769012,104.877098 151.581635,79.795746 
	C151.554810,76.207024 153.554443,76.683823 156.086304,77.362350 
	C156.383881,77.956261 156.378601,78.221825 156.378723,78.885788 
	C156.380920,104.568306 156.377701,129.852417 156.261978,155.597763 
	C154.789581,156.994080 153.619385,156.557114 152.218216,155.299835 
z"/>
<path fill="#2A2E60" opacity="1.000000" stroke="none" 
	d="
M107.462372,108.218445 
	C105.509781,103.661156 105.956581,99.444122 107.870193,95.375572 
	C111.282181,88.121315 118.597794,86.483047 126.037888,91.598709 
	C126.375275,91.736771 126.454407,91.562592 126.733696,91.182770 
	C126.892738,88.632515 126.851631,86.287918 126.865540,83.507523 
	C126.206581,81.670364 126.608955,80.176300 126.737099,78.313950 
	C130.451172,75.624023 131.472076,75.969948 131.504181,79.768837 
	C131.580841,88.842827 131.493210,97.918205 131.363312,107.424469 
	C129.863861,109.357712 128.382172,109.110039 126.623535,107.772644 
	C125.508118,105.591171 125.840950,103.555511 125.587288,101.600082 
	C124.941750,96.623734 122.766937,93.903587 119.383896,93.851913 
	C116.035706,93.800766 113.652458,96.410072 112.612999,101.228867 
	C112.229317,103.007538 112.369873,104.868790 111.563171,106.954086 
	C110.422897,108.422775 109.277916,108.974701 107.462372,108.218445 
z"/>
<path fill="#343A66" opacity="1.000000" stroke="none" 
	d="
M168.748688,168.782806 
	C168.814270,167.401840 169.115082,165.543045 169.360870,165.710236 
	C173.281784,168.376999 178.110992,162.139389 181.719437,167.045914 
	C183.164536,169.010818 183.844238,166.759445 184.732239,166.253662 
	C189.399628,163.595291 193.552124,165.279541 194.308884,170.589417 
	C194.819946,174.175323 194.547684,177.873322 194.618088,181.521347 
	C194.639771,182.644669 194.232193,183.545349 192.984650,183.533386 
	C191.738281,183.521423 191.399124,182.603455 191.371307,181.490326 
	C191.292526,178.338638 191.219208,175.186157 191.076996,172.036987 
	C190.976364,169.808228 190.036896,168.116135 187.576889,168.006180 
	C185.136978,167.897141 183.873032,169.539932 183.632523,171.674316 
	C183.299881,174.626404 183.391891,177.624481 183.239029,180.599625 
	C183.177139,181.803741 183.767426,183.602753 181.629303,183.511902 
	C179.609924,183.426071 180.134247,181.690170 180.097580,180.456299 
	C180.023651,177.966660 180.058990,175.473862 179.991562,172.983917 
	C179.924637,170.511566 179.464737,168.061340 176.354645,168.065247 
	C173.198029,168.069214 172.220840,170.445679 172.095734,173.152222 
	C171.973114,175.804840 172.093552,178.467865 172.053345,181.125504 
	C172.036728,182.224747 172.327866,183.599777 170.477081,183.572174 
	C168.786758,183.546982 168.756378,182.371094 168.755783,181.157135 
	C168.753815,177.169785 168.750778,173.182449 168.748688,168.782806 
z"/>
<path fill="#272C5B" opacity="1.000000" stroke="none" 
	d="
M234.362930,100.257820 
	C233.846649,95.859375 232.528336,92.399307 227.469666,92.590569 
	C223.421143,92.743629 221.126007,95.903656 221.015701,101.118393 
	C220.980545,102.781052 220.984436,104.444542 220.897141,106.549042 
	C219.620300,108.100403 218.281860,108.209625 216.501801,107.256142 
	C216.104691,101.831841 216.016861,96.679451 216.005447,91.526901 
	C216.003525,90.652519 215.515625,89.347153 216.939545,89.112206 
	C217.859772,88.960365 219.630981,89.062477 219.691727,89.340820 
	C220.606598,93.533592 222.311737,90.957932 223.953445,89.982323 
	C230.505325,86.088791 237.836380,89.554352 238.914368,97.160042 
	C239.284775,99.773415 239.072083,102.469437 239.043594,105.579346 
	C238.121307,107.890327 236.692581,108.130806 234.653778,107.212097 
	C234.300522,105.229370 234.237534,103.526291 234.239151,101.400787 
	C234.303757,100.978363 234.433167,100.496964 234.362930,100.257820 
z"/>
<path fill="#2E325F" opacity="1.000000" stroke="none" 
	d="
M88.385910,98.858734 
	C88.352020,102.551086 88.373169,105.824806 88.286346,109.539452 
	C87.159058,111.131187 85.838860,111.158730 84.098923,110.865280 
	C83.139175,110.422646 82.791443,109.960419 82.593704,109.264015 
	C82.073700,107.432617 84.062920,104.361839 80.815308,103.957924 
	C78.028389,103.611290 75.270172,104.703758 73.784187,107.577316 
	C73.406479,108.307716 73.079720,109.065262 72.375351,110.033417 
	C70.533539,111.134048 69.120865,110.884163 67.649384,109.290115 
	C68.377220,102.623924 71.501221,100.023575 78.916138,98.982124 
	C80.481140,98.762314 83.452026,100.375900 83.268990,96.790054 
	C83.132935,94.124695 81.321487,92.663048 78.797157,92.181732 
	C76.617760,91.766182 74.524071,92.280426 72.469620,93.040192 
	C71.520454,93.391205 70.433975,94.491653 69.777710,92.501808 
	C69.298073,91.047554 69.820137,90.523048 71.016273,89.834534 
	C77.277870,86.230247 85.003899,88.679817 87.970428,95.671173 
	C88.645042,96.739494 88.449356,97.607590 88.385910,98.858734 
z"/>
<path fill="#343A66" opacity="1.000000" stroke="none" 
	d="
M221.164459,166.643188 
	C224.910080,170.440018 225.012955,174.655090 223.423904,178.908463 
	C221.617142,183.744598 217.663879,184.885864 210.619736,182.517792 
	C210.619736,184.765518 210.624771,186.792465 210.617920,188.819382 
	C210.613586,190.104584 210.334763,191.123398 208.690857,191.042038 
	C207.354309,190.975891 207.090607,190.156647 207.091034,189.056915 
	C207.093811,181.915436 207.091248,174.773972 207.091583,167.632492 
	C207.091629,166.792847 207.414948,165.361618 208.025711,165.675461 
	C212.253036,167.847702 216.819595,162.757721 221.164459,166.643188 
z"/>
<path fill="#2E325F" opacity="1.000000" stroke="none" 
	d="
M176.737854,104.243332 
	C179.455856,100.198303 183.464325,99.713058 187.386215,98.953522 
	C188.754593,98.688538 191.095886,100.077255 191.194183,97.270828 
	C191.270050,95.104080 190.097504,93.451683 188.050995,92.599190 
	C185.582733,91.571022 183.182617,92.165955 180.750305,92.923058 
	C179.754608,93.232986 178.412720,94.706879 177.636185,92.382812 
	C176.968033,90.383087 178.405746,90.163483 179.563156,89.625191 
	C188.696793,85.377182 196.130936,90.033310 196.204468,100.046768 
	C196.213028,101.212067 196.183807,102.377647 196.096619,103.989288 
	C197.001526,107.681099 195.687256,109.277367 192.085846,109.285889 
	C189.084869,101.866081 187.283478,101.775719 179.403214,108.607056 
	C176.057373,108.647018 176.270340,106.665764 176.737854,104.243332 
z"/>
<path fill="#3B4FA3" opacity="1.000000" stroke="none" 
	d="
M142.856354,57.441910 
	C145.506287,54.566971 146.684860,50.605286 151.060135,49.978188 
	C158.873688,48.858284 165.599548,50.729973 166.794373,61.853012 
	C165.148804,64.371918 162.480835,65.261726 159.369324,66.006302 
	C158.046417,64.307159 157.954483,64.276451 158.151474,63.686668 
	C158.932571,61.348141 158.675003,59.350887 156.248917,58.206650 
	C153.522644,56.920841 151.853210,58.431774 150.511124,60.605721 
	C150.248795,61.030659 149.942017,61.425655 149.326538,62.029453 
	C145.827026,62.362484 143.912094,60.645134 142.856354,57.441910 
z"/>
<path fill="#242A59" opacity="1.000000" stroke="none" 
	d="
M263.360077,115.062027 
	C260.257660,113.601997 260.202057,110.834435 260.082672,108.234619 
	C259.907715,104.423004 260.047455,100.598007 259.961365,96.780785 
	C259.921204,95.001808 260.832825,92.664848 257.399872,92.752129 
	C255.323975,92.804901 256.175079,90.880585 256.063477,89.693962 
	C259.934265,89.654808 259.704285,86.429932 260.782715,84.026230 
	C261.119965,83.274467 263.242340,82.892006 264.426697,83.084457 
	C265.426514,83.246918 265.124603,84.804893 264.983154,85.690742 
	C264.469086,88.909607 266.255219,89.155800 268.752350,89.038544 
	C269.968262,88.981453 271.924957,88.083572 272.030945,90.700455 
	C272.125305,93.030098 270.588318,93.099907 269.081085,92.833763 
	C265.192657,92.147148 264.770691,94.195778 264.962341,97.344673 
	C265.214142,101.481102 265.091644,105.640305 265.261841,110.218323 
	C265.724304,112.412018 265.409851,113.930138 263.360077,115.062027 
z"/>
<path fill="#2E325F" opacity="1.000000" stroke="none" 
	d="
M235.016800,174.162231 
	C235.226410,171.913406 235.778946,170.192459 236.808197,168.651672 
	C239.891113,164.036453 246.371735,163.739059 249.384689,168.085571 
	C250.650177,169.911194 251.705734,172.127045 250.821350,174.134827 
	C249.953018,176.106110 247.589981,174.732697 245.914688,175.007599 
	C244.785355,175.192917 243.581146,174.910492 242.446930,175.080597 
	C241.100784,175.282486 238.956711,174.143707 238.576004,176.020782 
	C238.165909,178.042648 239.519623,179.988022 241.571899,180.608810 
	C243.253571,181.117477 245.149277,180.959686 246.952530,181.009521 
	C248.021973,181.039078 249.557861,180.206970 249.725571,181.968658 
	C249.875870,183.547272 248.133621,183.407364 247.158997,183.668839 
	C240.517609,185.450577 236.047699,182.070511 235.016800,174.162231 
z"/>
<path fill="#2E325F" opacity="1.000000" stroke="none" 
	d="
M263.609985,183.434464 
	C262.535339,183.462784 261.536621,183.893066 261.276978,182.717758 
	C261.223389,182.475235 261.442169,182.081253 261.653900,181.884674 
	C267.414062,176.536606 266.746552,171.246643 260.482391,165.839417 
	C266.301941,164.643234 266.163727,169.860764 269.051483,171.573715 
	C270.372650,169.746399 271.635864,167.850052 273.064880,166.088150 
	C273.739502,165.256378 274.921021,165.064102 275.744202,165.793686 
	C276.614960,166.565445 275.720062,167.394791 275.191193,167.860474 
	C269.649109,172.740387 271.826447,177.194397 275.825195,181.615570 
	C276.121124,181.942764 276.136871,182.523392 276.375824,183.280884 
	C271.152802,184.300232 271.509827,178.638840 268.588196,177.109955 
	C267.038330,179.173370 265.483887,181.242874 263.609985,183.434464 
z"/>
<path fill="#5A5C6B" opacity="1.000000" stroke="none" 
	d="
M107.113235,108.321167 
	C108.520287,108.144325 109.780952,107.769066 111.359436,106.985443 
	C112.238998,106.967125 112.702812,107.160126 113.078979,107.492485 
	C118.434143,112.223961 120.237679,112.126854 126.342346,106.689125 
	C127.545532,108.217049 129.034531,108.100510 130.891479,107.913361 
	C131.461945,109.808243 131.695465,111.758286 131.865356,113.713844 
	C131.950607,114.695129 132.019409,115.883720 130.670609,115.963493 
	C129.481247,116.033836 127.753731,116.781296 127.258606,115.102753 
	C126.798553,113.543060 126.916588,112.888969 124.991730,114.057381 
	C116.897423,118.970711 111.258308,117.178078 107.113235,108.321167 
z"/>
<path fill="#4B4D57" opacity="1.000000" stroke="none" 
	d="
M190.979645,108.864410 
	C194.070724,109.034897 195.610367,107.794563 195.955460,104.732597 
	C196.212051,107.392189 196.455017,110.347046 196.561447,113.306801 
	C196.592453,114.169426 197.269104,115.471657 195.910019,115.831940 
	C194.712692,116.149345 192.743774,116.653404 192.384750,115.294128 
	C191.703323,112.714294 191.018784,113.695084 189.639542,114.642174 
	C185.930222,117.189278 181.953751,117.784744 178.157791,114.928772 
	C174.317291,112.039284 174.689178,108.165138 176.562698,104.022346 
	C177.165466,105.487106 176.236542,107.763649 179.518280,107.972031 
	C184.764389,112.672035 184.792923,112.674545 190.979645,108.864410 
z"/>
<path fill="#707285" opacity="1.000000" stroke="none" 
	d="
M155.877411,164.710083 
	C157.352280,170.703339 156.520584,176.512100 156.784821,182.290543 
	C156.866959,184.086929 156.205856,185.011276 154.208725,185.055695 
	C152.028763,185.104156 151.232986,184.204102 151.264618,182.123932 
	C151.347946,176.646790 151.356903,171.168518 151.578796,165.324036 
	C152.911392,164.186218 154.120285,163.869431 155.877411,164.710083 
z"/>
<path fill="#343A66" opacity="1.000000" stroke="none" 
	d="
M39.557308,101.221298 
	C39.269558,98.182465 39.059078,95.376053 39.179581,92.583939 
	C39.231911,91.371483 37.979996,89.445091 40.333153,88.995178 
	C42.622387,88.557487 44.237572,89.254173 43.612465,92.622322 
	C46.094925,90.606712 47.648491,88.808022 50.098003,88.519257 
	C51.515736,88.352119 52.847267,88.328804 52.868210,90.282562 
	C52.881706,91.541298 53.252590,92.891060 51.142174,93.089615 
	C45.657207,93.605637 44.324177,97.489799 44.054958,102.535500 
	C42.515423,102.555412 41.087479,102.167953 39.557308,101.221298 
z"/>
<path fill="#4B4D57" opacity="1.000000" stroke="none" 
	d="
M67.329620,109.316574 
	C68.776123,109.305428 70.129578,109.643135 71.839432,109.970398 
	C75.587318,111.828476 78.940018,111.573616 82.591019,109.874260 
	C84.378685,109.979889 85.839874,109.987289 87.739716,109.987534 
	C89.031052,115.659996 89.043701,115.619202 83.753548,113.979187 
	C82.494995,113.589020 81.727287,114.883179 80.719940,115.368973 
	C74.331848,118.449699 69.537323,116.430550 67.329620,109.316574 
z"/>
<path fill="#6171B5" opacity="1.000000" stroke="none" 
	d="
M148.959473,62.395500 
	C150.699783,56.856491 152.953766,55.233932 156.407104,56.729187 
	C160.238678,58.388218 160.850571,60.803310 158.821014,65.771011 
	C155.705917,67.241104 152.427139,67.666649 149.050568,65.433289 
	C150.216217,63.456207 152.748627,64.242790 154.041733,62.355064 
	C152.288589,62.220558 150.716461,65.097359 148.959473,62.395500 
z"/>
<path fill="#4B4D57" opacity="1.000000" stroke="none" 
	d="
M39.249962,101.441956 
	C40.880642,101.315895 42.789177,100.237656 43.928932,102.537964 
	C44.043316,106.337509 44.112640,109.787315 44.211174,113.236282 
	C44.256676,114.829018 44.233414,116.112022 41.963581,116.085609 
	C39.868805,116.061226 39.011127,115.427422 39.087322,113.255013 
	C39.219933,109.474167 39.143173,105.685966 39.249962,101.441956 
z"/>
<path fill="#6E7FC3" opacity="1.000000" stroke="none" 
	d="
M148.708496,61.915001 
	C150.308228,63.372688 151.333221,63.158855 152.013977,61.471630 
	C152.791718,59.544083 154.342041,59.927326 155.804352,60.194847 
	C156.524918,60.326675 156.873810,60.950993 156.812332,61.689911 
	C156.674042,63.351990 155.427460,63.816124 154.074799,64.116737 
	C152.627213,64.438431 151.172134,64.726318 149.310822,65.055573 
	C148.901337,65.082169 148.957153,65.042915 148.961456,65.076477 
	C148.830032,64.948753 148.694275,64.787453 148.274902,64.766068 
	C144.733521,64.601173 142.786179,62.198463 140.256226,60.086800 
	C139.968796,59.104351 139.939987,58.290802 139.992172,57.482483 
	C140.038788,56.760548 139.015121,55.816406 140.026474,55.382809 
	C141.103989,54.920849 141.629257,56.202866 142.656662,56.902248 
	C144.203094,59.275024 146.215347,60.628105 148.708496,61.915001 
z"/>
<path fill="#4B4D57" opacity="1.000000" stroke="none" 
	d="
M234.259476,107.380569 
	C235.728348,106.979088 237.115387,107.166153 238.649033,106.167732 
	C239.050339,108.479774 239.099594,110.930870 239.241684,113.376572 
	C239.342316,115.108978 238.978271,116.085121 236.879242,116.092476 
	C234.723801,116.100037 233.936829,115.356033 234.100403,113.238991 
	C234.239014,111.444847 234.145966,109.632805 234.259476,107.380569 
z"/>
<path fill="#3D3E50" opacity="1.000000" stroke="none" 
	d="
M216.091599,107.436348 
	C217.460419,106.987755 218.754059,106.991219 220.435745,106.992561 
	C220.882919,109.269928 220.879944,111.553276 221.021194,113.827667 
	C221.129959,115.578461 220.345337,116.055542 218.718063,116.030655 
	C217.089005,116.005745 215.809464,115.967537 215.973465,113.759026 
	C216.118073,111.811829 216.011856,109.846008 216.091599,107.436348 
z"/>
<path fill="#3D3E50" opacity="1.000000" stroke="none" 
	d="
M156.355743,164.502960 
	C155.090485,165.006927 153.876144,165.067245 152.211960,165.042480 
	C151.727097,161.941437 151.692047,158.925507 151.783264,155.475555 
	C153.079666,155.351685 154.249817,155.661835 155.784714,156.015472 
	C156.235214,158.725769 156.320938,161.392548 156.355743,164.502960 
z"/>
<path fill="#707285" opacity="1.000000" stroke="none" 
	d="
M263.153442,115.507317 
	C263.681000,113.896599 265.142029,113.050842 265.317749,111.018661 
	C266.357574,111.849937 267.093384,113.363342 269.125549,112.854141 
	C270.290100,112.562340 271.750977,111.790108 271.813354,114.158638 
	C271.859192,115.899162 270.832184,116.402832 269.487518,116.739502 
	C267.314178,117.283676 265.288757,116.800835 263.153442,115.507317 
z"/>
<path fill="#5A5C6B" opacity="1.000000" stroke="none" 
	d="
M126.812561,78.218750 
	C126.977722,79.347305 127.040398,80.786484 127.011810,82.648697 
	C126.850395,81.557610 126.780235,80.043488 126.812561,78.218750 
z"/>
<path fill="#707285" opacity="1.000000" stroke="none" 
	d="
M88.413193,99.010941 
	C88.168015,98.470703 88.005142,97.664040 87.913132,96.445747 
	C88.154495,96.937584 88.325005,97.841057 88.413193,99.010941 
z"/>
<path fill="#6171B5" opacity="1.000000" stroke="none" 
	d="
M148.235321,64.955002 
	C148.229065,64.605644 148.460312,64.269417 148.902954,64.930992 
	C148.965775,65.110046 148.479370,65.004021 148.235321,64.955002 
z"/>
<path fill="#4B4D57" opacity="1.000000" stroke="none" 
	d="
M234.208191,100.259605 
	C234.662811,100.188240 234.761444,100.450340 234.446182,100.891663 
	C234.243744,100.819084 234.183716,100.659813 234.208191,100.259605 
z"/>
<path fill="#707285" opacity="1.000000" stroke="none" 
	d="
M156.542191,79.116165 
	C156.300522,79.018417 156.216904,78.752640 156.261230,78.088776 
	C156.513184,77.957123 156.662018,78.215668 156.750473,78.493431 
	C156.792755,78.626190 156.720566,78.795425 156.542191,79.116165 
z"/>
<path fill="#5A5C6B" opacity="1.000000" stroke="none" 
	d="
M126.793976,91.223930 
	C126.839767,91.302223 126.745682,91.627327 126.473862,91.931686 
	C126.415451,91.764221 126.534775,91.617477 126.793976,91.223930 
z"/>
<path fill="#F6F8FA" opacity="1.000000" stroke="none" 
	d="
M126.658386,106.184692 
	C125.159103,109.848755 123.159775,112.641205 119.141792,112.560867 
	C115.723785,112.492516 113.323616,110.661453 111.907028,107.147659 
	C110.892967,103.922806 110.996750,101.007523 111.970642,98.105629 
	C113.209679,94.413696 115.767380,92.119812 119.637566,92.289459 
	C123.544785,92.460716 125.994423,94.919601 126.467949,98.877769 
	C126.739792,101.150093 126.597595,103.471962 126.658386,106.184692 
z"/>
<path fill="#EEEFF3" opacity="1.000000" stroke="none" 
	d="
M83.007523,109.590225 
	C78.210495,113.943314 76.273750,114.033104 72.445557,110.203186 
	C72.640968,104.585876 76.709076,100.959297 81.862366,102.296844 
	C85.909927,103.347404 83.312653,106.752235 83.007523,109.590225 
z"/>
<path fill="#F6F8FA" opacity="1.000000" stroke="none" 
	d="
M220.919922,173.295410 
	C220.915237,177.201141 220.535599,180.556396 216.097733,181.058441 
	C212.865189,181.424133 210.988251,179.667557 210.721161,176.550705 
	C210.437271,173.238083 210.088577,169.478500 214.189331,168.180603 
	C218.061340,166.955078 220.041306,169.341400 220.919922,173.295410 
z"/>
<path fill="#EEEFF3" opacity="1.000000" stroke="none" 
	d="
M191.369919,108.406105 
	C186.577148,114.650375 182.692657,114.615517 179.999786,108.341934 
	C181.130600,103.003540 185.320572,102.297058 189.242493,102.320160 
	C193.466980,102.345039 190.898788,105.987236 191.369919,108.406105 
z"/>
<path fill="#DAE0EC" opacity="1.000000" stroke="none" 
	d="
M238.566956,172.260406 
	C239.012955,169.413651 240.375320,167.686539 243.052567,167.495575 
	C244.810150,167.370224 246.250092,168.102554 247.109818,169.750504 
	C248.030090,171.514511 248.343475,172.966980 245.556320,172.873749 
	C243.264450,172.797104 240.973068,172.705933 238.566956,172.260406 
z"/>
</svg>