<svg width="48" height="48" viewBox="0 0 48 48" fill="none" xmlns="http://www.w3.org/2000/svg">
<path d="M24 44H10C9.46957 44 8.96086 43.7893 8.58579 43.4142C8.21071 43.0391 8 42.5304 8 42V6C8 5.46957 8.21071 4.96086 8.58579 4.58579C8.96086 4.21071 9.46957 4 10 4H38C38.5304 4 39.0391 4.21071 39.4142 4.58579C39.7893 4.96086 40 5.46957 40 6V24M35.5 44V31" stroke="#F8F8F8" stroke-width="4" stroke-linecap="round" stroke-linejoin="round"/>
<path d="M31 34.5L32.5 33L35.5 30L38.5 33L40 34.5" stroke="#F8F8F8" stroke-width="4" stroke-linecap="round" stroke-linejoin="round"/>
<path d="M16 16H32M16 24H24" stroke="#F8F8F8" stroke-width="4" stroke-linecap="round"/>
</svg>
