<svg width="16" height="10" viewBox="0 0 16 10" fill="none" xmlns="http://www.w3.org/2000/svg">
<path id="Vector" d="M15.954 4.7975C15.9307 4.74813 15.366 3.57375 14.1107 2.39687C12.438 0.82875 10.3253 0 8 0C5.67466 0 3.562 0.82875 1.88933 2.39687C0.633994 3.57375 0.0666603 4.75 0.0459936 4.7975C0.0156691 4.86144 0 4.93064 0 5.00062C0 5.0706 0.0156691 5.1398 0.0459936 5.20375C0.069327 5.25312 0.633994 6.42688 1.88933 7.60375C3.562 9.17125 5.67466 10 8 10C10.3253 10 12.438 9.17125 14.1107 7.60375C15.366 6.42688 15.9307 5.25312 15.954 5.20375C15.9843 5.1398 16 5.0706 16 5.00062C16 4.93064 15.9843 4.86144 15.954 4.7975ZM8 9C5.948 9 4.15533 8.30062 2.67133 6.92188C2.06243 6.35418 1.54439 5.70685 1.13333 5C1.54428 4.29309 2.06233 3.64574 2.67133 3.07812C4.15533 1.69938 5.948 1 8 1C10.052 1 11.8447 1.69938 13.3287 3.07812C13.9388 3.6456 14.4579 4.29295 14.87 5C14.3893 5.84125 12.2953 9 8 9ZM8 2C7.3671 2 6.74841 2.17595 6.22217 2.50559C5.69594 2.83524 5.28578 3.30377 5.04358 3.85195C4.80138 4.40013 4.73801 5.00333 4.86148 5.58527C4.98496 6.16721 5.28973 6.70176 5.73726 7.12132C6.18478 7.54088 6.75497 7.8266 7.37571 7.94236C7.99645 8.05811 8.63986 7.9987 9.22459 7.77164C9.80931 7.54458 10.3091 7.16006 10.6607 6.66671C11.0123 6.17336 11.2 5.59334 11.2 5C11.1991 4.2046 10.8617 3.44202 10.2618 2.87959C9.66184 2.31716 8.84842 2.00083 8 2ZM8 7C7.57807 7 7.16561 6.8827 6.81478 6.66294C6.46396 6.44318 6.19052 6.13082 6.02906 5.76537C5.86759 5.39991 5.82534 4.99778 5.90766 4.60982C5.98997 4.22186 6.19315 3.86549 6.4915 3.58579C6.78986 3.30608 7.16998 3.1156 7.58381 3.03843C7.99763 2.96126 8.42658 3.00087 8.81639 3.15224C9.20621 3.30362 9.53939 3.55996 9.7738 3.88886C10.0082 4.21776 10.1333 4.60444 10.1333 5C10.1333 5.53043 9.90857 6.03914 9.50849 6.41421C9.10842 6.78929 8.5658 7 8 7Z" fill="#808080"/>
</svg>
